<svg width="1132" height="1132" viewBox="0 0 1132 1132" fill="none" xmlns="http://www.w3.org/2000/svg">
<rect width="1132" height="1132" rx="230" fill="black"/>
<g clip-path="url(#clip0_167_98)">
<path d="M448.085 343.326C458.802 343.326 469.297 349.232 474.175 358.008L777.552 903.811C785.34 917.822 775.673 932.35 758.562 932.35L735.393 932.35C724.7 932.35 714.224 926.47 709.332 917.721L404.137 371.918C396.297 357.897 405.959 343.326 423.097 343.326L448.085 343.326Z" fill="#FFFFE9" stroke="#FFFFE9" stroke-width="9"/>
<path d="M481.511 353.655C475.067 353.885 471.523 347.52 475.692 343.203L621.336 192.384C622.84 190.827 625.079 189.932 627.402 189.96L686.25 190.676C692.538 190.752 695.72 197.025 691.587 201.197L544.964 349.24C543.556 350.662 541.525 351.519 539.38 351.595L481.511 353.655Z" fill="#FFFFE9" stroke="#FFFFE9" stroke-width="8"/>
<path d="M439.5 793C439.5 782.783 447.783 774.5 458 774.5H583C593.217 774.5 601.5 782.783 601.5 793V810C601.5 820.217 593.217 828.5 583 828.5H458C447.783 828.5 439.5 820.217 439.5 810V793Z" fill="#FFFFE9" stroke="#FFFFE9" stroke-width="7"/>
<path d="M455 888C455 878.059 463.059 870 473 870H587C596.941 870 605 878.059 605 888V916C605 925.941 596.941 934 587 934H473C463.059 934 455 925.941 455 916V888Z" fill="#FFFFE9"/>
<path d="M380.763 934V337.636H593.334C639.73 337.636 678.168 346.081 708.646 362.97C739.124 379.859 761.934 402.961 777.077 432.274C792.219 461.393 799.79 494.201 799.79 530.697C799.79 567.388 792.122 600.39 776.785 629.703C761.643 658.822 738.736 681.924 708.064 699.007C677.586 715.896 639.245 724.341 593.042 724.341H446.863V648.048H584.889C614.202 648.048 637.983 643.001 656.231 632.906C674.479 622.617 687.874 608.64 696.416 590.974C704.958 573.309 709.229 553.216 709.229 530.697C709.229 508.179 704.958 488.183 696.416 470.712C687.874 453.24 674.382 439.554 655.94 429.653C637.692 419.753 613.62 414.803 583.724 414.803H470.741V934H380.763Z" fill="#FFFFE9"/>
<path d="M381 222.2C381 209.879 381 203.718 383.398 199.012C385.507 194.873 388.873 191.507 393.012 189.398C397.718 187 403.879 187 416.2 187H437.8C450.121 187 456.282 187 460.988 189.398C465.127 191.507 468.493 194.873 470.602 199.012C473 203.718 473 209.879 473 222.2V324.8C473 337.121 473 343.282 470.602 347.988C468.493 352.127 465.127 355.493 460.988 357.602C456.282 360 450.121 360 437.8 360H416.2C403.879 360 397.718 360 393.012 357.602C388.873 355.493 385.507 352.127 383.398 347.988C381 343.282 381 337.121 381 324.8V222.2Z" fill="#FFFFE9"/>
</g>
<defs>
<clipPath id="clip0_167_98">
<rect width="467" height="798" fill="white" transform="translate(356 167)"/>
</clipPath>
</defs>
</svg>
