<svg width="1148" height="400" viewBox="0 0 1148 400" fill="none" xmlns="http://www.w3.org/2000/svg">
    <path
        d="M799.859 329.22C786.979 329.22 776.552 326.613 768.579 321.4C760.605 316.493 754.779 309.593 751.099 300.7C747.419 291.807 745.579 281.687 745.579 270.34C745.885 258.993 747.419 247.033 750.179 234.46L780.999 97.38C782.225 92.78 784.219 89.2534 786.979 86.8C789.739 84.3467 794.645 83.12 801.699 83.12C810.899 83.12 816.725 84.5 819.179 87.26C821.632 90.02 822.245 94.0067 821.019 99.22L789.279 236.76C787.132 246.573 785.752 255.773 785.139 264.36C784.832 272.947 786.365 279.847 789.739 285.06C793.112 289.967 799.552 292.42 809.059 292.42C817.032 292.42 825.005 289.813 832.979 284.6C840.952 279.08 848.465 271.873 855.519 262.98C862.879 253.78 869.625 243.507 875.759 232.16C881.892 220.813 886.952 209.007 890.939 196.74L914.859 97.38C916.085 92.78 918.079 89.2534 920.839 86.8C923.599 84.3467 928.352 83.12 935.099 83.12C944.605 83.12 950.432 84.5 952.579 87.26C954.725 90.02 955.185 94.0067 953.959 99.22L926.359 225.26C925.132 232.62 923.905 240.287 922.679 248.26C921.759 255.927 921.605 263.133 922.219 269.88C923.139 276.627 925.439 282.147 929.119 286.44C933.105 290.427 939.239 292.42 947.519 292.42C956.105 292.42 964.232 290.273 971.899 285.98C979.872 281.687 987.385 275.86 994.439 268.5C1001.49 261.14 1007.93 252.553 1013.76 242.74C1019.59 232.927 1024.65 222.653 1028.94 211.92C1033.23 200.88 1036.45 189.993 1038.6 179.26C1041.05 168.22 1042.28 157.64 1042.28 147.52C1042.28 137.4 1041.36 129.273 1039.52 123.14C1037.99 116.7 1035.84 112.1 1033.08 109.34C1030.32 106.273 1027.1 104.74 1023.42 104.74C1019.43 104.74 1016.37 106.12 1014.22 108.88C1012.38 111.333 1011.46 114.093 1011.46 117.16C1011.46 122.373 1013.3 126.36 1016.98 129.12C1020.97 131.88 1025.87 133.873 1031.7 135.1C1037.53 136.02 1043.2 136.48 1048.72 136.48C1064.67 136.48 1079.23 134.64 1092.42 130.96C1105.61 126.973 1117.57 121.453 1128.3 114.4C1131.67 112.56 1134.74 112.56 1137.5 114.4C1140.57 116.24 1143.02 119.153 1144.86 123.14C1146.7 126.82 1147.62 130.5 1147.62 134.18C1147.93 137.86 1146.85 140.467 1144.4 142C1130.91 149.973 1116.03 156.26 1099.78 160.86C1083.83 165.153 1065.89 167.3 1045.96 167.3C1034 167.3 1022.81 165.46 1012.38 161.78C1001.95 158.1 993.672 152.58 987.539 145.22C981.405 137.86 978.339 128.66 978.339 117.62C978.339 109.647 980.179 102.287 983.859 95.54C987.539 88.7933 992.752 83.4267 999.499 79.44C1006.55 75.1467 1014.83 73 1024.34 73C1035.99 73 1045.96 76.22 1054.24 82.66C1062.83 88.7934 1069.42 97.38 1074.02 108.42C1078.62 119.46 1080.92 132.34 1080.92 147.06C1080.92 158.713 1079.39 171.44 1076.32 185.24C1073.56 198.733 1069.27 212.38 1063.44 226.18C1057.92 239.673 1051.17 252.707 1043.2 265.28C1035.23 277.547 1026.03 288.587 1015.6 298.4C1005.17 307.907 993.672 315.42 981.099 320.94C968.832 326.46 955.492 329.22 941.079 329.22C927.585 329.22 916.545 326.767 907.959 321.86C899.372 316.953 892.932 310.207 888.639 301.62C884.345 293.033 881.739 283.22 880.819 272.18C874.072 283.833 866.405 293.953 857.819 302.54C849.539 311.127 840.492 317.72 830.679 322.32C821.172 326.92 810.899 329.22 799.859 329.22Z"
        fill="#FFFFF9" />
    <path
        d="M611.719 328.3C598.839 328.3 587.339 326.154 577.219 321.86C566.792 317.567 557.745 311.74 550.079 304.38C542.412 297.02 535.972 288.434 530.759 278.62C525.545 268.807 521.712 258.38 519.259 247.34C516.805 236.3 515.579 225.107 515.579 213.76C515.579 199.347 517.572 184.474 521.559 169.14C525.545 153.5 531.832 139.087 540.419 125.9C548.699 112.714 559.279 102.134 572.159 94.1602C584.732 85.8802 599.605 81.7402 616.779 81.7402C620.765 81.7402 623.525 83.5802 625.059 87.2602C626.592 90.9402 627.052 95.2336 626.439 100.14C625.825 105.047 624.139 109.34 621.379 113.02C618.312 116.7 614.325 118.54 609.419 118.54C601.139 118.54 593.779 121.454 587.339 127.28C580.592 133.107 574.919 140.774 570.319 150.28C565.719 159.787 562.345 170.06 560.199 181.1C557.745 192.14 556.519 203.027 556.519 213.76C556.519 223.574 557.899 233.234 560.659 242.74C563.112 252.247 566.945 260.68 572.159 268.04C577.372 275.4 584.119 281.38 592.399 285.98C600.372 290.58 610.032 292.88 621.379 292.88C635.179 292.88 650.359 287.207 666.919 275.86C683.172 264.514 700.499 247.034 718.899 223.42C737.605 199.807 756.619 169.14 775.939 131.42C777.165 128.967 779.465 128.354 782.839 129.58C786.519 130.5 789.739 132.34 792.499 135.1C795.259 137.86 795.872 140.927 794.339 144.3C773.792 188.767 753.092 224.494 732.239 251.48C711.692 278.467 691.452 298.094 671.519 310.36C651.279 322.32 631.345 328.3 611.719 328.3Z"
        fill="#FFFFF9" />
    <path
        d="M430 336C425.707 336 424 329.5 422.504 322.78C420.358 319.407 419.591 315.574 420.204 311.28C420.511 306.68 422.504 302.694 426.184 299.32C429.558 295.64 434.464 293.8 440.904 293.8C452.558 293.8 463.473 299.32 478.5 293.8C493.527 288.28 511.284 272.487 526.924 262.98C542.564 253.474 557.131 242.894 570.624 231.24C581.664 222.04 591.631 212.38 600.524 202.26C609.724 192.14 616.931 182.02 622.144 171.9C627.358 161.78 629.964 152.274 629.964 143.38C629.964 134.794 628.124 128.507 624.444 124.52C621.071 120.534 615.858 118.54 608.804 118.54C604.511 118.54 601.291 116.7 599.144 113.02C597.304 109.34 596.538 105.047 596.844 100.14C597.151 95.2336 598.991 90.9402 602.364 87.2602C605.738 83.5802 610.491 81.7402 616.624 81.7402C627.664 81.7402 637.324 84.0402 645.604 88.6403C653.884 92.9336 660.171 99.0669 664.464 107.04C669.064 115.014 671.364 124.214 671.364 134.64C671.364 147.827 667.838 161.474 660.784 175.58C653.731 189.687 644.378 203.487 632.724 216.98C621.378 230.474 608.344 243.2 593.624 255.16C577.064 269.267 559.124 281.84 539.804 292.88C520.791 303.92 501.707 329.56 483 336C464.293 342.133 445.64 336 430 336Z"
        fill="#FFFFF9" />
    <path
        d="M93.8 342C83.9333 342 76.8667 339.867 72.6 335.6C68.3333 331.067 66.2 322.667 66.2 310.4C66.2 302.133 67 291.6 68.6 278.8C70.4667 265.733 73.4 247.867 77.4 225.2C84.3333 183.333 89.8 147.067 93.8 116.4C96.2 97.2 97.4 81.2 97.4 68.4C97.4 56.4 93 50.4 84.2 50.4C77.2667 50.4 68.8667 54 59 61.2C49.4 68.1333 38.7333 79.3333 27 94.8C23.2667 99.8667 19.1333 102.4 14.6 102.4C10.8667 102.4 7.53333 100.667 4.6 97.2C1.93333 93.4666 0.6 89.3333 0.6 84.8C0.6 80.5333 1.4 76.2667 3 72C4.86667 67.4667 7.8 62.4 11.8 56.8C24.6 38.9333 38.8667 25.2 54.6 15.6C70.3333 5.73331 86.0667 0.79998 101.8 0.79998C116.467 0.79998 127.667 5.46665 135.4 14.8C143.4 24.1333 147.4 37.7333 147.4 55.6C147.4 62.8 146.733 71.3333 145.4 81.2C144.067 90.8 142.867 98.6667 141.8 104.8C140.733 110.933 139.933 115.2 139.4 117.6C154.6 74.1333 171.667 43.8666 190.6 26.8C209.533 9.46665 230.333 0.79998 253 0.79998C270.333 0.79998 283.933 6.93331 293.8 19.2C303.933 31.4666 309 48.8 309 71.2C309 80 307.8 90.9333 305.4 104C318.733 67.2 334.333 40.8 352.2 24.8C370.067 8.79998 390.6 0.79998 413.8 0.79998C432.467 0.79998 446.733 6.79998 456.6 18.8C466.733 30.8 471.8 47.6 471.8 69.2C471.8 80.9333 470.067 95.2 466.6 112L442.2 226.4C439.533 239.733 438.2 251.2 438.2 260.8C438.2 272 440.733 280.4 445.8 286C451.133 291.6 458.467 294.4 467.8 294.4C476.6 294.4 485.133 291.467 493.4 285.6C501.933 279.733 511.933 270 523.4 256.4C526.6 252.667 530.2 250.8 534.2 250.8C537.667 250.8 540.333 252.4 542.2 255.6C544.333 258.8 545.4 263.2 545.4 268.8C545.4 279.2 542.867 287.467 537.8 293.6C523.933 310.4 510.2 322.667 496.6 330.4C483 338.133 468.733 342 453.8 342C431.133 342 413.4 335.333 400.6 322C387.8 308.4 381.4 290.267 381.4 267.6C381.4 251.867 384.6 229.067 391 199.2L407 126C407.533 123.6 408.467 119.333 409.8 113.2C411.133 107.067 412.2 101.333 413 96C413.8 90.4 414.2 84.9333 414.2 79.6C414.2 70.2667 412.333 63.3333 408.6 58.8C405.133 54 400.067 51.6 393.4 51.6C380.867 51.6 367.667 59.7333 353.8 76C340.2 92 327.133 118.667 314.6 156C302.333 193.333 292.333 241.867 284.6 301.6C282.733 317.6 279.4 328.4 274.6 334C270.067 339.333 262.6 342 252.2 342C243.133 342 236.467 339.867 232.2 335.6C228.2 331.333 226.2 323.333 226.2 311.6C226.2 300.667 227.667 286.4 230.6 268.8C233.533 250.933 237.267 230 241.8 206C254.067 141.467 260.2 99.8667 260.2 81.2C260.2 71.0666 258.2 63.6 254.2 58.8C250.467 54 244.733 51.6 237 51.6C223.933 51.6 210.467 59.0667 196.6 74C182.733 88.6667 169.133 114.933 155.8 152.8C142.733 190.4 131.8 241.333 123 305.6C121.133 319.2 118.333 328.667 114.6 334C111.133 339.333 104.2 342 93.8 342Z"
        fill="#FFFFF9" />
</svg>