<svg width="920" height="105" viewBox="0 0 920 105" fill="none" xmlns="http://www.w3.org/2000/svg">
<path d="M325.151 42.1977C326.648 42.2022 328.083 42.799 329.142 43.8579C330.201 44.9168 330.798 46.3517 330.802 47.8492V59.1508C330.798 60.6483 330.201 62.0832 329.142 63.1421C328.083 64.201 326.648 64.7978 325.151 64.8023H313.849C312.352 64.7978 310.917 64.201 309.858 63.1421C308.799 62.0832 308.202 60.6483 308.198 59.1508V47.8492C308.202 46.3517 308.799 44.9168 309.858 43.8579C310.917 42.799 312.352 42.2022 313.849 42.1977H325.151ZM325.151 39.9375H313.849C309.498 39.9375 305.938 43.4977 305.938 47.8492V59.1508C305.938 63.5023 309.498 67.0625 313.849 67.0625H325.151C329.502 67.0625 333.062 63.5023 333.062 59.1508V47.8492C333.062 43.4977 329.502 39.9375 325.151 39.9375Z" fill="white"/>
<path d="M326.846 47.8491C326.511 47.8491 326.183 47.7497 325.904 47.5634C325.625 47.3771 325.408 47.1124 325.28 46.8026C325.152 46.4928 325.118 46.1519 325.183 45.8231C325.249 45.4942 325.41 45.1921 325.647 44.955C325.884 44.7179 326.187 44.5565 326.515 44.4911C326.844 44.4257 327.185 44.4592 327.495 44.5875C327.805 44.7159 328.069 44.9332 328.256 45.2119C328.442 45.4907 328.541 45.8185 328.541 46.1538C328.542 46.3766 328.498 46.5972 328.413 46.8031C328.328 47.009 328.204 47.1961 328.046 47.3536C327.888 47.5112 327.701 47.636 327.495 47.721C327.29 47.8061 327.069 47.8496 326.846 47.8491ZM319.5 48.9789C320.394 48.9789 321.268 49.2441 322.012 49.7409C322.755 50.2376 323.335 50.9437 323.677 51.7698C324.019 52.5959 324.109 53.505 323.934 54.382C323.76 55.259 323.329 56.0645 322.697 56.6968C322.065 57.3291 321.259 57.7597 320.382 57.9341C319.505 58.1086 318.596 58.019 317.77 57.6769C316.944 57.3347 316.238 56.7552 315.741 56.0117C315.244 55.2682 314.979 54.3941 314.979 53.5C314.98 52.3013 315.457 51.1521 316.305 50.3045C317.152 49.4569 318.301 48.9802 319.5 48.9789ZM319.5 46.7187C318.159 46.7187 316.848 47.1164 315.733 47.8616C314.617 48.6067 313.748 49.6658 313.235 50.9049C312.722 52.144 312.587 53.5075 312.849 54.8229C313.111 56.1384 313.757 57.3467 314.705 58.295C315.653 59.2434 316.862 59.8893 318.177 60.1509C319.492 60.4126 320.856 60.2783 322.095 59.765C323.334 59.2518 324.393 58.3826 325.138 57.2674C325.884 56.1523 326.281 54.8412 326.281 53.5C326.281 51.7015 325.567 49.9766 324.295 48.7049C323.023 47.4332 321.299 46.7187 319.5 46.7187Z" fill="white"/>
<path d="M361.107 47.998C364.341 47.998 366.231 50.14 366.231 53.626V64H363.207V54.298C363.207 51.988 362.073 50.434 359.931 50.434C357.705 50.434 356.445 52.324 356.445 54.76V64H353.421V54.298C353.421 51.988 352.161 50.434 350.103 50.434C347.961 50.434 346.617 52.366 346.617 55.012V64H343.593V48.292H346.491V51.4H346.533C347.205 49.258 348.801 47.998 351.279 47.998C353.715 47.998 355.353 49.384 356.025 51.442H356.067C356.823 49.3 358.545 47.998 361.107 47.998ZM383.425 56.776H371.875C371.917 60.01 373.723 61.942 376.411 61.942C378.595 61.942 379.897 60.892 380.443 59.086H383.299C382.585 62.446 380.275 64.252 376.369 64.252C371.707 64.252 368.893 61.354 368.893 56.146C368.893 51.148 371.791 48.082 376.285 48.082C380.779 48.082 383.425 51.148 383.425 55.894V56.776ZM376.285 50.392C373.807 50.392 372.127 52.24 371.917 54.928H380.569C380.485 52.282 378.763 50.392 376.285 50.392ZM407.169 48.292L403.053 64H399.609L396.123 51.274H396.039L392.553 64H389.109L384.993 48.292H388.101L391.083 61.228C391.125 61.228 391.167 61.228 391.167 61.228L394.611 48.292H397.593L401.079 61.228C401.079 61.228 401.121 61.228 401.163 61.228L404.145 48.292H407.169ZM408.299 62.026C408.299 60.976 409.097 60.094 410.399 60.094C411.617 60.094 412.457 60.976 412.457 62.026C412.457 63.118 411.617 64 410.399 64C409.097 64 408.299 63.118 408.299 62.026ZM422.191 61.816C424.879 61.816 426.727 59.632 426.727 56.188C426.727 52.702 424.921 50.476 422.191 50.476C419.503 50.476 417.697 52.744 417.697 56.146C417.697 59.548 419.503 61.816 422.191 61.816ZM423.283 48.082C426.895 48.082 429.751 51.148 429.751 56.188C429.751 61.522 426.769 64.252 422.905 64.252C420.637 64.252 418.537 63.16 417.739 61.018H417.697V69.46H414.673V48.292H417.571V51.484H417.613C418.411 49.384 420.259 48.082 423.283 48.082ZM446.425 56.776H434.875C434.917 60.01 436.723 61.942 439.411 61.942C441.595 61.942 442.897 60.892 443.443 59.086H446.299C445.585 62.446 443.275 64.252 439.369 64.252C434.707 64.252 431.893 61.354 431.893 56.146C431.893 51.148 434.791 48.082 439.285 48.082C443.779 48.082 446.425 51.148 446.425 55.894V56.776ZM439.285 50.392C436.807 50.392 435.127 52.24 434.917 54.928H443.569C443.485 52.282 441.763 50.392 439.285 50.392ZM456.015 48.082C459.963 48.082 462.399 50.266 462.399 53.542V64H459.459V61.06H459.417C458.577 63.118 456.141 64.252 453.789 64.252C450.765 64.252 448.665 62.362 448.665 59.632C448.665 56.776 450.723 55.18 454.671 54.886L459.333 54.592V53.71C459.333 51.61 458.031 50.308 455.889 50.308C453.789 50.308 452.403 51.316 452.109 53.038H449.337C449.673 50.056 452.151 48.082 456.015 48.082ZM459.333 57.826V56.398L455.091 56.734C452.865 56.902 451.647 57.868 451.647 59.464C451.647 61.018 452.907 62.11 454.755 62.11C457.191 62.11 459.333 60.094 459.333 57.826ZM474.567 56.44L479.355 64H475.953C475.113 62.614 472.929 59.254 472.089 57.868C471.627 57.112 471.039 56.692 470.241 56.524L468.351 58.288V64H465.327V42.454H468.351V55.012L475.365 48.292H479.061L472.005 54.844C473.055 55.012 473.979 55.516 474.567 56.44ZM490.646 56.44L495.434 64H492.032C491.192 62.614 489.008 59.254 488.168 57.868C487.706 57.112 487.118 56.692 486.32 56.524L484.43 58.288V64H481.406V42.454H484.43V55.012L491.444 48.292H495.14L488.084 54.844C489.134 55.012 490.058 55.516 490.646 56.44ZM504.204 61.774C504.624 61.774 505.044 61.732 505.59 61.648V63.874C505.002 64 504.54 64.084 503.994 64.084C500.718 64.21 499.206 62.95 499.206 58.96V50.392H496.644V48.292H499.29V44.386H502.272V48.292H505.38V50.392H502.272V59.338C502.272 61.018 502.692 61.69 504.204 61.774ZM522.181 56.776H510.631C510.673 60.01 512.479 61.942 515.167 61.942C517.351 61.942 518.653 60.892 519.199 59.086H522.055C521.341 62.446 519.031 64.252 515.125 64.252C510.463 64.252 507.649 61.354 507.649 56.146C507.649 51.148 510.547 48.082 515.041 48.082C519.535 48.082 522.181 51.148 522.181 55.894V56.776ZM515.041 50.392C512.563 50.392 510.883 52.24 510.673 54.928H519.325C519.241 52.282 517.519 50.392 515.041 50.392ZM531.771 48.082C535.719 48.082 538.155 50.266 538.155 53.542V64H535.215V61.06H535.173C534.333 63.118 531.897 64.252 529.545 64.252C526.521 64.252 524.421 62.362 524.421 59.632C524.421 56.776 526.479 55.18 530.427 54.886L535.089 54.592V53.71C535.089 51.61 533.787 50.308 531.645 50.308C529.545 50.308 528.159 51.316 527.865 53.038H525.093C525.429 50.056 527.907 48.082 531.771 48.082ZM535.089 57.826V56.398L530.847 56.734C528.621 56.902 527.403 57.868 527.403 59.464C527.403 61.018 528.663 62.11 530.511 62.11C532.947 62.11 535.089 60.094 535.089 57.826ZM558.597 47.998C561.831 47.998 563.721 50.14 563.721 53.626V64H560.697V54.298C560.697 51.988 559.563 50.434 557.421 50.434C555.195 50.434 553.935 52.324 553.935 54.76V64H550.911V54.298C550.911 51.988 549.651 50.434 547.593 50.434C545.451 50.434 544.107 52.366 544.107 55.012V64H541.083V48.292H543.981V51.4H544.023C544.695 49.258 546.291 47.998 548.769 47.998C551.205 47.998 552.843 49.384 553.515 51.442H553.557C554.313 49.3 556.035 47.998 558.597 47.998ZM573.355 55.054C577.303 55.894 579.193 56.902 579.193 59.422C579.193 62.362 576.757 64.252 572.809 64.252C569.701 64.252 566.635 62.824 566.257 59.422H569.155C569.407 61.018 570.919 62.11 572.851 62.11C574.783 62.11 576.127 61.186 576.127 59.716C576.127 58.666 575.371 57.952 573.229 57.49L571.129 57.07C568.063 56.398 566.509 55.012 566.509 52.828C566.509 49.888 569.365 48.166 572.641 48.166C575.665 48.166 578.479 49.594 578.773 53.08H576.001C575.791 51.316 574.447 50.35 572.599 50.35C570.835 50.35 569.449 51.316 569.449 52.66C569.449 53.878 570.541 54.424 573.355 55.054ZM592.86 48.292H595.884V64H592.944V60.514H592.902C591.936 63.37 589.5 64.252 587.4 64.252C583.83 64.252 581.73 62.236 581.73 57.868V48.292H584.754V57.406C584.754 60.388 585.972 61.858 588.66 61.858C591.222 61.858 592.86 59.632 592.86 56.482V48.292ZM607.443 48.082C611.181 48.082 613.911 51.148 613.911 56.188C613.911 61.228 611.055 64.252 607.485 64.252C604.839 64.252 602.697 62.95 601.815 60.892H601.773V64H598.833V42.454H601.899V51.484H601.941C602.865 49.3 604.797 48.082 607.443 48.082ZM606.351 61.858C609.081 61.858 610.887 59.632 610.887 56.188C610.887 52.702 609.081 50.518 606.351 50.518C603.663 50.518 601.899 52.786 601.899 56.188C601.899 59.632 603.663 61.858 606.351 61.858Z" fill="white"/>
<path d="M81.7821 44.454C85.9821 44.454 88.5441 46.512 88.5441 50.502C88.5441 54.45 85.9821 56.592 81.7401 56.592H76.8681V66H73.7601V44.454H81.7821ZM81.1521 54.156C83.9661 54.156 85.6041 53.022 85.6041 50.502C85.6041 47.856 83.8821 46.932 80.8581 46.932H76.8681V54.156H81.1521ZM104.524 58.776H92.9744C93.0164 62.01 94.8224 63.942 97.5104 63.942C99.6944 63.942 100.996 62.892 101.542 61.086H104.398C103.684 64.446 101.374 66.252 97.4684 66.252C92.8064 66.252 89.9924 63.354 89.9924 58.146C89.9924 53.148 92.8904 50.082 97.3844 50.082C101.878 50.082 104.524 53.148 104.524 57.894V58.776ZM97.3844 52.392C94.9064 52.392 93.2264 54.24 93.0164 56.928H101.668C101.584 54.282 99.8624 52.392 97.3844 52.392ZM114.115 50.082C118.063 50.082 120.499 52.266 120.499 55.542V66H117.559V63.06H117.517C116.677 65.118 114.241 66.252 111.889 66.252C108.865 66.252 106.765 64.362 106.765 61.632C106.765 58.776 108.823 57.18 112.771 56.886L117.433 56.592V55.71C117.433 53.61 116.131 52.308 113.989 52.308C111.889 52.308 110.503 53.316 110.209 55.038H107.437C107.773 52.056 110.251 50.082 114.115 50.082ZM117.433 59.826V58.398L113.191 58.734C110.965 58.902 109.747 59.868 109.747 61.464C109.747 63.018 111.007 64.11 112.855 64.11C115.291 64.11 117.433 62.094 117.433 59.826ZM132.667 58.44L137.455 66H134.053C133.213 64.614 131.029 61.254 130.189 59.868C129.727 59.112 129.139 58.692 128.341 58.524L126.451 60.288V66H123.427V44.454H126.451V57.012L133.465 50.292H137.161L130.105 56.844C131.155 57.012 132.079 57.516 132.667 58.44ZM148.745 58.44L153.533 66H150.131C149.291 64.614 147.107 61.254 146.267 59.868C145.805 59.112 145.217 58.692 144.419 58.524L142.529 60.288V66H139.505V44.454H142.529V57.012L149.543 50.292H153.239L146.183 56.844C147.233 57.012 148.157 57.516 148.745 58.44ZM162.555 50.082C167.133 50.082 170.115 53.064 170.115 58.188C170.115 63.27 167.133 66.252 162.555 66.252C157.977 66.252 154.995 63.27 154.995 58.188C154.995 53.064 157.977 50.082 162.555 50.082ZM162.555 63.9C165.201 63.9 167.175 61.8 167.175 58.188C167.175 54.534 165.201 52.434 162.555 52.434C159.909 52.434 157.977 54.534 157.977 58.188C157.977 61.8 159.909 63.9 162.555 63.9ZM181.092 46.68C180.294 46.596 179.622 46.596 179.244 46.596C177.858 46.68 177.438 47.352 177.438 48.864V50.292H180.378V52.392H177.438V66H174.372V52.392H171.768V50.292H174.372V48.864C174.372 45.546 176.136 44.244 179.076 44.244C179.706 44.244 180.378 44.328 181.092 44.496V46.68ZM191.182 46.68C190.384 46.596 189.712 46.596 189.334 46.596C187.948 46.68 187.528 47.352 187.528 48.864V50.292H190.468V52.392H187.528V66H184.462V52.392H181.858V50.292H184.462V48.864C184.462 45.546 186.226 44.244 189.166 44.244C189.796 44.244 190.468 44.328 191.182 44.496V46.68ZM193.282 66V50.292H196.306V66H193.282ZM194.794 44.37C195.886 44.37 196.642 45.126 196.642 46.092C196.642 47.1 195.886 47.856 194.794 47.856C193.66 47.856 192.946 47.1 192.946 46.092C192.946 45.126 193.66 44.37 194.794 44.37ZM207.104 63.9C209.078 63.9 210.59 62.85 211.01 61.086H213.908C213.446 64.32 210.842 66.252 207.062 66.252C202.442 66.252 199.586 63.312 199.586 58.188C199.586 53.064 202.442 50.082 207.02 50.082C210.8 50.082 213.446 52.182 213.908 55.374H211.052C210.59 53.61 209.078 52.434 207.104 52.434C204.374 52.434 202.61 54.618 202.61 58.188C202.61 61.716 204.374 63.9 207.104 63.9ZM223.257 50.082C227.205 50.082 229.641 52.266 229.641 55.542V66H226.701V63.06H226.659C225.819 65.118 223.383 66.252 221.031 66.252C218.007 66.252 215.907 64.362 215.907 61.632C215.907 58.776 217.965 57.18 221.913 56.886L226.575 56.592V55.71C226.575 53.61 225.273 52.308 223.131 52.308C221.031 52.308 219.645 53.316 219.351 55.038H216.579C216.915 52.056 219.393 50.082 223.257 50.082ZM226.575 59.826V58.398L222.333 58.734C220.107 58.902 218.889 59.868 218.889 61.464C218.889 63.018 220.149 64.11 221.997 64.11C224.433 64.11 226.575 62.094 226.575 59.826ZM239.374 63.69V65.874C238.66 66.042 238.03 66.084 237.358 66.084C234.166 66.084 233.116 64.362 233.116 60.876V44.412H236.182V61.338C236.182 63.102 236.644 63.774 238.618 63.774C238.87 63.774 239.08 63.732 239.374 63.69Z" fill="white"/>
<path d="M726.782 44.454C730.982 44.454 733.544 46.512 733.544 50.502C733.544 54.45 730.982 56.592 726.74 56.592H721.868V66H718.76V44.454H726.782ZM726.152 54.156C728.966 54.156 730.604 53.022 730.604 50.502C730.604 47.856 728.882 46.932 725.858 46.932H721.868V54.156H726.152ZM749.524 58.776H737.974C738.016 62.01 739.822 63.942 742.51 63.942C744.694 63.942 745.996 62.892 746.542 61.086H749.398C748.684 64.446 746.374 66.252 742.468 66.252C737.806 66.252 734.992 63.354 734.992 58.146C734.992 53.148 737.89 50.082 742.384 50.082C746.878 50.082 749.524 53.148 749.524 57.894V58.776ZM742.384 52.392C739.906 52.392 738.226 54.24 738.016 56.928H746.668C746.584 54.282 744.862 52.392 742.384 52.392ZM759.115 50.082C763.063 50.082 765.499 52.266 765.499 55.542V66H762.559V63.06H762.517C761.677 65.118 759.241 66.252 756.889 66.252C753.865 66.252 751.765 64.362 751.765 61.632C751.765 58.776 753.823 57.18 757.771 56.886L762.433 56.592V55.71C762.433 53.61 761.131 52.308 758.989 52.308C756.889 52.308 755.503 53.316 755.209 55.038H752.437C752.773 52.056 755.251 50.082 759.115 50.082ZM762.433 59.826V58.398L758.191 58.734C755.965 58.902 754.747 59.868 754.747 61.464C754.747 63.018 756.007 64.11 757.855 64.11C760.291 64.11 762.433 62.094 762.433 59.826ZM777.667 58.44L782.455 66H779.053C778.213 64.614 776.029 61.254 775.189 59.868C774.727 59.112 774.139 58.692 773.341 58.524L771.451 60.288V66H768.427V44.454H771.451V57.012L778.465 50.292H782.161L775.105 56.844C776.155 57.012 777.079 57.516 777.667 58.44ZM793.745 58.44L798.533 66H795.131C794.291 64.614 792.107 61.254 791.267 59.868C790.805 59.112 790.217 58.692 789.419 58.524L787.529 60.288V66H784.505V44.454H787.529V57.012L794.543 50.292H798.239L791.183 56.844C792.233 57.012 793.157 57.516 793.745 58.44ZM807.555 50.082C812.133 50.082 815.115 53.064 815.115 58.188C815.115 63.27 812.133 66.252 807.555 66.252C802.977 66.252 799.995 63.27 799.995 58.188C799.995 53.064 802.977 50.082 807.555 50.082ZM807.555 63.9C810.201 63.9 812.175 61.8 812.175 58.188C812.175 54.534 810.201 52.434 807.555 52.434C804.909 52.434 802.977 54.534 802.977 58.188C802.977 61.8 804.909 63.9 807.555 63.9ZM826.092 46.68C825.294 46.596 824.622 46.596 824.244 46.596C822.858 46.68 822.438 47.352 822.438 48.864V50.292H825.378V52.392H822.438V66H819.372V52.392H816.768V50.292H819.372V48.864C819.372 45.546 821.136 44.244 824.076 44.244C824.706 44.244 825.378 44.328 826.092 44.496V46.68ZM836.182 46.68C835.384 46.596 834.712 46.596 834.334 46.596C832.948 46.68 832.528 47.352 832.528 48.864V50.292H835.468V52.392H832.528V66H829.462V52.392H826.858V50.292H829.462V48.864C829.462 45.546 831.226 44.244 834.166 44.244C834.796 44.244 835.468 44.328 836.182 44.496V46.68ZM838.282 66V50.292H841.306V66H838.282ZM839.794 44.37C840.886 44.37 841.642 45.126 841.642 46.092C841.642 47.1 840.886 47.856 839.794 47.856C838.66 47.856 837.946 47.1 837.946 46.092C837.946 45.126 838.66 44.37 839.794 44.37ZM852.104 63.9C854.078 63.9 855.59 62.85 856.01 61.086H858.908C858.446 64.32 855.842 66.252 852.062 66.252C847.442 66.252 844.586 63.312 844.586 58.188C844.586 53.064 847.442 50.082 852.02 50.082C855.8 50.082 858.446 52.182 858.908 55.374H856.052C855.59 53.61 854.078 52.434 852.104 52.434C849.374 52.434 847.61 54.618 847.61 58.188C847.61 61.716 849.374 63.9 852.104 63.9ZM868.257 50.082C872.205 50.082 874.641 52.266 874.641 55.542V66H871.701V63.06H871.659C870.819 65.118 868.383 66.252 866.031 66.252C863.007 66.252 860.907 64.362 860.907 61.632C860.907 58.776 862.965 57.18 866.913 56.886L871.575 56.592V55.71C871.575 53.61 870.273 52.308 868.131 52.308C866.031 52.308 864.645 53.316 864.351 55.038H861.579C861.915 52.056 864.393 50.082 868.257 50.082ZM871.575 59.826V58.398L867.333 58.734C865.107 58.902 863.889 59.868 863.889 61.464C863.889 63.018 865.149 64.11 866.997 64.11C869.433 64.11 871.575 62.094 871.575 59.826ZM884.374 63.69V65.874C883.66 66.042 883.03 66.084 882.358 66.084C879.166 66.084 878.116 64.362 878.116 60.876V44.412H881.182V61.338C881.182 63.102 881.644 63.774 883.618 63.774C883.87 63.774 884.08 63.732 884.374 63.69Z" fill="white"/>
<path fill-rule="evenodd" clip-rule="evenodd" d="M64.0625 53.5818C64.0625 46.0921 57.9896 40.0193 50.5 40.0193C43.0104 40.0193 36.9375 46.0921 36.9375 53.5818C36.9375 60.3509 41.8963 65.9618 48.3809 66.9802V57.5034H44.9363V53.5818H48.3809V50.5938C48.3809 47.1953 50.4062 45.3165 53.5037 45.3165C54.9877 45.3165 56.5402 45.5817 56.5402 45.5817V48.9197H54.8291C53.1453 48.9197 52.6185 49.9647 52.6185 51.0388V53.5818H56.3797L55.7791 57.5034H52.6191V66.9814C59.1037 65.9636 64.0625 60.3527 64.0625 53.5818Z" fill="white"/>
<path d="M704.956 45.1845C704.76 45.0831 704.569 44.972 704.384 44.8515C703.846 44.4957 703.353 44.0766 702.915 43.603C701.819 42.3491 701.41 41.077 701.259 40.1863H701.265C701.139 39.4471 701.191 38.9688 701.199 38.9688H696.207V58.2699C696.207 58.529 696.207 58.7851 696.196 59.0382C696.196 59.0697 696.193 59.0988 696.192 59.1327C696.192 59.1466 696.192 59.1611 696.189 59.1757V59.1866C696.136 59.8791 695.914 60.5481 695.542 61.1347C695.17 61.7212 694.66 62.2075 694.056 62.5505C693.427 62.9086 692.715 63.0964 691.991 63.0955C689.665 63.0955 687.78 61.1991 687.78 58.8572C687.78 56.5152 689.665 54.6189 691.991 54.6189C692.431 54.6185 692.869 54.6878 693.287 54.8242L693.293 49.7419C692.023 49.5777 690.732 49.6787 689.502 50.0384C688.272 50.3982 687.131 51.0088 686.149 51.8319C685.288 52.5794 684.565 53.4714 684.011 54.4675C683.801 54.8308 683.006 56.2906 682.909 58.6598C682.849 60.0046 683.253 61.3977 683.445 61.9735V61.9856C683.566 62.3247 684.036 63.4818 684.8 64.4572C685.417 65.2396 686.145 65.9269 686.962 66.497V66.4849L686.975 66.497C689.391 68.139 692.07 68.0312 692.07 68.0312C692.534 68.0125 694.088 68.0312 695.852 67.1951C697.809 66.2681 698.923 64.8871 698.923 64.8871C699.635 64.0618 700.201 63.1214 700.596 62.1061C701.048 60.9188 701.199 59.4947 701.199 58.9256V48.6859C701.259 48.7222 702.066 49.2557 702.066 49.2557C702.066 49.2557 703.228 50.0004 705.041 50.4854C706.341 50.8305 708.093 50.9031 708.093 50.9031V45.948C707.479 46.0146 706.233 45.8208 704.956 45.1845Z" fill="white"/>
</svg>
