<svg width="530" height="710" viewBox="0 0 530 710" fill="none" xmlns="http://www.w3.org/2000/svg">
<g clip-path="url(#clip0_1907_392)">
<mask id="path-1-inside-1_1907_392" fill="white">
<path d="M0 11C0 4.92488 4.92487 0 11 0H530V710H0V11Z"/>
</mask>
<path d="M0 11C0 4.92488 4.92487 0 11 0H530V710H0V11Z" fill="#1C1C1C"/>
<path fill-rule="evenodd" clip-rule="evenodd" d="M9.99999 0C4.47714 0 0 4.47715 0 10V52H800V10C800 4.47715 795.523 0 790 0H9.99999Z" fill="#151515"/>
<rect x="240" y="12" width="360" height="28" rx="5" fill="#242424"/>
<path d="M333.318 33.001H339.631C340.515 33.001 340.949 32.5674 340.949 31.6083V26.7543C340.949 25.9037 340.599 25.4616 339.898 25.3782V23.7269C339.898 21.1665 338.18 19.9989 336.479 19.9989C334.769 19.9989 333.059 21.1665 333.059 23.7269V25.4033C332.4 25.5284 332 25.962 332 26.7543V31.6083C332 32.5674 332.442 33.001 333.318 33.001ZM334.435 23.5768C334.435 22.0839 335.386 21.3166 336.479 21.3166C337.563 21.3166 338.522 22.0839 338.522 23.5768V25.3615L334.435 25.3699V23.5768Z" fill="#9E9E9E"/>
<path d="M356.439 23.8223L354.611 30.5H353.182L351.779 25.498H351.748L350.358 30.5H348.942L347.108 23.8223H348.479L349.697 29.0781H349.723L351.113 23.8223H352.433L353.83 29.0781H353.861L355.08 23.8223H356.439ZM360.031 24.8062C359.073 24.8062 358.4 25.5361 358.33 26.5454H361.669C361.637 25.5234 360.99 24.8062 360.031 24.8062ZM361.663 28.5386H362.964C362.774 29.7573 361.618 30.627 360.089 30.627C358.127 30.627 356.94 29.3003 356.94 27.1929C356.94 25.0981 358.146 23.7017 360.031 23.7017C361.885 23.7017 363.04 25.0093 363.04 27.0342V27.5039H358.324V27.5864C358.324 28.748 359.022 29.5161 360.12 29.5161C360.901 29.5161 361.479 29.1226 361.663 28.5386ZM367.661 30.6143C366.684 30.6143 365.928 30.1382 365.516 29.3638H365.49V30.5H364.157V21.3403H365.528V24.9585H365.56C365.96 24.1841 366.722 23.7144 367.668 23.7144C369.35 23.7144 370.448 25.0474 370.448 27.1611C370.448 29.2812 369.356 30.6143 367.661 30.6143ZM367.293 24.8696C366.252 24.8696 365.522 25.7837 365.522 27.1611C365.522 28.5513 366.252 29.4526 367.293 29.4526C368.372 29.4526 369.039 28.5767 369.039 27.1611C369.039 25.7583 368.372 24.8696 367.293 24.8696ZM374.999 23.7144C376.694 23.7144 377.811 25.0474 377.811 27.1611C377.811 29.2749 376.7 30.6143 375.025 30.6143C374.066 30.6143 373.304 30.1445 372.923 29.4019H372.892V32.709H371.521V23.8223H372.847V24.9712H372.873C373.266 24.2031 374.034 23.7144 374.999 23.7144ZM374.637 29.4526C375.723 29.4526 376.402 28.564 376.402 27.1611C376.402 25.7646 375.723 24.8696 374.637 24.8696C373.59 24.8696 372.885 25.7837 372.885 27.1611C372.885 28.5513 373.584 29.4526 374.637 29.4526ZM381.664 24.8062C380.706 24.8062 380.033 25.5361 379.963 26.5454H383.302C383.27 25.5234 382.623 24.8062 381.664 24.8062ZM383.296 28.5386H384.597C384.406 29.7573 383.251 30.627 381.721 30.627C379.76 30.627 378.573 29.3003 378.573 27.1929C378.573 25.0981 379.779 23.7017 381.664 23.7017C383.518 23.7017 384.673 25.0093 384.673 27.0342V27.5039H379.957V27.5864C379.957 28.748 380.655 29.5161 381.753 29.5161C382.534 29.5161 383.111 29.1226 383.296 28.5386ZM388.075 29.5288C389.034 29.5288 389.783 28.8687 389.783 27.999V27.4722L388.139 27.5737C387.32 27.6309 386.857 27.9927 386.857 28.564C386.857 29.1479 387.339 29.5288 388.075 29.5288ZM387.694 30.6143C386.387 30.6143 385.473 29.8018 385.473 28.6021C385.473 27.4341 386.368 26.7168 387.955 26.6279L389.783 26.52V26.0059C389.783 25.2632 389.281 24.8188 388.444 24.8188C387.65 24.8188 387.155 25.1997 387.034 25.7964H385.739C385.816 24.5903 386.844 23.7017 388.494 23.7017C390.113 23.7017 391.148 24.5586 391.148 25.8979V30.5H389.834V29.4019H389.802C389.415 30.1445 388.57 30.6143 387.694 30.6143ZM393.915 26.6851L396.613 23.8223H398.225L395.458 26.6978L398.333 30.5H396.74L394.474 27.5356L393.902 28.1006V30.5H392.531V21.3403H393.902V26.6851H393.915ZM400.479 26.6851L403.176 23.8223H404.789L402.021 26.6978L404.897 30.5H403.303L401.037 27.5356L400.466 28.1006V30.5H399.095V21.3403H400.466V26.6851H400.479ZM408.159 30.627C406.249 30.627 404.992 29.313 404.992 27.1611C404.992 25.0156 406.255 23.7017 408.159 23.7017C410.064 23.7017 411.327 25.0156 411.327 27.1611C411.327 29.313 410.07 30.627 408.159 30.627ZM408.159 29.4971C409.238 29.4971 409.93 28.6465 409.93 27.1611C409.93 25.6821 409.232 24.8315 408.159 24.8315C407.087 24.8315 406.388 25.6821 406.388 27.1611C406.388 28.6465 407.087 29.4971 408.159 29.4971ZM412.787 30.5V24.9077H411.866V23.835H412.787V23.1812C412.787 21.8862 413.396 21.2769 414.755 21.2769C415.034 21.2769 415.345 21.3086 415.523 21.3403V22.356C415.389 22.3306 415.205 22.3179 415.021 22.3179C414.424 22.3179 414.145 22.6162 414.145 23.2065V23.835H415.497V24.9077H414.164V30.5H412.787ZM416.976 30.5V24.9077H416.056V23.835H416.976V23.1812C416.976 21.8862 417.586 21.2769 418.944 21.2769C419.223 21.2769 419.534 21.3086 419.712 21.3403V22.356C419.579 22.3306 419.395 22.3179 419.211 22.3179C418.614 22.3179 418.335 22.6162 418.335 23.2065V23.835H419.687V24.9077H418.354V30.5H416.976ZM420.81 30.5V23.8223H422.181V30.5H420.81ZM421.496 22.8447C421.058 22.8447 420.702 22.4956 420.702 22.064C420.702 21.626 421.058 21.2769 421.496 21.2769C421.94 21.2769 422.296 21.626 422.296 22.064C422.296 22.4956 421.94 22.8447 421.496 22.8447ZM429.316 26.1201H428.008C427.869 25.4092 427.336 24.8442 426.441 24.8442C425.381 24.8442 424.682 25.7266 424.682 27.1611C424.682 28.6274 425.387 29.478 426.453 29.478C427.298 29.478 427.85 29.0146 428.008 28.2402H429.329C429.183 29.6621 428.047 30.627 426.441 30.627C424.53 30.627 423.286 29.3193 423.286 27.1611C423.286 25.041 424.53 23.7017 426.428 23.7017C428.148 23.7017 429.195 24.8062 429.316 26.1201ZM430.344 30.5V23.8223H431.715V30.5H430.344ZM431.03 22.8447C430.592 22.8447 430.236 22.4956 430.236 22.064C430.236 21.626 430.592 21.2769 431.03 21.2769C431.474 21.2769 431.83 21.626 431.83 22.064C431.83 22.4956 431.474 22.8447 431.03 22.8447ZM435.454 29.5288C436.413 29.5288 437.162 28.8687 437.162 27.999V27.4722L435.518 27.5737C434.699 27.6309 434.236 27.9927 434.236 28.564C434.236 29.1479 434.718 29.5288 435.454 29.5288ZM435.073 30.6143C433.766 30.6143 432.852 29.8018 432.852 28.6021C432.852 27.4341 433.747 26.7168 435.334 26.6279L437.162 26.52V26.0059C437.162 25.2632 436.66 24.8188 435.822 24.8188C435.029 24.8188 434.534 25.1997 434.413 25.7964H433.118C433.194 24.5903 434.223 23.7017 435.873 23.7017C437.492 23.7017 438.527 24.5586 438.527 25.8979V30.5H437.213V29.4019H437.181C436.794 30.1445 435.949 30.6143 435.073 30.6143ZM439.91 30.5V21.3403H441.281V30.5H439.91ZM443.719 30.5698C443.256 30.5698 442.887 30.2017 442.887 29.7383C442.887 29.2749 443.256 28.9067 443.719 28.9067C444.182 28.9067 444.55 29.2749 444.55 29.7383C444.55 30.2017 444.182 30.5698 443.719 30.5698ZM454.154 23.8223L452.326 30.5H450.898L449.495 25.498H449.464L448.073 30.5H446.658L444.823 23.8223H446.194L447.413 29.0781H447.439L448.829 23.8223H450.149L451.546 29.0781H451.577L452.796 23.8223H454.154ZM457.747 24.8062C456.789 24.8062 456.116 25.5361 456.046 26.5454H459.385C459.353 25.5234 458.706 24.8062 457.747 24.8062ZM459.379 28.5386H460.68C460.489 29.7573 459.334 30.627 457.804 30.627C455.843 30.627 454.656 29.3003 454.656 27.1929C454.656 25.0981 455.862 23.7017 457.747 23.7017C459.601 23.7017 460.756 25.0093 460.756 27.0342V27.5039H456.04V27.5864C456.04 28.748 456.738 29.5161 457.836 29.5161C458.617 29.5161 459.194 29.1226 459.379 28.5386ZM465.377 30.6143C464.4 30.6143 463.644 30.1382 463.232 29.3638H463.206V30.5H461.873V21.3403H463.244V24.9585H463.276C463.676 24.1841 464.438 23.7144 465.383 23.7144C467.066 23.7144 468.164 25.0474 468.164 27.1611C468.164 29.2812 467.072 30.6143 465.377 30.6143ZM465.009 24.8696C463.968 24.8696 463.238 25.7837 463.238 27.1611C463.238 28.5513 463.968 29.4526 465.009 29.4526C466.088 29.4526 466.755 28.5767 466.755 27.1611C466.755 25.7583 466.088 24.8696 465.009 24.8696ZM469.947 30.5698C469.484 30.5698 469.116 30.2017 469.116 29.7383C469.116 29.2749 469.484 28.9067 469.947 28.9067C470.411 28.9067 470.779 29.2749 470.779 29.7383C470.779 30.2017 470.411 30.5698 469.947 30.5698ZM474.67 29.5288C475.629 29.5288 476.378 28.8687 476.378 27.999V27.4722L474.734 27.5737C473.915 27.6309 473.451 27.9927 473.451 28.564C473.451 29.1479 473.934 29.5288 474.67 29.5288ZM474.289 30.6143C472.982 30.6143 472.068 29.8018 472.068 28.6021C472.068 27.4341 472.963 26.7168 474.549 26.6279L476.378 26.52V26.0059C476.378 25.2632 475.876 24.8188 475.038 24.8188C474.245 24.8188 473.75 25.1997 473.629 25.7964H472.334C472.41 24.5903 473.439 23.7017 475.089 23.7017C476.708 23.7017 477.742 24.5586 477.742 25.8979V30.5H476.428V29.4019H476.397C476.009 30.1445 475.165 30.6143 474.289 30.6143ZM482.554 23.7144C484.249 23.7144 485.366 25.0474 485.366 27.1611C485.366 29.2749 484.255 30.6143 482.579 30.6143C481.621 30.6143 480.859 30.1445 480.478 29.4019H480.446V32.709H479.075V23.8223H480.402V24.9712H480.427C480.821 24.2031 481.589 23.7144 482.554 23.7144ZM482.192 29.4526C483.277 29.4526 483.957 28.564 483.957 27.1611C483.957 25.7646 483.277 24.8696 482.192 24.8696C481.145 24.8696 480.44 25.7837 480.44 27.1611C480.44 28.5513 481.138 29.4526 482.192 29.4526ZM489.904 23.7144C491.599 23.7144 492.716 25.0474 492.716 27.1611C492.716 29.2749 491.606 30.6143 489.93 30.6143C488.971 30.6143 488.21 30.1445 487.829 29.4019H487.797V32.709H486.426V23.8223H487.753V24.9712H487.778C488.172 24.2031 488.94 23.7144 489.904 23.7144ZM489.543 29.4526C490.628 29.4526 491.307 28.564 491.307 27.1611C491.307 25.7646 490.628 24.8696 489.543 24.8696C488.495 24.8696 487.791 25.7837 487.791 27.1611C487.791 28.5513 488.489 29.4526 489.543 29.4526Z" fill="white"/>
<path d="M101.623 33H115.461C117.22 33 118.084 32.1358 118.084 30.4074V20.5926C118.084 18.8642 117.22 18 115.461 18H101.623C99.8745 18 99 18.8642 99 20.5926V30.4074C99 32.1358 99.8745 33 101.623 33ZM101.644 31.5082C100.903 31.5082 100.481 31.1173 100.481 30.3354V20.6646C100.481 19.893 100.903 19.4918 101.644 19.4918H105.224V31.5082H101.644ZM115.44 19.4918C116.181 19.4918 116.603 19.893 116.603 20.6646V30.3354C116.603 31.1173 116.181 31.5082 115.44 31.5082H106.675V19.4918H115.44ZM103.671 22.4753C103.949 22.4753 104.185 22.2284 104.185 21.9609C104.185 21.6934 103.949 21.4671 103.671 21.4671H102.056C101.788 21.4671 101.551 21.6934 101.551 21.9609C101.551 22.2284 101.788 22.4753 102.056 22.4753H103.671ZM103.671 24.5329C103.949 24.5329 104.185 24.2963 104.185 24.0185C104.185 23.751 103.949 23.5247 103.671 23.5247H102.056C101.788 23.5247 101.551 23.751 101.551 24.0185C101.551 24.2963 101.788 24.5329 102.056 24.5329H103.671ZM103.671 26.5905C103.949 26.5905 104.185 26.3539 104.185 26.0864C104.185 25.8189 103.949 25.5926 103.671 25.5926H102.056C101.788 25.5926 101.551 25.8189 101.551 26.0864C101.551 26.3539 101.788 26.5905 102.056 26.5905H103.671Z" fill="#737373"/>
<path d="M153.5 19.5L147 26L153.5 32.5" stroke="#737373" stroke-width="1.5" stroke-linecap="round" stroke-linejoin="round"/>
<path opacity="0.3" d="M181 32.5L187.5 26L181 19.5" stroke="#BFBFBF" stroke-width="1.5" stroke-linecap="round" stroke-linejoin="round"/>
<path d="M31.5 26C31.5 29.0376 29.0376 31.5 26 31.5C22.9624 31.5 20.5 29.0376 20.5 26C20.5 22.9624 22.9624 20.5 26 20.5C29.0376 20.5 31.5 22.9624 31.5 26Z" fill="#FF5F57" stroke="#E14640"/>
<path d="M51.5 26C51.5 29.0376 49.0376 31.5 46 31.5C42.9624 31.5 40.5 29.0376 40.5 26C40.5 22.9624 42.9624 20.5 46 20.5C49.0376 20.5 51.5 22.9624 51.5 26Z" fill="#FFBD2E" stroke="#DFA123"/>
<path d="M71.5 26C71.5 29.0376 69.0376 31.5 66 31.5C62.9624 31.5 60.5 29.0376 60.5 26C60.5 22.9624 62.9624 20.5 66 20.5C69.0376 20.5 71.5 22.9624 71.5 26Z" fill="#28CA42" stroke="#1DAD2C"/>
<rect width="529" height="658" transform="translate(1 52)" fill="#1F1F1F"/>
</g>
<path d="M-2 11C-2 3.8203 3.8203 -2 11 -2H530V2H11C6.02944 2 2 6.02944 2 11H-2ZM530 710H0H530ZM-2 710V11C-2 3.8203 3.8203 -2 11 -2V2C6.02944 2 2 6.02944 2 11V710H-2ZM530 0V710V0Z" fill="#313131" mask="url(#path-1-inside-1_1907_392)"/>
<defs>
<clipPath id="clip0_1907_392">
<path d="M0 11C0 4.92488 4.92487 0 11 0H530V710H0V11Z" fill="white"/>
</clipPath>
</defs>
</svg>
