<?xml version="1.0" encoding="UTF-8"?>
<svg id="Layer_1" data-name="Layer 1" xmlns="http://www.w3.org/2000/svg" viewBox="0 0 562 788">
  <defs>
    <style>
      .cls-1 {
        fill: #f2f2f2;
      }

      .cls-1, .cls-2, .cls-3, .cls-4, .cls-5, .cls-6, .cls-7, .cls-8, .cls-9, .cls-10, .cls-11, .cls-12, .cls-13, .cls-14, .cls-15, .cls-16, .cls-17, .cls-18, .cls-19, .cls-20 {
        stroke-width: 0px;
      }

      .cls-2 {
        fill: #e2e2e2;
      }

      .cls-3 {
        fill: #eaeaea;
      }

      .cls-4 {
        fill: #e8e8e8;
      }

      .cls-5 {
        fill: #e5e5e5;
      }

      .cls-6 {
        fill: #e4e4e4;
      }

      .cls-7 {
        fill: #e9e9e9;
      }

      .cls-8 {
        fill: #e7e7e7;
      }

      .cls-9 {
        fill: #fcfcfc;
      }

      .cls-9, .cls-16 {
        opacity: 0;
      }

      .cls-10 {
        fill: #eee;
      }

      .cls-11 {
        fill: #e3e3e3;
      }

      .cls-12 {
        fill: #f3f3f3;
      }

      .cls-13 {
        fill: #e6e6e6;
      }

      .cls-14 {
        fill: #ececec;
      }

      .cls-15 {
        fill: #ebebeb;
      }

      .cls-16 {
        fill: #fefefe;
      }

      .cls-17 {
        fill: #fdfdfd;
      }

      .cls-18 {
        fill: #d5d5d5;
      }

      .cls-19 {
        fill: #dcdcdc;
      }

      .cls-20 {
        fill: #efefef;
      }
    </style>
  </defs>
  <path class="cls-14" d="M249.57,126.85c-.33,0-.66,0-1,0q-8.97.02-8.99,8.98c-1.55.21-2.46-1.09-2.3-2.02.8-4.62-1.49-8.95-.56-13.77,1.03-5.33-.25-11.02-.26-16.55,0-7.15.91-14.24.8-21.39-.41-25.61-.1-51.23-.17-76.85,0-1.8-.19-3.79,1.5-5.15h1c0,29.1,0,58.2.01,87.3,0,2.15-.22,4.35.65,6.41.95,2.26,2.69,3.9,5.04,2.49,3.65-2.2,7.48-1.59,11.16-1.15,23.27,2.79,45.49,9.01,66.47,19.78,18.81,9.65,35.99,21.51,50.57,36.72,30.13,31.44,48.42,68.74,53.55,112.2.62,5.27.85,10.59,1.15,15.89.13,2.27.32,5.07,2.92,5.02,5.31-.1,9.96,2.75,15.5,2.24,4.95-.45,10.18,1.19,15.18,2.35,19.56,4.54,38.11,11.74,55.28,22.23,10.35,6.33,20.33,13.21,29.16,21.63,3.36,3.2,7.01,6.13,10.23,9.46,2.12,2.2,4.15,4.76,2.93,8.73-3.16-1.23-4.05-4.22-6.03-6.07-10.92-10.24-22.41-19.64-35-27.87-21.57-14.12-45.28-22.08-70.41-26.4-4.73-.81-9.56-1.09-14.35-1.47-2.9-.23-5.3.3-5.39,4.11-.09,3.68,1.35,5.65,5.14,5.79,14.23.52,28.01,3.63,41.46,8.03,22.21,7.27,41.93,18.98,59.84,33.98,8.48,7.1,15.58,15.37,22.68,23.72,1.98,2.33,3.12,4.59,1.93,8.61-3.92-4.53-7.49-8.48-10.88-12.59-13.1-15.89-29.38-27.82-47.26-37.66-19.89-10.95-41.22-17.42-63.79-19.88-7.3-.8-9.1.1-9.11,4.73-.01,3.22,1.27,4.83,4.66,5.09,41.44,3.23,76.21,20.57,104.88,50.32,7.48,7.76,14.12,16.33,19.99,25.42,1.85,2.87,2.81,5.99,1.72,9.54-2.19-.09-2.58-2-3.33-3.27-12.39-20.92-28.48-38.41-48.68-51.94-21.93-14.7-46.17-23.27-72.44-25.96-2.18-.22-5.01-.97-6.25,1.7-1.13,2.45-.76,5.22,0,7.82.23.8.7,1.38,1.8,1.27,14.98-1.48,28.85,3.16,42.47,8.32,19.68,7.45,37,18.74,51.69,33.91,1.15,1.19,2.19,2.49,3.28,3.74.1,1.53-.15,2.83-2.03,3.03-9.35-8.99-18.99-17.62-30.03-24.55-19.03-11.95-39.78-18.92-62.09-21.31-2.77-.3-5.44-.13-5.63,3.79-.18,3.72.84,5.72,5.11,6.2,38.84,4.37,70.14,22.28,93.92,53.23,15.92,20.72,24.17,44.37,26.81,70.27,2.53,24.78-2.42,48.32-13.61,69.97-22.46,43.42-58.31,68.86-107.24,74.84-4.35.53-5.2,2.68-4.97,6.31.25,3.96,2.9,3.79,5.73,3.48,27.96-3.08,53.19-12.98,75.06-30.76,18.85-15.32,33.53-33.93,43.08-56.48,2.59-6.11,4.66-12.35,6.81-18.7,1.31,5,1.48,9.92-.3,14.78-5.58,15.3-13.98,29.02-24.26,41.53-24.84,30.24-57.08,47.49-95.49,53.61-1.63.26-3.32.33-4.97.26-3.96-.17-5.78,1.48-5.71,5.59.08,4.52,2.98,4.67,6.14,4.3,16.25-1.92,32.06-5.6,47.16-12.07,18.56-7.96,34.93-19.31,49.25-33.34,10.07-9.87,18.9-20.98,25.77-33.46.67-1.21.82-2.94,2.89-3.4,1.07,3.41.49,6.4-1.36,9.39-11.86,19.19-26.8,35.49-45.43,48.28-24.02,16.48-50.27,26.92-79.59,28.7-3.32.2-4.86,1.68-4.79,4.96.04,1.66,0,3.33,0,4.99,1.56,3.52-2.65,5.84-1.94,9.26.13.6-.79,1.89-.44,2.28,4.26,4.69.12,9.45.2,14.14.36,21.72.12,43.44.15,65.15,0,7,.87,14.08-1.78,20.9.51-1.25-.15-2.66.75-3.7.68-.42,1.15-.16,1.38.24,1.24,2.16.45,4.54.65,6.82.59,6.54-1.21,13.21,1,19.67-.25,1.39-.65,2.72-2.43,2.54-1.59-.16-2.21-1.4-2.36-2.8-.16-1.48-.18-2.99-.18-4.48,0-39.73-.17-79.47.08-119.2.09-14.02-.13-28.06.14-42.06.25-12.86-1.05-25.77.76-38.6.85-1.83,2.23-2.79,4.3-2.57,7.69-1.08,15.43-1.91,22.67-5,1.3-.56,2.58-.43,3.79.35,2.07,1.58,1.04,3.9,1.42,5.89-.65,2.45-2.66,3.21-4.8,3.74-4.5,1.12-9.01,2.18-13.57,3.01-1.14.21-2.3.33-3.38.77-1.24.51-2.69,1.13-2.42,2.73.35,1.99,2.12,1.88,3.59,1.63,6.2-1.06,12.43-2.04,18.39-4.14,12.57-4.43,24.42-10.18,34.77-18.8,2.12-1.77,4.28-4.55,7.85-2.85,1.72.73,1.98,2.41,2.51,3.9.54,2.39-1.03,3.61-2.62,4.91-16.53,13.62-35.31,22.29-56.46,25.79-1.81.3-3.61.57-5.37,1.1-1.29.39-2.78.87-2.56,2.54.23,1.74,1.82,1.72,3.15,1.63,3.99-.26,7.93-.96,11.8-1.88,21.62-5.08,40.67-14.94,57.24-29.88,19.87-17.92,33.36-39.57,39.22-65.66,7.61-33.87,3.29-66.18-15.05-95.94-17.43-28.28-42.14-47.46-74.19-56.9-8.17-2.41-16.52-3.75-24.93-4.81-.48-.02-.96-.04-1.44-.05-1.42.05-2.89.29-3.93-1.07,0-17.75.05-35.51-.02-53.26-.11-29.54-4.56-58.27-17.14-85.26-7.96-17.08-18.34-32.6-30.8-46.88-15.19-17.42-33.28-30.85-53.52-41.59-20.33-10.78-41.98-17.33-64.91-19.62-4.3-.43-8.56-.99-12.9-.95-3.33.03-5.38.85-5.36,4.74.02,3.89,1.82,5.36,5.52,5.27,11.04-.28,21.88,1.3,32.51,4.1,6.07,1.6,12.45,2.37,17.91,5.88-.87,2.68-3.27,1.53-5.02,2.01-1.9-.08-3.6-.66-5-1.98-2.6-2.38-5.6-3.04-8.97-2.02-10.02-1.66-19.94-4.07-30.19-3.99-3.37.03-6.81-.45-6.77,4.77.03,4.78,2.82,5.4,6.54,5.22.83-.04,1.66,0,2.49,0,1.14,1.12,2,2.32.99,3.98Z"/>
  <path class="cls-4" d="M238.59.1c0,28.9.37,57.82-.25,86.71-.17,7.73-.82,15.83-.57,23.31.28,8.41-1.49,17.39,1.8,25.71,4.93,1.89,10.2,1.2,15.28,1.72,28.18,2.88,52.87,14.09,74.87,31.32,29.22,22.87,46.77,53.1,53.87,89.37,1.68,8.61,2.67,17.4,2.67,26.24,0,164.31,0,328.62,0,492.93,0,1.83-.04,3.66-.19,5.48-.09,1.02-.55,2-1.79,2-1.23,0-1.72-.97-1.8-1.99-.15-1.99-.2-3.98-.2-5.98,0-162.15.06-324.29-.06-486.44-.03-33.8-8.69-65.06-29.54-92.29-19.74-25.77-45.25-43.36-76.35-52.4-10.14-2.95-20.66-5-31.41-5.01-3.79,0-5.42,1.35-5.37,5.26.05,3.82,1.95,4.63,5.32,4.81,33.05,1.78,61.29,14.51,85.4,37.12,20.06,18.81,32.54,41.77,39.03,68.23.67,2.72.71,5.59,1.04,8.38-2.32,1.35-2.64-1.38-4.02-1.96-2.54-8.92-4.17-18.1-8.01-26.63-18.53-41.24-49.11-68.11-93.55-78.4-5.16-1.19-10.41-2.31-15.67-2.68-9.46-.66-9.48-.41-9.49,8.87,2.32,2.5-.77,4.56-.55,6.96.75,8.18-.92,16.46,1.05,24.6.11.46-.22.95-.49,1.37h0c-.64,3.95-1.27,7.91.53,11.76.39.83.08,1.57-.54,2.19-1.43,3.33-1.44,6.66,0,9.99,1.02,1.33,1.02,2.66,0,3.99h0c-1.77,4.66.66,9.31,0,13.97h0c-1.5,4.66.3,9.32.01,13.98h0c-1.03,2.73-.32,5.58-.5,8.37-.11,1.72-.73,3.03-2.57,3.01-1.61-.02-2.12-1.4-2.3-2.8-.19-1.49-.13-2.99-.13-4.49,0-83.17,0-166.34.02-249.51,0-2.44-.56-5.06,1.47-7.1h2.99Z"/>
  <path class="cls-20" d="M234.59,380.37c5.08.66,10.16,1.38,15.25,1.94,3.42.37,5.75-.51,5.76-4.74.01-3.91-1.62-5.35-5.38-5.22-4.32.15-8.58-.4-12.65-1.96-.35-2.36,1.8-2.2,3.01-3,3.46.32,6.91.69,10.37.95,3.49.27,4.63-1.62,4.62-4.87,0-3.16-.94-4.87-4.48-5.09-21.14-1.29-39.28-9.49-54.9-23.73-3.82-3.48-7.4-7.06-10.48-11.18.9-1.4,1.15-3.33,3.13-3.86,2.65-.36,3.77,1.82,5.15,3.33,10.61,11.59,23.19,20.12,38.19,24.99,5.38,1.75,10.83,3.03,16.51,3.1,1.32.02,2.93.09,3.04-1.72.11-1.7-1.42-1.99-2.72-2.33-3-.8-6.93.09-7.98-4.32,1.34-2.11,3.84-2.94,5.34-4.88.96-.4,1.95-.48,2.96-.23,1.44.62,2.88,2.09,4.43.42.88-.94,1.54-2.12.93-3.59-.73-1.76-1.96-2.43-3.84-2.39-7.27.16-13.69-3.11-20.35-5.32-2.04-.68-4.07-1.11-6.15-1.51-.89-.46-1.72-1.01-2.57-1.54-5.51-5.14-10.85-10.47-15.88-16.08-1.41-1.58-3.15-3.57-1.9-6.21,1.99-1.67,4.28-1.29,6.57-1,4.25,2.67,6.73,7.16,10.72,10.24,7.76,6,16.09,10.44,25.77,12.25,1.75.33,3.85,1.36,5.01-.6,1.32-2.23-.94-3.11-2.33-4.19-.53-.42-.92-.94-1.25-1.53-.41-1.85-1.49-3.67-.39-5.63q4.33-3.17,1.42-9.11c-.24-2.36,2.09-3.61,2.43-5.72.19-3.24-1.52-5.22-4.14-6.83-10.4-6.39-15.8-15.3-15.78-27.96.17-83.63.07-167.26.14-250.88,0-3.54-.87-7.44,2.42-10.26h1c0,85.22-.01,170.44.07,255.66,0,2.2-1.38,6.09,1.51,6.24,2.25.12.97-3.92,1.47-6.07.26-1.12.63-2.21.95-3.32-.99,6.15.8,9.95,7.31,12.37,9.84,3.66,13.63,12.03,13.63,22.23,0,74.3,0,148.6,0,222.89-1.06,3.51-.19,7.11-.51,10.65-.12,1.33.75,3.22-1.36,3.66-1.86.39-2.87-.87-3.81-2.4-1.11-1.81-1.49-4-3.01-5.56-1.84-1.8-4.18-1.88-6.53-1.88-37.89-.02-75.77-.03-113.66,0-2.84,0-5.6.84-8.42.81-2.4-.03-5.13.55-6.57-2.33-1.22,1.79-2.54,3.22-5.02,3.4-8.33.59-16.37,2.65-24.37,4.92-25.68,7.29-48.41,19.92-68.33,37.65-4.84,4.31-9.85,8.42-14.06,13.39-1.38,1.62-3,1.99-4.79.57v-5.99c4.47-10.09,13.29-16.23,21.45-22.73,18.66-14.89,39.74-25.41,62.59-32.15,10.35-3.05,21.08-4.69,31.88-5.41,5.63-.37,11.21-1.58,16.89-.96,2.05.23,4.53-.22,5.19,2.72-.55,1.51-1.87,1.03-2.06,1.05,5.35-1.56,11.73-.87,18.06-.88,29.76-.06,59.52,0,89.28-.04,2.8,0,5.61.17,8.16-1.6,1.56-1.08,3.51-2.38,3.62-3.9.33-4.58,2.78-9.11,2.38-13.24-.8-8.29.15-16.52-.64-24.74.79,8.25-.81,16.57.84,24.84.26,1.31.17,3.66-2.19,4.19,0-10.79-.11-21.58.05-32.37.06-4.05-1.46-5.55-5.55-5.59-37.2-.42-70.5-13.06-100.92-33.59-12.04-8.13-23.42-17.41-32.31-29.23-.1-1.53.15-2.82,2.02-3.02,10.01,9.17,19.26,19.17,30.42,27.09,26.06,18.49,54.82,29.98,86.58,33.91,3.96.49,7.88.95,11.88.91,8.15-.09,9.39-1.84,6.83-10-.84-1.82-4.61-.7-3.99-3.98,3.62.29,5.24-1.38,5-5-.11-1.66-.02-3.32-.02-4.99,2.96.46.7,2.85,1.47,3.79.74-3.63-.81-5.57-4.91-5.4-1.52.06-3-.19-2.54-2.38,2.02-.21,4.76.66,5.5-1.98.77-2.72,1.54-5.84-1.51-8.01-1.14-1.12-2-2.32-1-3.98,5.36-2.02,2.04-6.63,2.98-9.97-.46-3.55,1.92-6.81,1.04-10.43-.3-1.2.38-2.67-1.04-3.55-.66,0-1.32-.01-1.98-.02-2.66-1.49-5.32-1.51-7.98,0-4.75-.55-9.48-1.25-13.98-2.97.12-1.88,2.23-1.77,3-3Z"/>
  <path class="cls-14" d="M250.57,438.26c1.54,1.11,3.6,1.71,3.99,3.98-38.69.05-72.86-12.88-103.52-35.98-22.3-16.8-39.73-37.69-51.91-62.75-9.21-18.95-15.04-38.99-17.33-60.05-1.03-9.48-.84-18.92-.85-28.38-.05-84.99-.03-169.98-.03-254.97h3.99c2.26,91.26.24,182.53,1.07,273.79.21,23.43,6.61,45.54,16.6,66.68,8.4,17.78,19.81,33.56,33.62,47.26,20.3,20.15,43.95,35.29,71.78,43.3,13.94,4.01,27.94,7.42,42.58,7.12Z"/>
  <path class="cls-15" d="M249.57,424.28q8.44,2.75,7.44,11.63c-.82-2.47.1-5.34-1.47-7.64-40.3-.18-75.09-14.37-105.32-40.81-14.85-12.99-26.78-28.13-36.01-45.4-10.21-19.1-16.42-39.46-18.42-61.13-.7-7.64-.9-15.25-.9-22.89,0-85.98,0-171.96,0-257.95h3.99c1.06,3.39,1,6.88,1,10.38,0,86.44-.03,172.87,0,259.31.01,26.56,7.39,51.19,20.38,74.13,17.6,31.07,42.96,53.8,75.74,67.95,17.04,7.36,34.9,11.79,53.56,12.41Z"/>
  <path class="cls-3" d="M255.54,386.36c1.27-1.41,1.73-.21,1.78.74.27,4.52.97,9.12-1.78,13.24-41.01-.7-74.44-17.35-100.81-48.4-21.64-25.48-31.83-55.27-31.86-88.54-.08-87.77-.03-175.53-.04-263.3h4.99c0,90.81-.05,181.63.04,272.44.02,15.86,4.39,30.82,10.59,45.33,9.46,22.13,24.24,40.05,43.55,54.05,19.48,14.13,41.31,22.64,65.5,24.34,7.96.56,8.11.21,8.03-9.9Z"/>
  <path class="cls-3" d="M234.59,380.37c-.37,1.64-1.38,2.62-3,3-17.28-2.95-32.54-10.61-46.23-21.14-14.06-10.82-25.66-24-34.04-39.86-9.26-17.52-14.41-36.13-14.45-55.9-.15-88.79-.07-177.57-.07-266.36h4.99c0,90.09-.07,180.18.05,270.27.03,21.72,7.08,41.53,19.02,59.42,17.75,26.6,42.51,43.41,73.73,50.57Z"/>
  <path class="cls-15" d="M240.59,367.38c-1.09.91-1.43,2.58-3.01,3-28.06-4.86-49.45-20.24-66.2-42.56-14.48-19.3-20.62-41.38-20.61-65.35.03-87.46,0-174.92,0-262.37h3.99c1.71,12.41.95,24.89.96,37.35.07,76.83-.08,153.65.09,230.48.06,26.48,10.22,48.98,28.12,68.35,14.99,16.22,33.63,25.62,54.67,30.94.64.16,1.32.12,1.98.17Z"/>
  <path class="cls-15" d="M118.85,390.33c-.67,1.01-1.35,2.02-2.02,3.02-9.47-9.03-16.68-19.82-23.33-30.93-10.13-16.95-17.11-35.22-21.69-54.43-3.02-12.66-4.72-25.55-4.75-38.49-.2-89.8-.11-179.6-.11-269.4h3.99c2.22,92.41.27,184.84,1.11,277.26.15,16.18,3.87,31.9,9.02,47.3,6.22,18.62,15.16,35.75,26.73,51.54,3.53,4.82,7.36,9.42,11.06,14.12Z"/>
  <path class="cls-3" d="M249.55,315.5c-20.83-2.22-40.53-23.55-42.03-44.3-1.44-19.77-.71-39.52-.78-59.27-.19-53.01-.15-106.03-.02-159.04.04-17.59-.92-35.22.94-52.78h3.99c0,88.48-.02,176.96,0,265.44,0,22.22,16.01,42.06,36.92,45.96.65,1.25,2.85,2.13.98,4Z"/>
  <path class="cls-8" d="M168.74.1c1.29,2.84.98,5.86.98,8.84.01,85.73.02,171.46,0,257.2,0,20.34,6.09,38.52,18.96,54.36-.36,1.62-1.35,2.61-2.97,2.97-13.16-16.92-20.2-35.71-20.12-57.55.33-88.6.14-177.21.15-265.82h2.99Z"/>
  <path class="cls-4" d="M225.62.1c0,87.04,0,174.08,0,261.13,0,20.37,7.52,30.78,26.96,37.29-.51,1.11-.42,2.62-2.01,3.01-16.41-1.75-29.14-21.17-29.09-34.54.3-88.96.16-177.92.16-266.88h3.99Z"/>
  <path class="cls-15" d="M252.56,410.31c.33,1.33.66,2.65,1,3.98-25.26.17-48.43-7.25-70.03-19.81-24.69-14.35-43.94-34.21-57.2-59.5-9.88-18.85-16.49-38.76-16.47-60.4.16-6.93.46-13.85.47-20.79.14-82.92-.03-165.84.05-248.76,0-1.65-.31-3.35.49-4.93h2c.97,1.89.47,3.92.47,5.88.03,86.9.02,173.8.05,260.7,0,1.96-.48,3.99.47,5.88,1.15,27.21,9.68,51.9,24.87,74.46,11.49,17.06,25.89,31.17,43.3,41.85,21.54,13.22,44.95,21.13,70.54,21.44Z"/>
  <path class="cls-11" d="M196.68.1c2.23,88.74.44,177.49.89,266.23.07,13.57,4.34,25.36,12.08,36.18-1.9.86-3.29-.85-4.99-.99-4.73-2.6-5.35-7.59-6.97-11.99h0c-5.02-9.85-5.55-20.61-5.53-31.25.18-82.2-.17-164.41.09-246.61.01-3.95.44-7.78,1.44-11.57h2.99Z"/>
  <path class="cls-5" d="M182.71.1c2.21,91.81.38,183.63,1.01,275.45.77,1.51.97,3.04-1.02,3.54-2.03.51-2.56-.91-2.49-2.66.03-.67,0-1.32-.49-1.85,0-91.49,0-182.98,0-274.47h2.99Z"/>
  <path class="cls-15" d="M.09,655.82c3.47-8.25,5.32-17.04,8.96-25.29,8.35-18.94,20.82-34.7,36.23-48.13,18.3-15.95,39.82-25.53,63.61-30.07.97-.19,1.98-.2,2.97-.29,1.01,1.15,3.67,1.47,1.99,3.97-23.51,3.52-44.5,12.64-63.08,27.61-23.24,18.73-37.86,42.85-45.63,71.34-2.19,8.02-2.98,16.34-3,24.66-.09,33.07-.02,66.14-.07,99.21,0,2.37.8,5.12-1.97,6.74v-1c.8-1.21.48-2.58.49-3.88.02-32.35.02-64.69,0-97.04,0-1.3.32-2.67-.49-3.88v-23.95Z"/>
  <path class="cls-20" d="M110.86.1c1.08,2.35,1,4.85,1,7.34,0,86.21-.02,172.42.08,258.64,0,3.14-1.07,5.75-2.08,8.5-1.47-2.63-.96-5.52-.97-8.31-.02-88.72-.02-177.45-.02-266.17h2Z"/>
  <path class="cls-10" d="M125.84,498.14c-1.27.32-2.69.38-3.79,1.01-3.82,2.17-7.22-3.94-11.84.17-2.73,2.43-8.23,1.7-12.44,2.56-4.38.9-8.75,1.89-13.06,3.07-17.49,4.81-33.97,11.78-49.58,21.19-12.75,7.69-23.48,17.78-35.04,26.88v-5.99c9.26-6.97,17.75-14.89,27.53-21.26,22.3-14.53,46.31-24.29,72.6-28.68,28.05-4.69,56.3-2.33,84.47-2.94-.41,3.9-3.66,2.43-5.49,2.44-15.52.07-31.05.02-46.57.11-2.31.01-4.96-1.03-6.8,1.44Z"/>
  <path class="cls-15" d="M.09,615.9c8.49-14.12,18.08-27.34,30.15-38.71,17.87-16.83,38.51-28.66,62.14-35.24,7.02-1.95,14.03-4.12,21.46-3.91,2.59-.68,4.91-.98,4,3.01-7.93,1.68-15.98,2.63-23.85,4.86-28.28,8.02-51.88,23.11-71.02,45.4-7.94,9.25-14.82,19.13-20.15,30.09-.66,1.36-1.45,2.61-2.73,3.49v-8.98Z"/>
  <path class="cls-14" d="M.09,589.95c6.62-7.64,12.7-15.74,20.13-22.68,23.14-21.59,49.96-35.95,81.18-41.8,1.46-.27,2.97-.28,4.46-.4,1.85-1.19,3.75-.16,5.53.13,1.9.3,2.27,1.58.46,2.87-17.93,1.78-34.58,7.77-50.62,15.61-15.97,7.8-30.04,18.31-42.34,31.09-4.94,5.13-9.31,10.81-13.85,16.3-1.49,1.8-2.94,3.6-4.94,4.87v-5.99Z"/>
  <path class="cls-20" d="M113.85,272.57c-1.42-2.46-.97-5.18-.97-7.81-.02-88.22-.02-176.44-.02-264.66h1c0,90.82,0,181.64,0,272.46Z"/>
  <path class="cls-18" d="M.09,679.78c1.21,1.96.99,4.16.99,6.31,0,30.73,0,61.45-.01,92.18,0,2.15.22,4.34-.98,6.31v-104.8Z"/>
  <path class="cls-20" d="M113.85,556.01c-.66-1.32-1.33-2.65-1.99-3.97,8.37-1.15,16.76-2.02,25.23-2.01,36.49.03,72.98.01,109.47.01q9.01,0,9-8.98c-2.32-2.21-5.26-1.47-7.94-1.47-37.91-.05-75.83-.01-113.74-.08-2.47,0-5.35.83-7.31-1.95,1.85-1.63,3.76-.96,5.47-.96,35.05-.05,70.11-.03,105.16-.06,1.79,0,3.66.46,5.38-.47.99,0,1.99,0,2.98,0q10.04,0,9.97-9.97c-.05-1.82,1.13-1.83,2.29-1.35,1.56.65,1.79,2.02,1.91,3.65.42,5.88-.13,11.8.8,17.65,0,77.14,0,154.29,0,231.43,0,1.83-.05,3.66-.21,5.47-.12,1.27-.86,2.21-2.24,2.23-1.38.02-2.17-.89-2.29-2.17-.18-1.81-.23-3.65-.23-5.47-.01-36.91,0-73.82,0-110.73,2.8.43,1.4,2.62,1.42,3.93.14,7.98.33,15.96.02,23.93-.55,14.27,1.97,28.51.87,42.7-.97,12.6-.42,25.17-.82,35.83,0-7.23-.37-16.39.12-25.51.39-7.27,1.62-14.61.88-21.81-1.92-18.6-.57-37.21-.88-55.8-.04-2.45-2.02-4.2-1.48-6.61.81-1.51.85-3.15.87-4.81.09-6.27.11-6.28-6.16-6.82-1.87-.16-3.91-.07-2.83-2.99,7.41-.06,8.72-1.19,7.93-6.53-.32-2.18-1.39-3.3-3.55-3.37-1.66-.06-3.32-.08-4.98-.08-38.05,0-76.1,0-114.16-.01.66-3.66,3.73-2.37,5.68-2.38,19.03-.17,38.06-.08,57.08-.11,17.73-.02,35.46.09,53.19-.08,1.76-.02,3.46,0,4.78-1.41,3.09-2.25,2.34-5.41,1.41-8.14-.87-2.55-3.65-1.81-5.71-1.81-39.89-.03-79.78-.34-119.66.13-16.91.2-30.88,7.91-42.2,20.49-11.4,12.66-15.63,27.63-15.5,44.38.22,29.25.06,58.51.06,87.76,0,1.33.03,2.66-.04,3.99-.08,1.48.04,3.23-2.12,3.28-2.24.05-2.67-1.6-2.76-3.38-.07-1.33-.06-2.66-.06-3.99,0-30.58-.04-61.17,0-91.75.05-31.14,22.94-58.62,53.54-64.31,2.59-.48,5.28-.59,7.92-.6,28.09-.04,56.18.39,84.26-.22,12.28-.27,24.51.22,36.76.22,3.52,0,6.16-.33,6.18-4.96.02-4.54-2.43-5.27-6.06-5.05-1.32.08-2.66,0-3.99,0-.19-3.16,2.56-2.53,4.03-2.59,1.86-.08,3.57.1,4.95-1.4,1.69-3.19.75-6.64.99-9.98,3.18.63.13,3.63,1.77,4.32.14,1.16-.71.78-.04.8.09,0,.13-.15.09-.47-.6-5.64-.88-5.99-6.77-6.53-3.73-.34-7.49-.08-11.24-.09-32.41-.06-64.83.12-97.24-.16-5.23-.04-10.21,1.7-15.41,1.13-1.88-.2-3.87-.12-2.87-3,3.06-.93,6.21-1.01,9.38-1.01,37.92.02,75.83.01,113.75,0,1.66,0,3.33-.02,4.99-.07,2.84-.09,3.58-1.89,3.58-4.36,0-2.42-.57-4.35-3.47-4.46-1.83-.07-3.66-.06-5.49-.09-1.46-1.92-3.54-.94-5.28-.94-37.54-.07-75.08-.04-112.62-.09-1.98,0-4.26.71-5.78-1.93,41.2-.54,82.37-.54,123.54-.54-38.42,0-76.85,0-115.27-.03-1.78,0-3.65.5-5.36-.49,2.3-1.32,4.84-.96,7.31-.97,38.52-.02,77.05,0,115.57-.06,2.45,0,5.58,1.05,6.68-2.63,1.23-4.12-.58-6.28-5.5-6.29-19.76-.04-39.52-.02-59.28-.02-22.25,0-44.5,0-66.75,0-1.42-1.43-3.31-.8-4.99-1.13-1.5-.29-3.3.12-4-1.87,2.86-1.58,5.98-.8,8.99-.99,1.72.96,3.59.48,5.38.48,38.07.03,76.14.02,114.21.02-38.24,0-76.47,0-114.71-.02-1.63,0-3.33.44-4.88-.48,2.3-1.35,4.84-.98,7.31-.98,39.2-.02,78.4,0,117.6-.06,2.45,0,5.58,1.04,6.64-2.67,1.18-4.14-.61-6.24-5.57-6.25-21.59-.04-43.18-.02-64.78-.02-19.43,0-38.87.06-58.3-.04-4.35-.02-8.6.61-12.88,1.04Z"/>
  <path class="cls-4" d="M249.57,126.85c-.33-1.33-.66-2.65-.99-3.98,34.58,2.38,65.3,14.68,91.96,36.7,33.56,27.71,52.74,63.52,58.44,106.58.83,6.24,1.22,12.58,1.22,18.88.07,163.83.05,327.66.05,491.49,0,2.16-.05,4.32-.21,6.47-.07,1.04-.65,1.92-1.82,2.06-1.39.16-2.24-.67-2.55-1.88-.28-1.11-.49-2.33-.34-3.45,1.28-9.45.55-18.85.13-28.32-.65-14.91-.33-29.87-.15-44.81.16-13.62-.58-27.24.79-40.86.98-9.76-.74-19.58-.75-29.36-.13-83.49-.56-166.99.19-250.48.27-29.58.4-59.17.64-88.75.13-16.13-.95-32.17-4.68-47.99-5.75-24.39-16.61-46.13-32.59-65.4-20.2-24.36-45.53-41.01-75.64-50.4-10.96-3.42-22.23-5.57-33.71-6.49Z"/>
  <path class="cls-4" d="M264.54,167.77c19.27,3.72,35.87,12.98,50.68,25.41,14.84,12.45,26.26,27.67,33.75,45.67,5.47,13.16,9.27,26.81,9.28,41.07.13,166.31.09,332.62.03,498.93,0,2.08,1.13,5.85-1.87,5.78-3.32-.08-2.01-3.95-2.02-6.15-.07-161.49-.01-322.98-.12-484.46-.01-21.77-2.83-43.1-13.53-62.66-11.97-21.89-28.75-38.76-51.06-50.22-8.07-4.14-16.41-7.18-25.14-9.37-1.2-.94-4.04.07-3.61-2.74.36-2.31,1.99-2.02,3.61-1.25Z"/>
  <path class="cls-5" d="M255.56,208.69c31.98,8.79,51.51,29.63,59.18,61.67,1.26,5.27,1.6,10.88,1.6,16.33.08,163.68.07,327.36,0,491.04,0,2.42,1.3,6.84-1.74,6.83-3.86,0-2.08-4.5-2.1-6.95-.13-15.45-1.87-30.89-.99-46.34.69-12.27.25-24.51-.05-36.77-.71-28.77,1.79-57.51.83-86.26-.58-17.28-1.18-34.56-.76-51.84,2.03-84.48.44-168.96.72-253.44.04-12,.57-24.21-2.63-36.09-4.92-18.25-15.15-32.67-30.62-43.43-7.17-4.98-14.9-8.74-23.43-10.75-1.18-.96-4.05.09-3.61-2.74.36-2.32,1.99-2.02,3.61-1.25Z"/>
  <path class="cls-4" d="M260.55,195.71c12.68,2.55,23.73,8.55,33.74,16.45,16.12,12.73,27.26,28.92,32.73,48.84,1.9,6.91,3.34,13.93,3.34,21.11.04,165.47.04,330.94-.03,496.41,0,2.2,1.27,6.18-2.03,6.09-3.12-.08-1.86-4.05-1.86-6.29-.06-162.98,0-325.95-.11-488.93-.02-26.38-8.54-49.67-27.93-68.16-11.23-10.71-24.32-18.45-39.64-21.97-1.77-.41-3.49-1.02-5.23-1.53,1.2-4.64,4.72-1.2,7.02-2.03Z"/>
  <path class="cls-5" d="M281.47,237.67c2.62,5.49,8.02,8.69,11.09,13.95,6.55,11.22,9.86,23.18,9.86,36.08.03,143.38.02,286.76.02,430.14,0,19.96,0,39.92,0,59.88,0,1.5,0,3-.09,4.49-.07,1.17-.26,2.55-1.7,2.66-1.84.15-1.96-1.42-2.13-2.75-.06-.49-.05-1-.07-1.49-1.03-28.75-1.82-57.53-.76-86.26,1.24-33.59.41-67.16.66-100.74.14-18.23-1.18-36.48-.76-54.7,1.93-82.81.31-165.63.79-248.44.09-15.45-3.32-30.05-13.24-42.47-2.06-2.58-4.42-4.92-6.65-7.37-.3-2.28-.03-3.99,2.97-2.97Z"/>
  <path class="cls-5" d="M250.57,251.58c13.14,3.85,23.27,18.29,23.9,34.09.05,1.33.03,2.66.03,3.99,0,162.34.01,324.69-.07,487.03,0,2.74,1.45,7.81-1.7,7.78-4.11-.05-2.14-5.07-2.15-7.82-.1-162.84-.08-325.68-.09-488.53,0-16.12-8.07-28.41-21.93-33.53-1.04-2.13-.26-3.07,2-3.01Z"/>
  <path class="cls-11" d="M343.36,271.57c2.27,73.98.68,147.97.93,221.95.31,94.46.08,188.93.07,283.39,0,1.99-.05,3.99-.2,5.98-.08,1.02-.55,2-1.79,2-1.23,0-1.72-.97-1.8-1.99-.15-1.99-.2-3.98-.2-5.98,0-162.32,0-324.63-.05-486.95,0-6.46-.62-12.93-.94-19.39-.5-1.82.7-2.41,2.07-2.39,2.3.04.81,2.5,1.92,3.38Z"/>
  <path class="cls-6" d="M366.3,262.62c2.39-1.49,2.64,1.39,4.02,1.96,1.14,2.52.82,5.21,1.02,7.85,1.95,25.74-.86,51.49.11,77.21.64,17.11,1.14,34.23.72,51.33-.26,10.62-1,21.23-.82,31.87.32,18.69,1.18,37.4.75,56.08-.3,13.12-.75,26.23-.76,39.36-.02,32.22-.73,64.47.17,96.66,1.24,44.06.31,88.11.81,132.16.09,7.78-1.63,15.53-.13,23.34.3,1.56.67,4.34-1.91,4.32-2.54-.02-1.92-2.7-1.94-4.37-.1-6.48-.05-12.97-.05-19.46,0-156.84,0-313.67.03-470.51,0-9.33-1.78-18.5-2.03-27.8Z"/>
  <path class="cls-15" d="M123.83,592.95c2.35,3.34,5.72,1.52,8.78,1.32-1.16-.19-2.32-.38-3.51-.58.06-1.07.94-.7,1.42-.7,29.26-.03,58.51-.04,87.77-.04,10.31,0,20.61.04,30.92.01,5.7-.02,11.4,4.47,7.74,12.47-.84-3.09.22-6.07-1.41-8.49-42.4,0-84.81-.29-127.21.13-20.7.21-38.62,8.27-54.21,22-13.12,11.55-21.89,25.61-26.85,42.26-2.06,6.91-3.27,13.91-3.27,21.1-.03,31.6-.01,63.2-.02,94.8,0,1.5.03,3-.06,4.49-.11,1.71-.32,3.57-2.65,3.4-1.96-.14-2.11-1.85-2.2-3.37-.08-1.33-.06-2.66-.06-3.99,0-31.1-.92-62.23.23-93.29,1.38-37.33,18.99-65.31,52.66-82.59,10.05-5.16,20.66-8.19,31.93-8.93Z"/>
  <path class="cls-3" d="M254.56,606.92c-.3,2.21-1.76,2.93-3.78,2.97-1.79.03-3.6,0-5.2,1.02-38.42,0-76.83,0-115.25.01-17.19,0-32.02,6.25-45.14,17.11-15.18,12.56-23.96,28.62-26.73,48.03-.37,2.62-.46,5.3-.46,7.95-.03,31.6.01,63.2-.1,94.81,0,2.12,1.56,5.89-2.24,5.96-3.7.07-2.59-3.65-2.6-5.89-.08-31.44-.21-62.87-.01-94.31.24-38.24,30.31-72.16,68.33-77.42,1.97-.27,3.98-.24,5.97-.24,42.41-.01,84.81,0,127.22,0Z"/>
  <path class="cls-4" d="M290.48,120.87c1.67-.67,3.35-1.34,5.02-2.01,7.44,1.42,14.12,4.88,20.72,8.26,37.83,19.37,65.53,48.37,82.85,87.33,7.84,17.64,12.55,35.95,14.14,55.13-2.03,1.81-1.44,4.32-1.45,6.51-.08,14.12-.05,28.25-.04,42.37,0,152.53,0,305.06-.05,457.6,0,2.86,1.08,6.04-1.45,8.53-1.47-2.64-.96-5.52-.96-8.32-.02-163.94-.2-327.87.12-491.8.08-39.03-12.14-73.45-35.3-104.23-20.73-27.56-47.78-46.74-80.34-58.13-1.1-.38-2.17-.83-3.26-1.24Z"/>
  <path class="cls-15" d="M114.84,565.99c3.13.58,6.69-.09,8.99,3-23.64,1.51-44.53,10.19-63.01,24.72-14.71,11.56-26.25,25.77-34.13,42.85-6.63,14.37-10.51,29.41-10.58,45.25-.15,32.26-.02,64.51-.1,96.77,0,2.24,1.22,6.06-2.06,6.24-3.87.2-2.8-3.8-2.8-6.2-.08-32.75-.84-65.53.19-98.26.88-27.88,11.29-52.62,29.62-73.95,16.34-19.03,36.82-31.21,60.67-38.16,4.33-1.26,8.73-2.02,13.22-2.25Z"/>
  <path class="cls-3" d="M251.57,236.64c21.89,6.16,36.87,26.11,36.89,49.48.06,65.35.02,130.71.02,196.06,0,98.28,0,196.56,0,294.84,0,1.99-.05,3.99-.22,5.97-.11,1.28-.9,2.2-2.28,2.19-1.38,0-2.14-.95-2.25-2.23-.17-1.98-.21-3.98-.21-5.97,0-163.47-.27-326.93.31-490.4.08-22.17-17-43.43-37.88-47.17-.81-.15-1.58-.51-2.37-.77,1.71-4.48,5.19-1.89,7.99-2Z"/>
  <path class="cls-13" d="M410.22,784.58c0-169.03,0-338.06.08-507.1,0-2.8-1.7-6.64,2.92-7.91,0,.99,0,1.98.01,2.98.92,1.73.47,3.59.47,5.39.02,166.97.03,333.93-.01,500.9,0,1.88.7,3.95-.68,5.67-.43,0-.85,0-1.28-.01,0-165.56,0-331.11,0-496.67,0,105.71,0,211.41,0,317.12,0,58.21.02,116.41-.09,174.62,0,1.62,1.57,4.09-1.41,5.02h0Z"/>
  <path class="cls-4" d="M410.22,784.59c1.5-2.63.98-5.52.98-8.31.02-163.33.02-326.67.02-490v-6.38c.31,0,.63,0,.94,0v502.43c.35,0,.71,0,1.06,0,0-169.92,0-339.85,0-509.77,1.08,1.81.98,3.83.98,5.82,0,166.93.01,333.87-.1,500.8,0,2.15,2.11,7.05-3.88,5.41Z"/>
  <path class="cls-15" d="M247.57,648.84c.68,1.28,1.8,1.72,3.18,1.95,6.78,1.12,7.41,1.94,6.72,8.76-.11,1.11-.6,2.18-.92,3.26-.63-.03-.72-.61-1-1,0-2.99,0-5.98,0-8.98-1.21-.81-2.58-.49-3.87-.49-38.66-.02-77.32-.02-115.98,0-1.3,0-2.67-.31-3.88.48-17.91.49-31.82,14.95-31.9,33.53-.12,30.43.01,60.86-.12,91.28-.01,2.59,1.72,7.24-2.54,7.24-3.83,0-2.28-4.5-2.29-7.01-.12-29.76-.08-59.53-.06-89.29,0-2.31-.29-4.68.97-6.82.99,1.71.49,3.57.49,5.36.04,29.22.03,58.44.03,87.66,0-29.54,0-59.08-.02-88.62,0-1.79.45-3.65-.47-5.38,1.84-17.67,17.4-31.92,35.02-31.93,38.89-.03,77.77,0,116.66,0Z"/>
  <path class="cls-8" d="M54.97,617.89c-11.61,13.88-19.69,29.54-23.24,47.34-1.13,5.67-1.71,11.48-1.71,17.31.01,31.9.04,63.8-.06,95.71,0,2.36,1.43,6.43-2.23,6.56-3.7.13-2.63-3.95-2.64-6.37-.08-32.23-.7-64.49.17-96.7.64-23.65,8.98-45.07,24.08-63.57.72-.88,1.73-1.53,2.61-2.29,2.1-.96,3.11-.3,3.02,2.01Z"/>
  <path class="cls-15" d="M255.56,661.81c.33.33.66.66,1,1,2.04,12.73,1.09,25.56.85,38.32-.28,15.1,4.18,29.93,1.67,45.2-1.05.28-.21-1.23-.79-1.42-.78-.26-.68.46-.67.82.18,12.55-.69,25.12.62,38.02-.7.45-1.35-.36-1.48-1.42-.21-1.64-.19-3.31-.19-4.97,0-34.41,0-68.82-.02-103.24,0-2.47.38-5.01-.98-7.31-38.05,0-76.1.23-114.14-.16-9.98-.1-18.81,1.07-25.52,9.16-1.75,1.37-2.9.3-3.99-.99,5.25-8.87,12.89-12.25,23.28-12.15,37.69.37,75.38.15,113.07.13,2.47,0,5.01.39,7.3-.97Z"/>
  <path class="cls-15" d="M54.97,617.89c-.73-1.09-1.75-1.74-3.02-2.01,2.9-6.08,8.36-9.76,13.37-13.7,17.74-13.93,37.52-22.77,60.48-23.23,42.83,0,85.67,0,128.5,0v.9H125.31c0,.29,0,.58,0,.87h125.92c.03.25.06.49.09.74-1.58.5-3.16,1-4.74,1.49-37.55,0-75.11.28-112.66-.08-29.22-.28-53.69,10.16-74.14,30.69-1.52,1.52-3.2,2.89-4.8,4.33Z"/>
  <path class="cls-14" d="M429.19,647.85c24.98-1.16,48.33-7.93,70.46-19.57,17.74-9.33,33.08-21.59,46.62-36.21,4.37-4.72,8.4-9.75,13.09-15.24.95,3.58.34,6.2-1.6,8.66-13.73,17.38-30.18,31.61-49.23,42.95-20.58,12.25-42.81,19.49-66.41,22.93-4.32.63-8.63.33-12.94.46-.43-1.33-.65-2.66,0-3.99Z"/>
  <path class="cls-1" d="M260.54,546.04c-1.61-5.48-1.09-11.2-1.84-16.78-.3-2.22-.12-4.06-3.17-3.16-47.9.48-95.82-1.26-143.68,1.97-.72-3.56-3.9-2.18-5.99-2.99,7.63-2.79,15.67-2.84,23.56-2.88,38.7-.23,77.4-.11,116.1-.11q10.05,0,10.02-9.97c1.49,2.44.8,5.17,1.08,7.78.12,1.14.16,2.72,1.57,2.72,1.6,0,1.23-1.65,1.33-2.72.3-3.26-.65-6.65,1.02-9.78,0,11.98,0,23.95,0,35.93Z"/>
  <path class="cls-14" d="M428.19,661.82c20.48-.38,40.09-4.87,59.09-12.36,26.38-10.4,49.12-26.09,68.44-46.81.88-.94,1.94-1.71,3.33-2.92,1.43,3.02.42,5-1.35,6.89-13.34,14.31-28.56,26.13-45.61,35.81-18.86,10.7-39,17.46-60.12,21.61-5.85,1.15-11.78,1.99-17.79,1.75-.94-1.28-2.39-1.47-3.78-1.64-1.46-.18-2.53-.55-2.2-2.34Z"/>
  <path class="cls-7" d="M343.36,271.57c-.96-1.83-2.25-2.31-3.99-.99-2.67-8.87-4.13-18.11-8.22-26.54-16.5-34.01-42.69-55.07-80.68-60.36-1.97-.27-3.93-.62-5.89-.94-2.39-2.17-.79-3.25,1.25-3.38,2.55-.16,5.2-.66,7.73.39,10.99,1.34,21.47,4.68,31.16,9.79,31.37,16.55,50.99,42.17,58.13,77.08.33,1.61.35,3.29.51,4.94Z"/>
  <path class="cls-13" d="M91.9,661.81c-4.45,7.32-5.97,15.4-5.98,23.82-.03,31.07.01,62.13-.07,93.2,0,2.1,1.16,5.71-1.84,5.86-3.14.16-2.85-3.65-2.91-5.89-.24-8.3-.16-16.61-.16-24.91-.01-21.6-.05-43.19.02-64.79.03-10.44,2.35-20.33,7.92-29.3,2.1-.97,3.1-.29,3.02,2.02Z"/>
  <path class="cls-14" d="M91.9,661.81c-.73-1.09-1.74-1.75-3.02-2.02,8.9-15.04,21.84-24.54,39.45-24.76,41.73-.54,83.48-.17,125.22-.17-.66,3.57-3.51,2.97-5.9,2.97-20.25.04-40.49.02-60.74.02-15.93,0-31.86,0-47.79,0-2.15,0-4.34-.2-6.3.98-16.69-.04-29.37,7.43-38.92,20.79-.57.79-1.33,1.45-2,2.17Z"/>
  <path class="cls-13" d="M428.19,661.82c1.87,1.51,5.62.2,5.98,3.98-5.09-.5-6.04,2.38-6.03,6.74.09,36.68.04,73.36.04,110.04-3.44.95-1.89-1.89-1.91-2.89-.16-7.27-.08-14.54-.87-21.84-.14,2.84-.28,5.68-.42,8.52l-.78-.04c0-1.46,0-2.92,0-4.37,0-29.4,0-58.8,0-88.21,0-2.63-.37-5.35,1.71-7.55.89-.95.92-1.85-.1-3.01-2.38-2.72-2.46-5.32.04-8.4,1.45-1.79,1.61-4.62,2.35-6.99.33.01.65.03.98.04.64,1.33.63,2.66,0,3.99-3.01,3.06-2.25,6.5-1,9.99Z"/>
  <path class="cls-5" d="M111.9,674.81c1.33.33,2.66.66,3.99.99-1.72,4.58-2.09,9.32-2.07,14.2.08,29.58.07,59.17-.02,88.76,0,2.08,1.24,5.81-1.72,5.89-3.7.11-2.16-3.81-2.17-5.94-.11-30.42-.03-60.83-.11-91.25-.01-4.38.31-8.62,2.1-12.65Z"/>
  <path class="cls-4" d="M525.97,377.39c.68-1.01,1.35-2.02,2.03-3.03,8.74,8.29,15.22,18.27,21.18,28.59,2.97,5.15,5.43,10.61,7.95,16,2.62,5.61,3.63,11.48,1.8,17.76-5.86-22.7-18.41-41.57-32.95-59.32Z"/>
  <path class="cls-20" d="M253.56,179.75c-2.08.02-4.17,0-6.25.08-1.79.08-3.23.62-2.73,2.9-3.54-.26-5.07,1.27-5.01,4.92.07,3.97,2.11,5.1,5.65,5.08,5.29-.04,10.54.35,15.33,2.97-2.34.67-4.68,1.35-7.02,2.03-4.65-.34-9.29-.67-13.94-1.01-1.87-1.14-3.17-2.45-1.65-4.8.34-.53.6-1.31.49-1.89-1.42-7.42,1.29-15.01-.77-22.3-.72-2.54,1.55-2.54,1.92-3.95,5.38,1.59,11,1.09,16.47,1.92,2.91.44,5.84.58,8.49,2.06-3.05,1.32-1.65,2.66,0,3.99-2.81-.1-5.51-.59-8-1.97-2.87-1.35-5.77-2.41-8.96-1.02-7.38.06-8.26.78-7.98,5.86.16,2.9,1.52,4.02,4.31,4.13,3.23.13,6.58-.67,9.66.99Z"/>
  <path class="cls-20" d="M281.47,237.67c-1.53.45-2.32,1.65-2.97,2.97-11.25-9.51-24.09-15.14-38.91-15.97-2.44-1.33-2.48-2.66,0-3.99,16.31-.13,29.97,6.28,41.89,16.99Z"/>
  <path class="cls-14" d="M428.2,373.4c-1.33-.86-2.68-.25-4.02-.03-.94-6.99-.19-13.97,0-20.96.82-1.14,1.43-2.26,1.58-3.79.13-1.25.14-3.26,2.4-3.2h.02c.68.71,1.66,1.31,1.88,2.22.94,4.03,3.89,5.19,7.49,5.88,1.96.38,4.38.43,5.12,3.04.04,2.64-2.34,2.58-3.85,3.04-1.72.53-3.49.88-5.07,1.8-1.25.38-2.54.66-3.48,1.67-1.52,1.36-1.03,2.37.56,3.19,2.13,1.11,4.98.52,6.61,2.79,1.37,5.23-3.39,4.48-5.84,6.01-1.47.12-2.47-.71-3.42-1.67Z"/>
  <path class="cls-20" d="M131.82,652.82c1.97-1.19,4.16-.98,6.31-.98,37.04,0,74.08,0,111.12,0,2.15,0,4.34-.21,6.3,1-41.24,0-82.49-.01-123.73-.02Z"/>
  <path class="cls-19" d="M95.89,680.78c.91,1.48.99,3.14.99,4.81,0,31.7,0,63.39-.02,95.09,0,.48-.12.96-.99,1.44,0-33.45,0-66.91,0-100.36,0-.33.01-.65.02-.98Z"/>
  <path class="cls-20" d="M255.56,208.69c-3.06,1.33-1.63,2.66,0,3.99-5.37-.3-10.55-2.16-15.97-2-1.25-1.37-2.84-2.32-1.53-4.84,1.43-2.74-.2-6.26,1.54-9.12,0,1.32.12,2.64-.02,3.95-.46,4.43,1.35,6.37,5.91,6.09,3.45-.21,6.87.45,10.07,1.93Z"/>
  <path class="cls-20" d="M250.57,251.58c-1.07.74-1.75,1.73-2,3.01-2.99-.66-5.98-1.32-8.98-1.98-2.76-4.66-.87-9.32-.01-13.98,0,1.47.1,2.95-.02,4.42-.29,3.53.93,5.57,4.77,5.88,2.27.18,4.46,1.06,6.24,2.65Z"/>
  <path class="cls-20" d="M251.57,236.64c-2.71.47-5.49.69-7.99,2-1.33,0-2.65,0-3.98,0-.78-.78-2.57-1.29-2.06-2.46,1.6-3.72.2-7.9,2.06-11.51,0,1.47.07,2.94,0,4.4-.17,3.52,1.14,5.56,4.98,5.66,2.44.06,4.84.65,7,1.92Z"/>
  <path class="cls-4" d="M247.57,168.76c-.08-.48-.33-1-.22-1.43.44-1.67,1.94-1.53,2.65-.75,2.2,2.4,6.55-1.61,7.89,2.81-.46.13-.91.26-1.37.39-2.99-.34-5.97-.68-8.96-1.02Z"/>
  <path class="cls-4" d="M276.51,116.86c2.63-3,7.34-1.94,8.97,2.02-2.99-.67-5.98-1.35-8.97-2.02Z"/>
  <path class="cls-3" d="M428.18,345.43c-1.02,1.64-1.21,3.51-.94,5.29.55,3.63-1.62,1.89-3.05,1.69,0-2,0-3.99,0-5.99,1.36-.23,2.37-1.83,3.99-1Z"/>
  <path class="cls-3" d="M125.84,498.14c-.97-.05-1.95-.09-3.52-.16,1.97-2.91,4.53-2.83,7.04-2.83,16.19,0,32.38,0,48.57-.02,2.3,0,4.65.29,6.77-.98,23.62,0,47.24,0,70.86,0,1.61-2.96.94-6.19.97-9.31.08-9.08.03-18.16,1.03-27.22,0,3.53.02,7.06,0,10.58-.07,11.91.83,23.81.06,35.73-.23,3.59-.75,6.19-5.16,6.18-41.55-.06-83.1-.06-124.64-.1-.23,0-.46-.29-.84-.54,3.63-1.04,7.46.56,10.82-1.35.67,0,1.34,0,2,0,.57.37,1.21.49,1.88.49,21.03,0,42.05,0,63.08,0,.68,0,1.31-.12,1.89-.49,14.93.23,29.86-.57,44.78.46,2.53.17,3.97-.73,3.96-3.17,0-2.6,1.4-6.02-2.63-7.02-1.73-.43-3.63-.23-5.45-.23-40.49-.01-80.98,0-121.48,0Z"/>
  <path class="cls-16" d="M428.2,373.4c1.32-.01,2.65-.03,3.97-.04,4.16-1.62,8.34-.76,12.35.33,31.49,8.54,54.98,27.46,69.27,56.58,19.48,39.67,11.12,86.96-19.31,117.92-9.3,9.46-19.78,17.04-31.62,22.81-2.41,1.17-4.86,3.09-7.74.99-7.62,2.1-15.02,5.16-23.1,5.34-1.32.03-2.62.41-3.84-.36.05-8.43.03-8.56,8.54-10.14,23.11-4.31,41.89-16.1,56.09-34.41,18.18-23.44,23.59-50.2,16.72-79.11-6.37-26.76-22.6-46.26-46.23-59.63-7.94-4.49-16.67-7.59-25.76-9.1-11.02-1.83-9.16-1.61-9.34-11.18Z"/>
  <path class="cls-3" d="M455.13,571.99c38.12-16.5,61.26-44.58,65.91-86.45,3.47-31.26-6.4-58.09-28.04-80.89-16.69-17.59-37.13-27.5-60.82-31.29-.46-1.88.08-2.86,2.13-2.17,1.21.41,2.13.29,2.86-.8,19.31,2.73,36,11.13,50.92,23.45,14.28,11.79,24.44,26.58,31.41,43.58,3.42,8.33,5.28,17.18,6.31,26.1,3.33,28.83-4.46,54.85-22.03,77.52-12.58,16.23-28.57,28.65-48.63,34.95-2.67-1.32-.99-2.66-.02-3.99Z"/>
  <path class="cls-3" d="M496.02,563.98c6.09-7.01,12.84-13.39,18.23-21.08,10.5-14.98,17.05-31.29,20.09-49.37,3.95-23.48.3-45.6-9.48-66.98-10.36-22.65-26.76-39.68-48.07-52.38-13.55-8.08-28.23-12.33-43.61-14.77.25-1.65.87-3.02,2.82-2.01,2.12,1.1,4.12.07,6.18.01,14.26,1.8,27.28,7.14,39.44,14.49,13.04,7.89,24.17,18.08,33.6,30.06,9.99,12.7,16.88,26.95,21.06,42.56,4.36,16.26,5.4,32.72,2.69,49.31-4.79,29.29-18.2,53.88-40.94,73.18-.67-1-1.35-2.01-2.02-3.01Z"/>
  <path class="cls-3" d="M245.57,386.34c-.99-3.4,1.8-1.76,2.83-1.89,1.92-.25,4.01-.28,5.15,1.9-2.66,0-5.32,0-7.98,0Z"/>
  <path class="cls-15" d="M179.72,274.57c1.04.93.62,3.15,2.58,3.17,1.28,0,1.29-1.22,1.41-2.19,2.81,7.93,3.67,16.43,7.9,23.99,12.21,21.84,29.88,35.91,54.95,39.92-.28,3.33-3.13,2.35-5.01,2.99-11.1-1.08-20.73-6.18-29.36-12.54-17.04-12.55-27.73-29.54-31.97-50.41-.33-1.61-.34-3.29-.5-4.93Z"/>
  <path class="cls-17" d="M249.56,339.45c.86-1.73,4.05-1.96,3.43-4.42-.69-2.77-3.6-2.77-5.76-3.06-6.35-.86-11.97-3.8-17.91-5.81-1.81-.61-3.23-1.68-3.71-3.67,8.57,3.92,17.33,7.16,26.82,8.11,3.82.38,4.23,3.39,3.59,6.36-.83,3.8-3.38,4.05-6.46,2.49Z"/>
  <path class="cls-17" d="M197.68,289.53c2.58,3.85,3.85,8.46,6.97,11.99,3.14,6.64,8.49,11.3,14.08,15.76,1.68,1.34,3.26,2.79,4.89,4.19-9.47-3.75-15.69-11.12-21.04-19.3"/>
  <path class="cls-12" d="M242.58,536.06c-2.3,1.35-4.85.98-7.32.98-33.59.02-67.19.01-100.78.02-1.79,0-3.59,0-6.41,0,2.7,1.44,4.51.97,6.24.97,39.08.03,78.16,0,117.24.11,1.57,0,5.56-1.94,3.99,2.91-45.9,0-91.8,0-137.7,0-.5-2.11-1.99-2.9-4-3.01,4.62-1.49,9.36-1.99,14.19-1.99,38.18.01,76.36,0,114.54.01Z"/>
  <path class="cls-20" d="M206.65,508.12c-1.65,1-3.48.98-5.31.98-18.74,0-37.49,0-56.23,0-1.83,0-3.66.01-5.31-.98,22.28,0,44.57,0,66.85,0Z"/>
  <path class="cls-9" d="M428.25,463.91c0-.97-.06-2.12,1.05-2.59,1.1-.46,1.8.46,2.56,1.07"/>
  <path class="cls-9" d="M431.73,489.06c-.76.59-1.47,1.53-2.58.89-1-.58-.9-1.71-.91-2.68"/>
  <path class="cls-15" d="M123.83,565h128.18c-2.19,1.47-3.83.97-5.34.97-38.68.03-77.35.03-116.03.02-2.31,0-4.67.29-6.8-.99,0,0,0,0,0,0Z"/>
  <path class="cls-2" d="M284.5,282.02c2.53,1.61,2.86,3.38,2.93,5.22.07,1.83.05,3.66.05,5.49,0,160.95,0,321.89-.06,482.84,0,2.65.98,7.7-1.19,7.49-3.33-.32-1.65-4.91-1.66-7.58-.09-162.11-.08-324.22-.08-486.33,0-2.14,0-4.28,0-7.13Z"/>
  <path class="cls-3" d="M428.21,359.4c.11,3.35-.47,6.76.98,9.97-3.82-1.31-4.26-5.76-.98-9.97Z"/>
</svg>