<svg width="1920" height="1080" viewBox="0 0 1920 1080" fill="none" xmlns="http://www.w3.org/2000/svg">
<g clip-path="url(#clip0_1_2)">
<path d="M-240.544 58.4655L-239.97 91.3355L-250.468 91.5187L-252.032 1.90736L-227.411 1.4776C-217.829 1.31034 -210.372 3.57637 -205.039 8.27569C-199.665 12.9326 -196.903 19.5729 -196.753 28.1966C-196.602 36.8203 -199.416 43.9538 -205.193 49.5972C-210.929 55.1981 -218.776 58.0855 -228.733 58.2593L-240.544 58.4655ZM-241.368 11.2227L-240.709 48.9669L-229.711 48.7749C-222.462 48.6484 -216.972 46.844 -213.241 43.3617C-209.467 39.8786 -207.635 35.0542 -207.742 28.8885C-207.848 22.8061 -209.678 18.2748 -213.23 15.2947C-216.783 12.3146 -222.059 10.8856 -229.058 11.0078L-241.368 11.2227ZM-132.486 89.4593L-179.979 90.2883L-181.543 0.676967L-136.05 -0.117117L-135.884 9.38144L-170.879 9.99227L-170.359 39.8002L-137.989 39.2352L-137.824 48.6713L-170.194 49.2363L-169.646 80.6065L-132.652 79.9608L-132.486 89.4593ZM-126.612 89.3568L-93.8065 -0.854482L-82.9332 -1.04428L-46.8743 87.965L-58.4975 88.1679L-67.9764 64.3922L-106.783 65.0695L-114.926 89.1528L-126.612 89.3568ZM-103.449 55.5099L-71.5792 54.9536L-86.7576 16.2126C-87.063 15.4261 -87.3038 14.7636 -87.4799 14.2249C-87.656 13.6862 -87.8982 12.9403 -88.2066 11.9872L-88.4565 11.9916C-88.7731 12.9556 -89.0096 13.7307 -89.1661 14.3168C-89.3232 14.8613 -89.5411 15.5111 -89.8196 16.266L-103.449 55.5099ZM27.1769 86.6724L12.9916 86.92L-22.3437 46.5305C-22.9824 45.7499 -23.5144 45.1133 -23.9397 44.6206C-24.3241 44.0856 -24.6018 43.6945 -24.7728 43.4475L-25.0228 43.4518L-24.2527 87.5701L-34.7511 87.7534L-36.3153 -1.85799L-25.8169 -2.04125L-25.0817 40.0773L-24.8317 40.073C-24.5481 39.6096 -24.2232 39.1247 -23.857 38.6182C-23.4498 38.0694 -23.001 37.5198 -22.5106 36.9695L10.99 -2.68371L23.3631 -2.89969L-14.3181 40.7646L27.1769 86.6724ZM101.291 85.3787L87.1053 85.6263L51.77 45.2369C51.1313 44.4562 50.5993 43.8196 50.174 43.3269C49.7896 42.7919 49.5119 42.4009 49.3409 42.1538L49.0909 42.1582L49.861 86.2764L39.3626 86.4597L37.7984 -3.15165L48.2968 -3.3349L49.032 38.7837L49.282 38.7793C49.5656 38.316 49.8905 37.8311 50.2567 37.3246C50.6639 36.7757 51.1127 36.2261 51.6032 35.6758L85.1037 -3.97737L97.4768 -4.19334L59.7956 39.4709L101.291 85.3787ZM153.396 51.5892L153.97 84.4592L143.472 84.6425L141.908 -4.96889L166.529 -5.39865C176.111 -5.5659 183.568 -3.29987 188.901 1.39944C194.275 6.05636 197.037 12.6967 197.187 21.3204C197.338 29.944 194.524 37.0776 188.747 42.7209C183.011 48.3219 175.164 51.2093 165.207 51.3831L153.396 51.5892ZM152.572 4.34642L153.231 42.0907L164.229 41.8987C171.478 41.7722 176.968 39.9677 180.699 36.4854C184.473 33.0024 186.305 28.178 186.198 22.0123C186.092 15.9298 184.262 11.3986 180.71 8.41846C177.157 5.43834 171.881 4.00937 164.882 4.13153L152.572 4.34642ZM261.454 82.5831L213.961 83.4121L212.397 -6.19928L257.89 -6.99337L258.056 2.50519L223.061 3.11602L223.581 32.924L255.951 32.359L256.116 41.795L223.746 42.36L224.294 73.7303L261.288 73.0845L261.454 82.5831ZM267.328 82.4805L300.133 -7.73073L311.007 -7.92052L347.066 81.0887L335.442 81.2916L325.964 57.5159L287.157 58.1933L279.014 82.2766L267.328 82.4805ZM290.491 48.6336L322.361 48.0774L307.182 9.33635C306.877 8.54989 306.636 7.88733 306.46 7.34865C306.284 6.80998 306.042 6.06409 305.733 5.11099L305.483 5.11536C305.167 6.07936 304.93 6.85444 304.774 7.44059C304.617 7.98509 304.399 8.63482 304.12 9.3898L290.491 48.6336ZM421.117 79.7961L406.932 80.0438L371.596 39.6543C370.958 38.8737 370.426 38.237 370 37.7444C369.616 37.2093 369.338 36.8183 369.167 36.5712L368.917 36.5756L369.687 80.6939L359.189 80.8771L357.625 -8.73424L368.123 -8.91749L368.858 33.2011L369.108 33.1967C369.392 32.7334 369.717 32.2485 370.083 31.742C370.49 31.1931 370.939 30.6436 371.429 30.0932L404.93 -9.55996L417.303 -9.77593L379.622 33.8883L421.117 79.7961ZM495.231 78.5025L481.045 78.7501L445.71 38.3606C445.071 37.58 444.539 36.9433 444.114 36.4507C443.73 35.9157 443.452 35.5246 443.281 35.2776L443.031 35.2819L443.801 79.4002L433.303 79.5834L431.738 -10.0279L442.237 -10.2112L442.972 31.9074L443.222 31.9031C443.506 31.4397 443.831 30.9548 444.197 30.4483C444.604 29.8995 445.053 29.3499 445.543 28.7996L479.044 -10.8536L491.417 -11.0696L453.736 32.5947L495.231 78.5025ZM547.336 44.713L547.91 77.583L537.412 77.7662L535.848 -11.8451L560.469 -12.2749C570.051 -12.4422 577.508 -10.1761 582.841 -5.47681C588.215 -0.819886 590.977 5.82042 591.127 14.4441C591.278 23.0678 588.464 30.2013 582.687 35.8447C576.951 41.4456 569.104 44.333 559.147 44.5068L547.336 44.713ZM546.512 -2.52983L547.171 35.2144L558.169 35.0224C565.418 34.8959 570.908 33.0915 574.639 29.6092C578.413 26.1261 580.245 21.3017 580.138 15.136C580.032 9.0536 578.202 4.52234 574.65 1.54222C571.097 -1.4379 565.821 -2.86688 558.822 -2.74471L546.512 -2.52983ZM655.394 75.7068L607.901 76.5358L606.337 -13.0755L651.83 -13.8696L651.996 -4.37106L617.001 -3.76023L617.521 26.0477L649.891 25.4827L650.056 34.9188L617.686 35.4838L618.234 66.854L655.228 66.2083L655.394 75.7068ZM661.268 75.6043L694.073 -14.607L704.947 -14.7968L741.006 74.2125L729.382 74.4154L719.904 50.6397L681.097 51.317L672.954 75.4003L661.268 75.6043ZM684.431 41.7574L716.301 41.2011L701.122 2.4601C700.817 1.67365 700.576 1.01108 700.4 0.472405C700.224 -0.0662708 699.982 -0.812157 699.673 -1.76525L699.423 -1.76089C699.107 -0.796886 698.87 -0.0218072 698.714 0.564346C698.557 1.10884 698.339 1.75857 698.06 2.51355L684.431 41.7574ZM815.057 72.9199L800.872 73.1675L765.536 32.778C764.898 31.9974 764.366 31.3608 763.94 30.8681C763.556 30.3331 763.278 29.942 763.107 29.695L762.857 29.6993L763.627 73.8176L753.129 74.0009L751.565 -15.6105L762.063 -15.7937L762.798 26.3248L763.048 26.3205C763.332 25.8571 763.657 25.3722 764.023 24.8657C764.43 24.3169 764.879 23.7673 765.369 23.217L798.87 -16.4362L811.243 -16.6522L773.562 27.0121L815.057 72.9199ZM889.171 71.6262L874.985 71.8738L839.65 31.4844C839.011 30.7037 838.479 30.0671 838.054 29.5744C837.67 29.0394 837.392 28.6484 837.221 28.4013L836.971 28.4057L837.741 72.524L827.243 72.7072L825.678 -16.9042L836.177 -17.0874L836.912 25.0312L837.162 25.0268C837.446 24.5635 837.771 24.0786 838.137 23.5721C838.544 23.0232 838.993 22.4736 839.483 21.9233L872.984 -17.7299L885.357 -17.9458L847.676 25.7184L889.171 71.6262ZM941.276 37.8367L941.85 70.7067L931.352 70.89L929.788 -18.7214L954.409 -19.1511C963.991 -19.3184 971.448 -17.0524 976.781 -12.3531C982.155 -7.69613 984.917 -1.05583 985.067 7.56786C985.218 16.1915 982.404 23.3251 976.627 28.9684C970.891 34.5694 963.044 37.4568 953.087 37.6306L941.276 37.8367ZM940.452 -9.40608L941.111 28.3382L952.109 28.1462C959.358 28.0197 964.848 26.2152 968.579 22.7329C972.353 19.2499 974.185 14.4255 974.078 8.25976C973.972 2.17735 972.142 -2.35391 968.59 -5.33403C965.037 -8.31415 959.761 -9.74313 952.762 -9.62096L940.452 -9.40608ZM1049.33 68.8306L1001.84 69.6596L1000.28 -19.9518L1045.77 -20.7459L1045.94 -11.2473L1010.94 -10.6365L1011.46 19.1715L1043.83 18.6065L1044 28.0425L1011.63 28.6075L1012.17 59.9778L1049.17 59.332L1049.33 68.8306ZM1055.21 68.7281L1088.01 -21.4832L1098.89 -21.673L1134.95 67.3362L1123.32 67.5391L1113.84 43.7634L1075.04 44.4408L1066.89 68.5241L1055.21 68.7281ZM1078.37 34.8811L1110.24 34.3249L1095.06 -4.41615C1094.76 -5.2026 1094.52 -5.86517 1094.34 -6.40384C1094.16 -6.94252 1093.92 -7.6884 1093.61 -8.6415L1093.36 -8.63714C1093.05 -7.67313 1092.81 -6.89806 1092.65 -6.3119C1092.5 -5.76741 1092.28 -5.11767 1092 -4.3627L1078.37 34.8811ZM1209 66.0437L1194.81 66.2913L1159.48 25.9018C1158.84 25.1212 1158.31 24.4845 1157.88 23.9919C1157.5 23.4568 1157.22 23.0658 1157.05 22.8187L1156.8 22.8231L1157.57 66.9414L1147.07 67.1246L1145.5 -22.4867L1156 -22.67L1156.74 19.4486L1156.99 19.4442C1157.27 18.9809 1157.6 18.496 1157.96 17.9895C1158.37 17.4406 1158.82 16.8911 1159.31 16.3407L1192.81 -23.3125L1205.18 -23.5284L1167.5 20.1358L1209 66.0437ZM1283.11 64.75L1268.93 64.9976L1233.59 24.6081C1232.95 23.8275 1232.42 23.1909 1231.99 22.6982C1231.61 22.1632 1231.33 21.7721 1231.16 21.5251L1230.91 21.5294L1231.68 65.6477L1221.18 65.831L1219.62 -23.7804L1230.12 -23.9636L1230.85 18.1549L1231.1 18.1506C1231.39 17.6872 1231.71 17.2023 1232.08 16.6958C1232.48 16.147 1232.93 15.5974 1233.42 15.0471L1266.92 -24.6061L1279.3 -24.8221L1241.62 18.8422L1283.11 64.75ZM1335.22 30.9605L1335.79 63.8305L1325.29 64.0137L1323.73 -25.5976L1348.35 -26.0274C1357.93 -26.1946 1365.39 -23.9286 1370.72 -19.2293C1376.09 -14.5724 1378.86 -7.93208 1379.01 0.69161C1379.16 9.3153 1376.34 16.4488 1370.57 22.0922C1364.83 27.6931 1356.98 30.5805 1347.03 30.7543L1335.22 30.9605ZM1334.39 -16.2823L1335.05 21.4619L1346.05 21.2699C1353.3 21.1434 1358.79 19.339 1362.52 15.8567C1366.29 12.3736 1368.13 7.54924 1368.02 1.38351C1367.91 -4.6989 1366.08 -9.23016 1362.53 -12.2103C1358.98 -15.1904 1353.7 -16.6194 1346.7 -16.4972L1334.39 -16.2823ZM1443.27 61.9543L1395.78 62.7833L1394.22 -26.828L1439.71 -27.6221L1439.88 -18.1236L1404.88 -17.5127L1405.4 12.2952L1437.77 11.7302L1437.94 21.1663L1405.57 21.7313L1406.11 53.1015L1443.11 52.4558L1443.27 61.9543ZM1449.15 61.8518L1481.95 -28.3595L1492.83 -28.5493L1528.89 60.46L1517.26 60.6629L1507.78 36.8872L1468.98 37.5645L1460.83 61.6478L1449.15 61.8518ZM1472.31 28.0049L1504.18 27.4486L1489 -11.2924C1488.7 -12.0789 1488.46 -12.7414 1488.28 -13.2801C1488.1 -13.8188 1487.86 -14.5647 1487.55 -15.5177L1487.3 -15.5134C1486.99 -14.5494 1486.75 -13.7743 1486.59 -13.1881C1486.44 -12.6437 1486.22 -11.9939 1485.94 -11.2389L1472.31 28.0049ZM1602.94 59.1674L1588.75 59.415L1553.42 19.0255C1552.78 18.2449 1552.25 17.6083 1551.82 17.1156C1551.44 16.5806 1551.16 16.1895 1550.99 15.9425L1550.74 15.9468L1551.51 60.0651L1541.01 60.2484L1539.44 -29.363L1549.94 -29.5462L1550.68 12.5723L1550.93 12.568C1551.21 12.1046 1551.54 11.6197 1551.9 11.1133C1552.31 10.5644 1552.76 10.0148 1553.25 9.4645L1586.75 -30.1887L1599.12 -30.4047L1561.44 13.2596L1602.94 59.1674ZM1677.05 57.8737L1662.87 58.1214L1627.53 17.7319C1626.89 16.9512 1626.36 16.3146 1625.93 15.822C1625.55 15.2869 1625.27 14.8959 1625.1 14.6488L1624.85 14.6532L1625.62 58.7715L1615.12 58.9547L1613.56 -30.6566L1624.06 -30.8399L1624.79 11.2787L1625.04 11.2743C1625.33 10.811 1625.65 10.3261 1626.02 9.81959C1626.42 9.27074 1626.87 8.72115 1627.36 8.17084L1660.86 -31.4824L1673.24 -31.6983L1635.56 11.9659L1677.05 57.8737ZM1729.16 24.0842L1729.73 56.9542L1719.23 57.1375L1717.67 -32.4739L1742.29 -32.9036C1751.87 -33.0709 1759.33 -30.8049 1764.66 -26.1056C1770.03 -21.4486 1772.8 -14.8083 1772.95 -6.18464C1773.1 2.43905 1770.28 9.57257 1764.51 15.2159C1758.77 20.8169 1750.92 23.7043 1740.97 23.8781L1729.16 24.0842ZM1728.33 -23.1586L1728.99 14.5857L1739.99 14.3937C1747.24 14.2672 1752.73 12.4627 1756.46 8.98042C1760.23 5.49738 1762.07 0.67299 1761.96 -5.49274C1761.85 -11.5751 1760.02 -16.1064 1756.47 -19.0865C1752.92 -22.0666 1747.64 -23.4956 1740.64 -23.3735L1728.33 -23.1586ZM1837.21 55.0781L1789.72 55.9071L1788.16 -33.7043L1833.65 -34.4984L1833.82 -24.9998L1798.82 -24.389L1799.34 5.41899L1831.71 4.85397L1831.88 14.29L1799.51 14.8551L1800.05 46.2253L1837.05 45.5795L1837.21 55.0781ZM1843.09 54.9756L1875.89 -35.2357L1886.77 -35.4255L1922.83 53.5837L1911.2 53.7866L1901.72 30.0109L1862.92 30.6883L1854.77 54.7716L1843.09 54.9756ZM1866.25 21.1287L1898.12 20.5724L1882.94 -18.1686C1882.64 -18.9551 1882.4 -19.6177 1882.22 -20.1563C1882.04 -20.695 1881.8 -21.4409 1881.49 -22.394L1881.24 -22.3896C1880.93 -21.4256 1880.69 -20.6506 1880.53 -20.0644C1880.38 -19.5199 1880.16 -18.8702 1879.88 -18.1152L1866.25 21.1287ZM1996.88 52.2912L1982.69 52.5388L1947.36 12.1493C1946.72 11.3687 1946.19 10.732 1945.76 10.2394C1945.38 9.70432 1945.1 9.31328 1944.93 9.06622L1944.68 9.07059L1945.45 53.1889L1934.95 53.3721L1933.38 -36.2392L1943.88 -36.4225L1944.62 5.6961L1944.87 5.69174C1945.15 5.22838 1945.48 4.74347 1945.84 4.237C1946.25 3.68815 1946.7 3.13856 1947.19 2.58825L1980.69 -37.065L1993.06 -37.2809L1955.38 6.38335L1996.88 52.2912ZM2070.99 50.9975L2056.81 51.2451L2021.47 10.8556C2020.83 10.075 2020.3 9.43835 2019.87 8.9457C2019.49 8.41066 2019.21 8.01962 2019.04 7.77256L2018.79 7.77693L2019.56 51.8952L2009.06 52.0785L2007.5 -37.5329L2018 -37.7161L2018.73 4.40244L2018.98 4.39808C2019.27 3.93472 2019.59 3.44981 2019.96 2.94334C2020.36 2.39449 2020.81 1.8449 2021.3 1.29459L2054.8 -38.3586L2067.18 -38.5746L2029.5 5.08969L2070.99 50.9975ZM-237.577 228.44L-237.003 261.31L-247.501 261.493L-249.066 171.881L-224.444 171.452C-214.862 171.284 -207.405 173.55 -202.072 178.25C-196.698 182.907 -193.936 189.547 -193.786 198.171C-193.635 206.794 -196.449 213.928 -202.226 219.571C-207.963 225.172 -215.809 228.06 -225.766 228.233L-237.577 228.44ZM-238.401 181.197L-237.742 218.941L-226.744 218.749C-219.495 218.623 -214.005 216.818 -210.274 213.336C-206.501 209.853 -204.668 205.028 -204.775 198.863C-204.882 192.78 -206.711 188.249 -210.263 185.269C-213.816 182.289 -219.092 180.86 -226.091 180.982L-238.401 181.197ZM-129.519 259.433L-177.012 260.262L-178.576 170.651L-133.083 169.857L-132.917 179.356L-167.912 179.966L-167.392 209.774L-135.022 209.209L-134.857 218.645L-167.227 219.21L-166.679 250.581L-129.685 249.935L-129.519 259.433ZM-123.645 259.331L-90.8396 169.12L-79.9663 168.93L-43.9074 257.939L-55.5306 258.142L-65.0095 234.366L-103.816 235.044L-111.959 259.127L-123.645 259.331ZM-100.482 225.484L-68.6123 224.928L-83.7907 186.187C-84.0961 185.4 -84.3369 184.738 -84.513 184.199C-84.6891 183.66 -84.9313 182.914 -85.2397 181.961L-85.4896 181.966C-85.8062 182.93 -86.0427 183.705 -86.1991 184.291C-86.3563 184.835 -86.5742 185.485 -86.8527 186.24L-100.482 225.484ZM30.1439 256.647L15.9585 256.894L-19.3768 216.505C-20.0155 215.724 -20.5475 215.087 -20.9728 214.595C-21.3572 214.06 -21.6349 213.669 -21.8059 213.422L-22.0559 213.426L-21.2858 257.544L-31.7842 257.727L-33.3484 168.116L-22.85 167.933L-22.1148 210.051L-21.8648 210.047C-21.5812 209.584 -21.2563 209.099 -20.8901 208.592C-20.4829 208.043 -20.0341 207.494 -19.5436 206.944L13.9569 167.29L26.33 167.074L-11.3512 210.739L30.1439 256.647ZM104.258 255.353L90.0722 255.6L54.737 215.211C54.0982 214.43 53.5662 213.794 53.1409 213.301C52.7565 212.766 52.4788 212.375 52.3078 212.128L52.0578 212.132L52.8279 256.251L42.3295 256.434L40.7653 166.822L51.2637 166.639L51.9989 208.758L52.2489 208.753C52.5325 208.29 52.8574 207.805 53.2236 207.299C53.6308 206.75 54.0796 206.2 54.5701 205.65L88.0706 165.997L100.444 165.781L62.7625 209.445L104.258 255.353ZM156.363 221.563L156.937 254.433L146.439 254.617L144.874 165.005L169.496 164.575C179.078 164.408 186.535 166.674 191.868 171.374C197.242 176.03 200.004 182.671 200.154 191.294C200.305 199.918 197.491 207.052 191.714 212.695C185.977 218.296 178.131 221.183 168.174 221.357L156.363 221.563ZM155.539 174.321L156.197 212.065L167.196 211.873C174.445 211.746 179.935 209.942 183.666 206.46C187.439 202.976 189.272 198.152 189.165 191.986C189.058 185.904 187.229 181.373 183.677 178.393C180.124 175.412 174.848 173.983 167.849 174.106L155.539 174.321ZM264.421 252.557L216.928 253.386L215.364 163.775L260.857 162.981L261.023 172.479L226.028 173.09L226.548 202.898L258.918 202.333L259.083 211.769L226.713 212.334L227.261 243.704L264.255 243.059L264.421 252.557ZM270.295 252.455L303.1 162.243L313.974 162.054L350.033 251.063L338.409 251.266L328.931 227.49L290.124 228.167L281.98 252.251L270.295 252.455ZM293.458 218.608L325.328 218.051L310.149 179.31C309.844 178.524 309.603 177.861 309.427 177.323C309.251 176.784 309.009 176.038 308.7 175.085L308.45 175.089C308.134 176.053 307.897 176.829 307.741 177.415C307.584 177.959 307.366 178.609 307.087 179.364L293.458 218.608ZM424.084 249.77L409.899 250.018L374.563 209.628C373.925 208.848 373.392 208.211 372.967 207.718C372.583 207.183 372.305 206.792 372.134 206.545L371.884 206.55L372.654 250.668L362.156 250.851L360.592 161.24L371.09 161.057L371.825 203.175L372.075 203.171C372.359 202.707 372.684 202.223 373.05 201.716C373.457 201.167 373.906 200.618 374.396 200.067L407.897 160.414L420.27 160.198L382.589 203.862L424.084 249.77ZM498.198 248.477L484.012 248.724L448.677 208.335C448.038 207.554 447.506 206.917 447.081 206.425C446.696 205.89 446.419 205.499 446.248 205.252L445.998 205.256L446.768 249.374L436.269 249.558L434.705 159.946L445.204 159.763L445.939 201.882L446.189 201.877C446.472 201.414 446.797 200.929 447.164 200.422C447.571 199.874 448.02 199.324 448.51 198.774L482.011 159.12L494.384 158.905L456.703 202.569L498.198 248.477ZM550.303 214.687L550.877 247.557L540.379 247.74L538.814 158.129L563.436 157.699C573.018 157.532 580.475 159.798 585.808 164.497C591.182 169.154 593.944 175.795 594.094 184.418C594.245 193.042 591.431 200.175 585.654 205.819C579.917 211.42 572.071 214.307 562.114 214.481L550.303 214.687ZM549.479 167.444L550.137 205.189L561.136 204.997C568.385 204.87 573.875 203.066 577.606 199.583C581.379 196.1 583.212 191.276 583.105 185.11C582.998 179.028 581.169 174.496 577.617 171.516C574.064 168.536 568.788 167.107 561.789 167.229L549.479 167.444ZM658.361 245.681L610.868 246.51L609.304 156.899L654.797 156.104L654.963 165.603L619.968 166.214L620.488 196.022L652.858 195.457L653.023 204.893L620.653 205.458L621.201 236.828L658.195 236.182L658.361 245.681ZM664.235 245.578L697.04 155.367L707.914 155.177L743.973 244.187L732.349 244.389L722.871 220.614L684.064 221.291L675.92 245.374L664.235 245.578ZM687.398 211.732L719.268 211.175L704.089 172.434C703.784 171.648 703.543 170.985 703.367 170.447C703.191 169.908 702.949 169.162 702.64 168.209L702.39 168.213C702.074 169.177 701.837 169.952 701.681 170.538C701.524 171.083 701.306 171.733 701.027 172.488L687.398 211.732ZM818.024 242.894L803.839 243.142L768.503 202.752C767.865 201.972 767.332 201.335 766.907 200.842C766.523 200.307 766.245 199.916 766.074 199.669L765.824 199.673L766.594 243.792L756.096 243.975L754.532 154.364L765.03 154.18L765.765 196.299L766.015 196.295C766.299 195.831 766.624 195.346 766.99 194.84C767.397 194.291 767.846 193.741 768.336 193.191L801.837 153.538L814.21 153.322L776.529 196.986L818.024 242.894ZM892.138 241.6L877.952 241.848L842.617 201.458C841.978 200.678 841.446 200.041 841.021 199.549C840.636 199.014 840.359 198.622 840.188 198.375L839.938 198.38L840.708 242.498L830.209 242.681L828.645 153.07L839.144 152.887L839.879 195.005L840.129 195.001C840.412 194.538 840.737 194.053 841.104 193.546C841.511 192.997 841.96 192.448 842.45 191.897L875.951 152.244L888.324 152.028L850.643 195.693L892.138 241.6ZM944.243 207.811L944.817 240.681L934.319 240.864L932.754 151.253L957.376 150.823C966.958 150.656 974.415 152.922 979.748 157.621C985.122 162.278 987.884 168.918 988.034 177.542C988.185 186.166 985.371 193.299 979.594 198.943C973.857 204.544 966.011 207.431 956.054 207.605L944.243 207.811ZM943.419 160.568L944.077 198.312L955.076 198.12C962.325 197.994 967.815 196.189 971.546 192.707C975.319 189.224 977.152 184.4 977.045 178.234C976.938 172.151 975.109 167.62 971.557 164.64C968.004 161.66 962.728 160.231 955.729 160.353L943.419 160.568ZM1052.3 238.805L1004.81 239.634L1003.24 150.022L1048.74 149.228L1048.9 158.727L1013.91 159.338L1014.43 189.146L1046.8 188.581L1046.96 198.017L1014.59 198.582L1015.14 229.952L1052.13 229.306L1052.3 238.805ZM1058.17 238.702L1090.98 148.491L1101.85 148.301L1137.91 237.31L1126.29 237.513L1116.81 213.738L1078 214.415L1069.86 238.498L1058.17 238.702ZM1081.34 204.855L1113.21 204.299L1098.03 165.558C1097.72 164.772 1097.48 164.109 1097.31 163.57C1097.13 163.032 1096.89 162.286 1096.58 161.333L1096.33 161.337C1096.01 162.301 1095.78 163.076 1095.62 163.662C1095.46 164.207 1095.25 164.856 1094.97 165.611L1081.34 204.855ZM1211.96 236.018L1197.78 236.265L1162.44 195.876C1161.8 195.095 1161.27 194.459 1160.85 193.966C1160.46 193.431 1160.19 193.04 1160.01 192.793L1159.76 192.797L1160.53 236.915L1150.04 237.099L1148.47 147.487L1158.97 147.304L1159.71 189.423L1159.96 189.418C1160.24 188.955 1160.56 188.47 1160.93 187.964C1161.34 187.415 1161.79 186.865 1162.28 186.315L1195.78 146.662L1208.15 146.446L1170.47 190.11L1211.96 236.018ZM1286.08 234.724L1271.89 234.972L1236.56 194.582C1235.92 193.802 1235.39 193.165 1234.96 192.672C1234.58 192.137 1234.3 191.746 1234.13 191.499L1233.88 191.504L1234.65 235.622L1224.15 235.805L1222.59 146.194L1233.08 146.01L1233.82 188.129L1234.07 188.125C1234.35 187.661 1234.68 187.176 1235.04 186.67C1235.45 186.121 1235.9 185.572 1236.39 185.021L1269.89 145.368L1282.26 145.152L1244.58 188.816L1286.08 234.724ZM1338.18 200.935L1338.76 233.805L1328.26 233.988L1326.69 144.376L1351.32 143.947C1360.9 143.779 1368.35 146.045 1373.69 150.745C1379.06 155.402 1381.82 162.042 1381.97 170.666C1382.12 179.289 1379.31 186.423 1373.53 192.066C1367.8 197.667 1359.95 200.555 1349.99 200.728L1338.18 200.935ZM1337.36 153.692L1338.02 191.436L1349.02 191.244C1356.26 191.118 1361.75 189.313 1365.49 185.831C1369.26 182.348 1371.09 177.523 1370.98 171.358C1370.88 165.275 1369.05 160.744 1365.5 157.764C1361.94 154.784 1356.67 153.355 1349.67 153.477L1337.36 153.692ZM1446.24 231.928L1398.75 232.757L1397.18 143.146L1442.68 142.352L1442.84 151.851L1407.85 152.461L1408.37 182.269L1440.74 181.704L1440.9 191.14L1408.53 191.705L1409.08 223.076L1446.07 222.43L1446.24 231.928ZM1452.11 231.826L1484.92 141.615L1495.79 141.425L1531.85 230.434L1520.23 230.637L1510.75 206.861L1471.94 207.539L1463.8 231.622L1452.11 231.826ZM1475.28 197.979L1507.15 197.423L1491.97 158.682C1491.66 157.895 1491.42 157.233 1491.25 156.694C1491.07 156.155 1490.83 155.409 1490.52 154.456L1490.27 154.461C1489.95 155.425 1489.72 156.2 1489.56 156.786C1489.4 157.33 1489.19 157.98 1488.91 158.735L1475.28 197.979ZM1605.9 229.142L1591.72 229.389L1556.38 189C1555.74 188.219 1555.21 187.582 1554.79 187.09C1554.4 186.555 1554.13 186.164 1553.95 185.917L1553.7 185.921L1554.47 230.039L1543.98 230.222L1542.41 140.611L1552.91 140.428L1553.65 182.546L1553.9 182.542C1554.18 182.079 1554.5 181.594 1554.87 181.087C1555.28 180.539 1555.73 179.989 1556.22 179.439L1589.72 139.785L1602.09 139.569L1564.41 183.234L1605.9 229.142ZM1680.02 227.848L1665.83 228.095L1630.5 187.706C1629.86 186.925 1629.33 186.289 1628.9 185.796C1628.52 185.261 1628.24 184.87 1628.07 184.623L1627.82 184.627L1628.59 228.746L1618.09 228.929L1616.53 139.317L1627.02 139.134L1627.76 181.253L1628.01 181.248C1628.29 180.785 1628.62 180.3 1628.98 179.794C1629.39 179.245 1629.84 178.695 1630.33 178.145L1663.83 138.492L1676.2 138.276L1638.52 181.94L1680.02 227.848ZM1732.12 194.058L1732.7 226.928L1722.2 227.112L1720.63 137.5L1745.26 137.07C1754.84 136.903 1762.29 139.169 1767.63 143.869C1773 148.525 1775.76 155.166 1775.91 163.789C1776.06 172.413 1773.25 179.547 1767.47 185.19C1761.74 190.791 1753.89 193.678 1743.93 193.852L1732.12 194.058ZM1731.3 146.816L1731.96 184.56L1742.96 184.368C1750.2 184.241 1755.69 182.437 1759.43 178.955C1763.2 175.471 1765.03 170.647 1764.92 164.481C1764.82 158.399 1762.99 153.868 1759.44 150.888C1755.88 147.907 1750.61 146.478 1743.61 146.601L1731.3 146.816ZM1840.18 225.052L1792.69 225.881L1791.12 136.27L1836.62 135.476L1836.78 144.974L1801.79 145.585L1802.31 175.393L1834.68 174.828L1834.84 184.264L1802.47 184.829L1803.02 216.199L1840.01 215.554L1840.18 225.052ZM1846.05 224.95L1878.86 134.738L1889.73 134.549L1925.79 223.558L1914.17 223.761L1904.69 199.985L1865.88 200.662L1857.74 224.746L1846.05 224.95ZM1869.22 191.103L1901.09 190.546L1885.91 151.805C1885.6 151.019 1885.36 150.356 1885.19 149.818C1885.01 149.279 1884.77 148.533 1884.46 147.58L1884.21 147.584C1883.89 148.548 1883.66 149.324 1883.5 149.91C1883.34 150.454 1883.13 151.104 1882.85 151.859L1869.22 191.103ZM1999.84 222.265L1985.66 222.513L1950.32 182.123C1949.68 181.343 1949.15 180.706 1948.73 180.213C1948.34 179.678 1948.07 179.287 1947.89 179.04L1947.64 179.045L1948.41 223.163L1937.92 223.346L1936.35 133.735L1946.85 133.552L1947.59 175.67L1947.84 175.666C1948.12 175.202 1948.44 174.718 1948.81 174.211C1949.22 173.662 1949.67 173.113 1950.16 172.562L1983.66 132.909L1996.03 132.693L1958.35 176.357L1999.84 222.265ZM2073.96 220.972L2059.77 221.219L2024.44 180.83C2023.8 180.049 2023.27 179.412 2022.84 178.92C2022.46 178.385 2022.18 177.994 2022.01 177.747L2021.76 177.751L2022.53 221.869L2012.03 222.053L2010.47 132.441L2020.96 132.258L2021.7 174.377L2021.95 174.372C2022.23 173.909 2022.56 173.424 2022.92 172.917C2023.33 172.369 2023.78 171.819 2024.27 171.269L2057.77 131.615L2070.14 131.4L2032.46 175.064L2073.96 220.972ZM-234.61 398.414L-234.036 431.284L-244.534 431.467L-246.099 341.856L-221.477 341.426C-211.895 341.259 -204.438 343.525 -199.105 348.224C-193.732 352.881 -190.969 359.521 -190.819 368.145C-190.668 376.769 -193.482 383.902 -199.259 389.545C-204.996 395.146 -212.842 398.034 -222.799 398.208L-234.61 398.414ZM-235.434 351.171L-234.776 388.915L-223.777 388.723C-216.528 388.597 -211.038 386.792 -207.307 383.31C-203.534 379.827 -201.701 375.002 -201.808 368.837C-201.915 362.754 -203.744 358.223 -207.297 355.243C-210.849 352.263 -216.125 350.834 -223.124 350.956L-235.434 351.171ZM-126.552 429.408L-174.045 430.237L-175.609 340.625L-130.116 339.831L-129.95 349.33L-164.945 349.94L-164.425 379.748L-132.055 379.183L-131.89 388.619L-164.26 389.185L-163.713 420.555L-126.718 419.909L-126.552 429.408ZM-120.678 429.305L-87.8727 339.094L-76.9994 338.904L-40.9405 427.913L-52.5637 428.116L-62.0426 404.34L-100.849 405.018L-108.993 429.101L-120.678 429.305ZM-97.5155 395.458L-65.6453 394.902L-80.8238 356.161C-81.1292 355.374 -81.37 354.712 -81.5461 354.173C-81.7222 353.634 -81.9644 352.889 -82.2727 351.935L-82.5227 351.94C-82.8393 352.904 -83.0758 353.679 -83.2322 354.265C-83.3894 354.81 -83.6073 355.459 -83.8858 356.214L-97.5155 395.458ZM33.1108 426.621L18.9254 426.868L-16.4098 386.479C-17.0486 385.698 -17.5806 385.061 -18.0059 384.569C-18.3903 384.034 -18.668 383.643 -18.839 383.396L-19.089 383.4L-18.3189 427.518L-28.8173 427.702L-30.3815 338.09L-19.8831 337.907L-19.1479 380.026L-18.8979 380.021C-18.6143 379.558 -18.2894 379.073 -17.9232 378.566C-17.516 378.018 -17.0672 377.468 -16.5767 376.918L16.9238 337.265L29.2969 337.049L-8.38426 380.713L33.1108 426.621ZM107.224 425.327L93.0391 425.575L57.7039 385.185C57.0651 384.404 56.5331 383.768 56.1078 383.275C55.7234 382.74 55.4457 382.349 55.2747 382.102L55.0247 382.106L55.7948 426.225L45.2964 426.408L43.7322 336.797L54.2306 336.613L54.9658 378.732L55.2158 378.728C55.4994 378.264 55.8243 377.779 56.1905 377.273C56.5977 376.724 57.0465 376.174 57.537 375.624L91.0375 335.971L103.411 335.755L65.7295 379.419L107.224 425.327ZM159.33 391.537L159.904 424.407L149.406 424.591L147.841 334.979L172.463 334.55C182.045 334.382 189.502 336.648 194.835 341.348C200.208 346.005 202.971 352.645 203.121 361.269C203.272 369.892 200.458 377.026 194.681 382.669C188.944 388.27 181.098 391.157 171.141 391.331L159.33 391.537ZM158.506 344.295L159.164 382.039L170.163 381.847C177.412 381.72 182.902 379.916 186.633 376.434C190.406 372.951 192.239 368.126 192.132 361.96C192.025 355.878 190.196 351.347 186.643 348.367C183.091 345.387 177.815 343.958 170.816 344.08L158.506 344.295ZM267.388 422.531L219.895 423.36L218.331 333.749L263.824 332.955L263.99 342.453L228.995 343.064L229.515 372.872L261.885 372.307L262.05 381.743L229.68 382.308L230.227 413.678L267.222 413.033L267.388 422.531ZM273.262 422.429L306.067 332.217L316.941 332.028L353 421.037L341.376 421.24L331.897 397.464L293.091 398.142L284.947 422.225L273.262 422.429ZM296.425 388.582L328.295 388.026L313.116 349.285C312.811 348.498 312.57 347.836 312.394 347.297C312.218 346.758 311.976 346.012 311.667 345.059L311.417 345.064C311.101 346.028 310.864 346.803 310.708 347.389C310.551 347.933 310.333 348.583 310.054 349.338L296.425 388.582ZM427.051 419.744L412.865 419.992L377.53 379.603C376.891 378.822 376.359 378.185 375.934 377.693C375.55 377.158 375.272 376.766 375.101 376.519L374.851 376.524L375.621 420.642L365.123 420.825L363.559 331.214L374.057 331.031L374.792 373.149L375.042 373.145C375.326 372.682 375.651 372.197 376.017 371.69C376.424 371.141 376.873 370.592 377.363 370.041L410.864 330.388L423.237 330.172L385.556 373.837L427.051 419.744ZM501.164 418.451L486.979 418.698L451.644 378.309C451.005 377.528 450.473 376.892 450.048 376.399C449.663 375.864 449.386 375.473 449.215 375.226L448.965 375.23L449.735 419.348L439.236 419.532L437.672 329.92L448.171 329.737L448.906 371.856L449.156 371.851C449.439 371.388 449.764 370.903 450.131 370.397C450.538 369.848 450.987 369.298 451.477 368.748L484.978 329.095L497.351 328.879L459.669 372.543L501.164 418.451ZM553.27 384.661L553.844 417.531L543.346 417.714L541.781 328.103L566.403 327.673C575.985 327.506 583.442 329.772 588.775 334.471C594.148 339.128 596.911 345.769 597.061 354.392C597.212 363.016 594.398 370.15 588.621 375.793C582.884 381.394 575.038 384.281 565.081 384.455L553.27 384.661ZM552.446 337.418L553.104 375.163L564.103 374.971C571.352 374.844 576.842 373.04 580.573 369.557C584.346 366.074 586.179 361.25 586.072 355.084C585.965 349.002 584.136 344.471 580.583 341.49C577.031 338.51 571.755 337.081 564.756 337.204L552.446 337.418ZM661.328 415.655L613.835 416.484L612.271 326.873L657.764 326.079L657.93 335.577L622.935 336.188L623.455 365.996L655.825 365.431L655.99 374.867L623.62 375.432L624.167 406.802L661.162 406.157L661.328 415.655ZM667.202 415.553L700.007 325.341L710.881 325.151L746.94 414.161L735.316 414.364L725.837 390.588L687.031 391.265L678.887 415.349L667.202 415.553ZM690.365 381.706L722.235 381.149L707.056 342.408C706.751 341.622 706.51 340.959 706.334 340.421C706.158 339.882 705.916 339.136 705.607 338.183L705.357 338.187C705.041 339.151 704.804 339.926 704.648 340.513C704.491 341.057 704.273 341.707 703.994 342.462L690.365 381.706ZM820.991 412.868L806.805 413.116L771.47 372.726C770.831 371.946 770.299 371.309 769.874 370.816C769.49 370.281 769.212 369.89 769.041 369.643L768.791 369.648L769.561 413.766L759.063 413.949L757.499 324.338L767.997 324.154L768.732 366.273L768.982 366.269C769.266 365.805 769.591 365.32 769.957 364.814C770.364 364.265 770.813 363.716 771.303 363.165L804.804 323.512L817.177 323.296L779.496 366.96L820.991 412.868ZM895.104 411.574L880.919 411.822L845.584 371.433C844.945 370.652 844.413 370.015 843.988 369.523C843.603 368.988 843.326 368.597 843.155 368.35L842.905 368.354L843.675 412.472L833.176 412.655L831.612 323.044L842.111 322.861L842.846 364.979L843.096 364.975C843.379 364.512 843.704 364.027 844.071 363.52C844.478 362.971 844.926 362.422 845.417 361.872L878.918 322.218L891.291 322.002L853.609 365.667L895.104 411.574ZM947.21 377.785L947.784 410.655L937.286 410.838L935.721 321.227L960.343 320.797C969.925 320.63 977.382 322.896 982.715 327.595C988.088 332.252 990.851 338.892 991.001 347.516C991.152 356.14 988.338 363.273 982.561 368.917C976.824 374.518 968.978 377.405 959.021 377.579L947.21 377.785ZM946.386 330.542L947.044 368.286L958.043 368.094C965.292 367.968 970.782 366.163 974.513 362.681C978.286 359.198 980.119 354.374 980.012 348.208C979.905 342.126 978.076 337.594 974.523 334.614C970.971 331.634 965.695 330.205 958.696 330.327L946.386 330.542ZM1055.27 408.779L1007.77 409.608L1006.21 319.996L1051.7 319.202L1051.87 328.701L1016.87 329.312L1017.4 359.12L1049.77 358.555L1049.93 367.991L1017.56 368.556L1018.11 399.926L1055.1 399.28L1055.27 408.779ZM1061.14 408.676L1093.95 318.465L1104.82 318.275L1140.88 407.284L1129.26 407.487L1119.78 383.712L1080.97 384.389L1072.83 408.472L1061.14 408.676ZM1084.3 374.829L1116.17 374.273L1101 335.532C1100.69 334.746 1100.45 334.083 1100.27 333.544C1100.1 333.006 1099.86 332.26 1099.55 331.307L1099.3 331.311C1098.98 332.275 1098.74 333.05 1098.59 333.636C1098.43 334.181 1098.21 334.831 1097.93 335.586L1084.3 374.829ZM1214.93 405.992L1200.75 406.239L1165.41 365.85C1164.77 365.069 1164.24 364.433 1163.81 363.94C1163.43 363.405 1163.15 363.014 1162.98 362.767L1162.73 362.771L1163.5 406.89L1153 407.073L1151.44 317.461L1161.94 317.278L1162.67 359.397L1162.92 359.392C1163.21 358.929 1163.53 358.444 1163.9 357.938C1164.3 357.389 1164.75 356.839 1165.24 356.289L1198.74 316.636L1211.12 316.42L1173.44 360.084L1214.93 405.992ZM1289.04 404.698L1274.86 404.946L1239.52 364.556C1238.89 363.776 1238.35 363.139 1237.93 362.646C1237.54 362.111 1237.27 361.72 1237.09 361.473L1236.84 361.478L1237.61 405.596L1227.12 405.779L1225.55 316.168L1236.05 315.985L1236.79 358.103L1237.04 358.099C1237.32 357.635 1237.64 357.151 1238.01 356.644C1238.42 356.095 1238.87 355.546 1239.36 354.995L1272.86 315.342L1285.23 315.126L1247.55 358.79L1289.04 404.698ZM1341.15 370.909L1341.72 403.779L1331.23 403.962L1329.66 314.351L1354.28 313.921C1363.86 313.754 1371.32 316.02 1376.65 320.719C1382.03 325.376 1384.79 332.016 1384.94 340.64C1385.09 349.264 1382.28 356.397 1376.5 362.04C1370.76 367.641 1362.92 370.529 1352.96 370.703L1341.15 370.909ZM1340.33 323.666L1340.98 361.41L1351.98 361.218C1359.23 361.092 1364.72 359.287 1368.45 355.805C1372.23 352.322 1374.06 347.497 1373.95 341.332C1373.85 335.249 1372.02 330.718 1368.46 327.738C1364.91 324.758 1359.64 323.329 1352.64 323.451L1340.33 323.666ZM1449.21 401.903L1401.71 402.732L1400.15 313.12L1445.64 312.326L1445.81 321.825L1410.81 322.436L1411.34 352.243L1443.71 351.678L1443.87 361.115L1411.5 361.68L1412.05 393.05L1449.04 392.404L1449.21 401.903ZM1455.08 401.8L1487.89 311.589L1498.76 311.399L1534.82 400.408L1523.2 400.611L1513.72 376.835L1474.91 377.513L1466.77 401.596L1455.08 401.8ZM1478.24 367.953L1510.11 367.397L1494.94 328.656C1494.63 327.869 1494.39 327.207 1494.21 326.668C1494.04 326.129 1493.8 325.384 1493.49 324.43L1493.24 324.435C1492.92 325.399 1492.68 326.174 1492.53 326.76C1492.37 327.305 1492.15 327.954 1491.87 328.709L1478.24 367.953ZM1608.87 399.116L1594.69 399.363L1559.35 358.974C1558.71 358.193 1558.18 357.556 1557.75 357.064C1557.37 356.529 1557.09 356.138 1556.92 355.891L1556.67 355.895L1557.44 400.013L1546.94 400.197L1545.38 310.585L1555.88 310.402L1556.61 352.521L1556.86 352.516C1557.15 352.053 1557.47 351.568 1557.84 351.061C1558.24 350.513 1558.69 349.963 1559.18 349.413L1592.68 309.76L1605.06 309.544L1567.38 353.208L1608.87 399.116ZM1682.98 397.822L1668.8 398.07L1633.46 357.68C1632.83 356.899 1632.29 356.263 1631.87 355.77C1631.48 355.235 1631.21 354.844 1631.03 354.597L1630.78 354.601L1631.55 398.72L1621.06 398.903L1619.49 309.292L1629.99 309.108L1630.73 351.227L1630.98 351.223C1631.26 350.759 1631.58 350.274 1631.95 349.768C1632.36 349.219 1632.81 348.669 1633.3 348.119L1666.8 308.466L1679.17 308.25L1641.49 351.914L1682.98 397.822ZM1735.09 364.032L1735.66 396.902L1725.17 397.086L1723.6 307.474L1748.22 307.045C1757.8 306.877 1765.26 309.143 1770.59 313.843C1775.97 318.5 1778.73 325.14 1778.88 333.764C1779.03 342.387 1776.22 349.521 1770.44 355.164C1764.7 360.765 1756.86 363.652 1746.9 363.826L1735.09 364.032ZM1734.27 316.79L1734.92 354.534L1745.92 354.342C1753.17 354.215 1758.66 352.411 1762.39 348.929C1766.17 345.446 1768 340.621 1767.89 334.455C1767.79 328.373 1765.96 323.842 1762.4 320.862C1758.85 317.882 1753.58 316.453 1746.58 316.575L1734.27 316.79ZM1843.15 395.026L1795.65 395.855L1794.09 306.244L1839.58 305.45L1839.75 314.948L1804.75 315.559L1805.28 345.367L1837.65 344.802L1837.81 354.238L1805.44 354.803L1805.99 386.173L1842.98 385.528L1843.15 395.026ZM1849.02 394.924L1881.83 304.713L1892.7 304.523L1928.76 393.532L1917.14 393.735L1907.66 369.959L1868.85 370.637L1860.71 394.72L1849.02 394.924ZM1872.18 361.077L1904.05 360.521L1888.88 321.78C1888.57 320.993 1888.33 320.331 1888.15 319.792C1887.98 319.253 1887.74 318.507 1887.43 317.554L1887.18 317.559C1886.86 318.523 1886.62 319.298 1886.47 319.884C1886.31 320.428 1886.09 321.078 1885.81 321.833L1872.18 361.077ZM2002.81 392.239L1988.63 392.487L1953.29 352.098C1952.65 351.317 1952.12 350.68 1951.69 350.188C1951.31 349.653 1951.03 349.261 1950.86 349.014L1950.61 349.019L1951.38 393.137L1940.88 393.32L1939.32 303.709L1949.82 303.526L1950.55 345.644L1950.8 345.64C1951.09 345.177 1951.41 344.692 1951.78 344.185C1952.18 343.636 1952.63 343.087 1953.12 342.536L1986.62 302.883L1999 302.667L1961.32 346.332L2002.81 392.239ZM2076.92 390.946L2062.74 391.193L2027.4 350.804C2026.77 350.023 2026.23 349.387 2025.81 348.894C2025.42 348.359 2025.15 347.968 2024.97 347.721L2024.72 347.725L2025.49 391.843L2015 392.027L2013.43 302.415L2023.93 302.232L2024.67 344.351L2024.92 344.346C2025.2 343.883 2025.52 343.398 2025.89 342.892C2026.3 342.343 2026.75 341.793 2027.24 341.243L2060.74 301.59L2073.11 301.374L2035.43 345.038L2076.92 390.946ZM-231.643 568.388L-231.069 601.258L-241.568 601.441L-243.132 511.83L-218.51 511.4C-208.929 511.233 -201.471 513.499 -196.138 518.198C-190.765 522.855 -188.003 529.495 -187.852 538.119C-187.701 546.743 -190.515 553.876 -196.292 559.519C-202.029 565.12 -209.875 568.008 -219.832 568.182L-231.643 568.388ZM-232.468 521.145L-231.809 558.889L-220.81 558.697C-213.561 558.571 -208.071 556.766 -204.34 553.284C-200.567 549.801 -198.734 544.977 -198.842 538.811C-198.948 532.728 -200.777 528.197 -204.33 525.217C-207.882 522.237 -213.158 520.808 -220.157 520.93L-232.468 521.145ZM-123.586 599.382L-171.078 600.211L-172.642 510.599L-127.149 509.805L-126.984 519.304L-161.978 519.915L-161.458 549.723L-129.088 549.158L-128.923 558.594L-161.293 559.159L-160.746 590.529L-123.751 589.883L-123.586 599.382ZM-117.711 599.279L-84.9058 509.068L-74.0325 508.878L-37.9735 597.887L-49.5968 598.09L-59.0757 574.314L-97.8823 574.992L-106.026 599.075L-117.711 599.279ZM-94.5486 565.432L-62.6784 564.876L-77.8569 526.135C-78.1623 525.348 -78.4031 524.686 -78.5792 524.147C-78.7553 523.609 -78.9975 522.863 -79.3058 521.91L-79.5558 521.914C-79.8724 522.878 -80.1089 523.653 -80.2653 524.239C-80.4225 524.784 -80.6404 525.433 -80.9189 526.188L-94.5486 565.432ZM36.0777 596.595L21.8923 596.842L-13.4429 556.453C-14.0817 555.672 -14.6137 555.036 -15.039 554.543C-15.4234 554.008 -15.7011 553.617 -15.8721 553.37L-16.1221 553.374L-15.352 597.492L-25.8504 597.676L-27.4146 508.064L-16.9162 507.881L-16.181 550L-15.931 549.995C-15.6474 549.532 -15.3225 549.047 -14.9563 548.541C-14.5491 547.992 -14.1003 547.442 -13.6098 546.892L19.8907 507.239L32.2638 507.023L-5.41735 550.687L36.0777 596.595ZM110.191 595.301L96.006 595.549L60.6708 555.159C60.0321 554.379 59.5 553.742 59.0747 553.249C58.6903 552.714 58.4126 552.323 58.2416 552.076L57.9916 552.08L58.7617 596.199L48.2633 596.382L46.6991 506.771L57.1975 506.587L57.9327 548.706L58.1827 548.702C58.4663 548.238 58.7912 547.753 59.1575 547.247C59.5646 546.698 60.0134 546.148 60.5039 545.598L94.0044 505.945L106.378 505.729L68.6964 549.393L110.191 595.301ZM162.297 561.512L162.871 594.382L152.372 594.565L150.808 504.953L175.43 504.524C185.011 504.356 192.469 506.622 197.802 511.322C203.175 515.979 205.937 522.619 206.088 531.243C206.239 539.866 203.425 547 197.648 552.643C191.911 558.244 184.065 561.132 174.108 561.305L162.297 561.512ZM161.472 514.269L162.131 552.013L173.13 551.821C180.379 551.694 185.869 549.89 189.6 546.408C193.373 542.925 195.206 538.1 195.098 531.935C194.992 525.852 193.163 521.321 189.61 518.341C186.058 515.361 180.782 513.932 173.783 514.054L161.472 514.269ZM270.354 592.505L222.862 593.334L221.298 503.723L266.791 502.929L266.956 512.428L231.962 513.038L232.482 542.846L264.852 542.281L265.017 551.717L232.647 552.282L233.194 583.653L270.189 583.007L270.354 592.505ZM276.229 592.403L309.034 502.192L319.908 502.002L355.966 591.011L344.343 591.214L334.864 567.438L296.058 568.116L287.914 592.199L276.229 592.403ZM299.391 558.556L331.262 558L316.083 519.259C315.778 518.472 315.537 517.81 315.361 517.271C315.185 516.732 314.943 515.986 314.634 515.033L314.384 515.038C314.068 516.002 313.831 516.777 313.675 517.363C313.517 517.907 313.3 518.557 313.021 519.312L299.391 558.556ZM430.018 589.718L415.832 589.966L380.497 549.577C379.858 548.796 379.326 548.159 378.901 547.667C378.517 547.132 378.239 546.741 378.068 546.494L377.818 546.498L378.588 590.616L368.09 590.799L366.525 501.188L377.024 501.005L377.759 543.123L378.009 543.119C378.293 542.656 378.618 542.171 378.984 541.664C379.391 541.115 379.84 540.566 380.33 540.016L413.831 500.362L426.204 500.146L388.523 543.811L430.018 589.718ZM504.131 588.425L489.946 588.672L454.611 548.283C453.972 547.502 453.44 546.866 453.015 546.373C452.63 545.838 452.353 545.447 452.182 545.2L451.932 545.204L452.702 589.323L442.203 589.506L440.639 499.894L451.138 499.711L451.873 541.83L452.123 541.825C452.406 541.362 452.731 540.877 453.097 540.371C453.505 539.822 453.953 539.272 454.444 538.722L487.944 499.069L500.318 498.853L462.636 542.517L504.131 588.425ZM556.237 554.635L556.811 587.505L546.312 587.689L544.748 498.077L569.37 497.647C578.951 497.48 586.409 499.746 591.742 504.446C597.115 509.102 599.877 515.743 600.028 524.366C600.179 532.99 597.365 540.124 591.588 545.767C585.851 551.368 578.005 554.255 568.048 554.429L556.237 554.635ZM555.412 507.393L556.071 545.137L567.07 544.945C574.319 544.818 579.809 543.014 583.54 539.532C587.313 536.048 589.146 531.224 589.038 525.058C588.932 518.976 587.103 514.445 583.55 511.465C579.998 508.484 574.722 507.055 567.723 507.178L555.412 507.393ZM664.294 585.629L616.802 586.458L615.238 496.847L660.731 496.053L660.896 505.551L625.902 506.162L626.422 535.97L658.792 535.405L658.957 544.841L626.587 545.406L627.134 576.776L664.129 576.131L664.294 585.629ZM670.169 585.527L702.974 495.315L713.848 495.126L749.906 584.135L738.283 584.338L728.804 560.562L689.998 561.239L681.854 585.323L670.169 585.527ZM693.331 551.68L725.202 551.123L710.023 512.382C709.718 511.596 709.477 510.933 709.301 510.395C709.125 509.856 708.883 509.11 708.574 508.157L708.324 508.161C708.008 509.125 707.771 509.901 707.615 510.487C707.457 511.031 707.24 511.681 706.961 512.436L693.331 551.68ZM823.958 582.842L809.772 583.09L774.437 542.7C773.798 541.92 773.266 541.283 772.841 540.79C772.457 540.255 772.179 539.864 772.008 539.617L771.758 539.622L772.528 583.74L762.03 583.923L760.465 494.312L770.964 494.129L771.699 536.247L771.949 536.243C772.233 535.779 772.558 535.295 772.924 534.788C773.331 534.239 773.78 533.69 774.27 533.139L807.771 493.486L820.144 493.27L782.463 536.934L823.958 582.842ZM898.071 581.549L883.886 581.796L848.551 541.407C847.912 540.626 847.38 539.989 846.955 539.497C846.57 538.962 846.293 538.571 846.122 538.324L845.872 538.328L846.642 582.446L836.143 582.63L834.579 493.018L845.078 492.835L845.813 534.954L846.063 534.949C846.346 534.486 846.671 534.001 847.037 533.494C847.445 532.946 847.893 532.396 848.384 531.846L881.884 492.192L894.258 491.976L856.576 535.641L898.071 581.549ZM950.177 547.759L950.751 580.629L940.252 580.812L938.688 491.201L963.31 490.771C972.891 490.604 980.349 492.87 985.682 497.569C991.055 502.226 993.817 508.867 993.968 517.49C994.119 526.114 991.305 533.247 985.528 538.891C979.791 544.492 971.945 547.379 961.988 547.553L950.177 547.759ZM949.352 500.516L950.011 538.261L961.01 538.069C968.259 537.942 973.749 536.138 977.48 532.655C981.253 529.172 983.086 524.348 982.978 518.182C982.872 512.1 981.043 507.568 977.49 504.588C973.938 501.608 968.662 500.179 961.663 500.301L949.352 500.516ZM1058.23 578.753L1010.74 579.582L1009.18 489.971L1054.67 489.176L1054.84 498.675L1019.84 499.286L1020.36 529.094L1052.73 528.529L1052.9 537.965L1020.53 538.53L1021.07 569.9L1058.07 569.254L1058.23 578.753ZM1064.11 578.65L1096.91 488.439L1107.79 488.249L1143.85 577.259L1132.22 577.461L1122.74 553.686L1083.94 554.363L1075.79 578.446L1064.11 578.65ZM1087.27 544.803L1119.14 544.247L1103.96 505.506C1103.66 504.72 1103.42 504.057 1103.24 503.518C1103.06 502.98 1102.82 502.234 1102.51 501.281L1102.26 501.285C1101.95 502.249 1101.71 503.024 1101.55 503.61C1101.4 504.155 1101.18 504.805 1100.9 505.56L1087.27 544.803ZM1217.9 575.966L1203.71 576.214L1168.38 535.824C1167.74 535.043 1167.21 534.407 1166.78 533.914C1166.4 533.379 1166.12 532.988 1165.95 532.741L1165.7 532.745L1166.47 576.864L1155.97 577.047L1154.41 487.436L1164.9 487.252L1165.64 529.371L1165.89 529.367C1166.17 528.903 1166.5 528.418 1166.86 527.912C1167.27 527.363 1167.72 526.813 1168.21 526.263L1201.71 486.61L1214.08 486.394L1176.4 530.058L1217.9 575.966ZM1292.01 574.672L1277.83 574.92L1242.49 534.53C1241.85 533.75 1241.32 533.113 1240.89 532.621C1240.51 532.085 1240.23 531.694 1240.06 531.447L1239.81 531.452L1240.58 575.57L1230.08 575.753L1228.52 486.142L1239.02 485.959L1239.75 528.077L1240 528.073C1240.29 527.61 1240.61 527.125 1240.98 526.618C1241.38 526.069 1241.83 525.52 1242.32 524.969L1275.82 485.316L1288.2 485.1L1250.52 528.765L1292.01 574.672ZM1344.12 540.883L1344.69 573.753L1334.19 573.936L1332.63 484.325L1357.25 483.895C1366.83 483.728 1374.29 485.994 1379.62 490.693C1385 495.35 1387.76 501.99 1387.91 510.614C1388.06 519.238 1385.25 526.371 1379.47 532.015C1373.73 537.615 1365.88 540.503 1355.93 540.677L1344.12 540.883ZM1343.29 493.64L1343.95 531.384L1354.95 531.192C1362.2 531.066 1367.69 529.261 1371.42 525.779C1375.19 522.296 1377.03 517.472 1376.92 511.306C1376.81 505.223 1374.98 500.692 1371.43 497.712C1367.88 494.732 1362.6 493.303 1355.6 493.425L1343.29 493.64ZM1452.17 571.877L1404.68 572.706L1403.12 483.094L1448.61 482.3L1448.78 491.799L1413.78 492.41L1414.3 522.218L1446.67 521.653L1446.84 531.089L1414.47 531.654L1415.01 563.024L1452.01 562.378L1452.17 571.877ZM1458.05 571.774L1490.85 481.563L1501.73 481.373L1537.79 570.382L1526.16 570.585L1516.68 546.809L1477.88 547.487L1469.73 571.57L1458.05 571.774ZM1481.21 537.927L1513.08 537.371L1497.9 498.63C1497.6 497.843 1497.36 497.181 1497.18 496.642C1497 496.104 1496.76 495.358 1496.45 494.405L1496.2 494.409C1495.89 495.373 1495.65 496.148 1495.49 496.734C1495.34 497.279 1495.12 497.928 1494.84 498.683L1481.21 537.927ZM1611.84 569.09L1597.65 569.337L1562.32 528.948C1561.68 528.167 1561.15 527.531 1560.72 527.038C1560.34 526.503 1560.06 526.112 1559.89 525.865L1559.64 525.869L1560.41 569.987L1549.91 570.171L1548.35 480.559L1558.84 480.376L1559.58 522.495L1559.83 522.49C1560.11 522.027 1560.44 521.542 1560.8 521.036C1561.21 520.487 1561.66 519.937 1562.15 519.387L1595.65 479.734L1608.02 479.518L1570.34 523.182L1611.84 569.09ZM1685.95 567.796L1671.77 568.044L1636.43 527.654C1635.79 526.874 1635.26 526.237 1634.83 525.744C1634.45 525.209 1634.17 524.818 1634 524.571L1633.75 524.576L1634.52 568.694L1624.02 568.877L1622.46 479.266L1632.96 479.082L1633.69 521.201L1633.94 521.197C1634.23 520.733 1634.55 520.248 1634.92 519.742C1635.32 519.193 1635.77 518.643 1636.26 518.093L1669.76 478.44L1682.14 478.224L1644.46 521.888L1685.95 567.796ZM1738.06 534.007L1738.63 566.877L1728.13 567.06L1726.57 477.448L1751.19 477.019C1760.77 476.851 1768.23 479.117 1773.56 483.817C1778.94 488.474 1781.7 495.114 1781.85 503.738C1782 512.361 1779.19 519.495 1773.41 525.138C1767.67 530.739 1759.82 533.627 1749.87 533.8L1738.06 534.007ZM1737.23 486.764L1737.89 524.508L1748.89 524.316C1756.14 524.19 1761.63 522.385 1765.36 518.903C1769.13 515.42 1770.97 510.595 1770.86 504.43C1770.75 498.347 1768.92 493.816 1765.37 490.836C1761.82 487.856 1756.54 486.427 1749.54 486.549L1737.23 486.764ZM1846.11 565L1798.62 565.829L1797.06 476.218L1842.55 475.424L1842.72 484.923L1807.72 485.533L1808.24 515.341L1840.61 514.776L1840.78 524.212L1808.41 524.777L1808.95 556.148L1845.95 555.502L1846.11 565ZM1851.99 564.898L1884.79 474.687L1895.67 474.497L1931.73 563.506L1920.1 563.709L1910.62 539.933L1871.82 540.611L1863.67 564.694L1851.99 564.898ZM1875.15 531.051L1907.02 530.495L1891.84 491.754C1891.54 490.967 1891.3 490.305 1891.12 489.766C1890.94 489.227 1890.7 488.481 1890.39 487.528L1890.14 487.533C1889.83 488.497 1889.59 489.272 1889.43 489.858C1889.28 490.402 1889.06 491.052 1888.78 491.807L1875.15 531.051ZM2005.78 562.213L1991.59 562.461L1956.26 522.072C1955.62 521.291 1955.09 520.654 1954.66 520.162C1954.28 519.627 1954 519.236 1953.83 518.989L1953.58 518.993L1954.35 563.111L1943.85 563.294L1942.29 473.683L1952.78 473.5L1953.52 515.618L1953.77 515.614C1954.05 515.151 1954.38 514.666 1954.74 514.159C1955.15 513.61 1955.6 513.061 1956.09 512.511L1989.59 472.857L2001.96 472.641L1964.28 516.306L2005.78 562.213ZM2079.89 560.92L2065.71 561.167L2030.37 520.778C2029.73 519.997 2029.2 519.361 2028.77 518.868C2028.39 518.333 2028.11 517.942 2027.94 517.695L2027.69 517.699L2028.46 561.818L2017.96 562.001L2016.4 472.389L2026.9 472.206L2027.63 514.325L2027.88 514.32C2028.17 513.857 2028.49 513.372 2028.86 512.866C2029.26 512.317 2029.71 511.767 2030.2 511.217L2063.7 471.564L2076.08 471.348L2038.4 515.012L2079.89 560.92ZM-228.676 738.362L-228.102 771.232L-238.601 771.415L-240.165 681.804L-215.544 681.374C-205.962 681.207 -198.504 683.473 -193.171 688.172C-187.798 692.829 -185.036 699.469 -184.885 708.093C-184.735 716.717 -187.548 723.85 -193.325 729.494C-199.062 735.095 -206.908 737.982 -216.865 738.156L-228.676 738.362ZM-229.501 691.119L-228.842 728.863L-217.843 728.671C-210.595 728.545 -205.104 726.74 -201.373 723.258C-197.6 719.775 -195.767 714.951 -195.875 708.785C-195.981 702.703 -197.81 698.171 -201.363 695.191C-204.915 692.211 -210.191 690.782 -217.19 690.904L-229.501 691.119ZM-120.619 769.356L-168.111 770.185L-169.676 680.573L-124.182 679.779L-124.017 689.278L-159.011 689.889L-158.491 719.697L-126.121 719.132L-125.956 728.568L-158.326 729.133L-157.779 760.503L-120.784 759.857L-120.619 769.356ZM-114.744 769.253L-81.9389 679.042L-71.0656 678.852L-35.0066 767.861L-46.6299 768.064L-56.1088 744.289L-94.9153 744.966L-103.059 769.049L-114.744 769.253ZM-91.5817 735.406L-59.7115 734.85L-74.89 696.109C-75.1954 695.323 -75.4362 694.66 -75.6123 694.121C-75.7884 693.583 -76.0306 692.837 -76.3389 691.884L-76.5889 691.888C-76.9054 692.852 -77.142 693.627 -77.2984 694.213C-77.4556 694.758 -77.6735 695.408 -77.952 696.162L-91.5817 735.406ZM39.0446 766.569L24.8592 766.816L-10.476 726.427C-11.1148 725.646 -11.6468 725.01 -12.0721 724.517C-12.4565 723.982 -12.7342 723.591 -12.9052 723.344L-13.1552 723.348L-12.3851 767.467L-22.8835 767.65L-24.4477 678.038L-13.9493 677.855L-13.2141 719.974L-12.9641 719.969C-12.6805 719.506 -12.3556 719.021 -11.9893 718.515C-11.5822 717.966 -11.1334 717.416 -10.6429 716.866L22.8576 677.213L35.2308 676.997L-2.45044 720.661L39.0446 766.569ZM113.158 765.275L98.973 765.523L63.6377 725.133C62.999 724.353 62.4669 723.716 62.0416 723.223C61.6572 722.688 61.3795 722.297 61.2085 722.05L60.9585 722.055L61.7286 766.173L51.2302 766.356L49.6661 676.745L60.1645 676.562L60.8996 718.68L61.1496 718.676C61.4332 718.212 61.7581 717.727 62.1244 717.221C62.5315 716.672 62.9803 716.123 63.4708 715.572L96.9714 675.919L109.344 675.703L71.6633 719.367L113.158 765.275ZM165.264 731.486L165.838 764.356L155.339 764.539L153.775 674.928L178.396 674.498C187.978 674.331 195.436 676.597 200.769 681.296C206.142 685.953 208.904 692.593 209.055 701.217C209.205 709.84 206.392 716.974 200.615 722.617C194.878 728.218 187.032 731.106 177.075 731.28L165.264 731.486ZM164.439 684.243L165.098 721.987L176.097 721.795C183.345 721.669 188.836 719.864 192.567 716.382C196.34 712.899 198.173 708.074 198.065 701.909C197.959 695.826 196.13 691.295 192.577 688.315C189.025 685.335 183.749 683.906 176.75 684.028L164.439 684.243ZM273.321 762.48L225.829 763.309L224.264 673.697L269.758 672.903L269.923 682.402L234.929 683.012L235.449 712.82L267.819 712.255L267.984 721.691L235.614 722.256L236.161 753.627L273.156 752.981L273.321 762.48ZM279.196 762.377L312.001 672.166L322.874 671.976L358.933 760.985L347.31 761.188L337.831 737.412L299.025 738.09L290.881 762.173L279.196 762.377ZM302.358 728.53L334.228 727.974L319.05 689.233C318.745 688.446 318.504 687.784 318.328 687.245C318.152 686.706 317.909 685.961 317.601 685.007L317.351 685.012C317.035 685.976 316.798 686.751 316.642 687.337C316.484 687.882 316.267 688.531 315.988 689.286L302.358 728.53ZM432.985 759.693L418.799 759.94L383.464 719.551C382.825 718.77 382.293 718.133 381.868 717.641C381.483 717.106 381.206 716.715 381.035 716.468L380.785 716.472L381.555 760.59L371.057 760.774L369.492 671.162L379.991 670.979L380.726 713.098L380.976 713.093C381.26 712.63 381.584 712.145 381.951 711.638C382.358 711.09 382.807 710.54 383.297 709.99L416.798 670.336L429.171 670.121L391.49 713.785L432.985 759.693ZM507.098 758.399L492.913 758.647L457.578 718.257C456.939 717.476 456.407 716.84 455.982 716.347C455.597 715.812 455.32 715.421 455.149 715.174L454.899 715.178L455.669 759.297L445.17 759.48L443.606 669.869L454.104 669.685L454.84 711.804L455.09 711.8C455.373 711.336 455.698 710.851 456.064 710.345C456.472 709.796 456.92 709.246 457.411 708.696L490.911 669.043L503.284 668.827L465.603 712.491L507.098 758.399ZM559.204 724.609L559.778 757.479L549.279 757.663L547.715 668.051L572.336 667.622C581.918 667.454 589.376 669.72 594.708 674.42C600.082 679.077 602.844 685.717 602.995 694.341C603.145 702.964 600.332 710.098 594.555 715.741C588.818 721.342 580.972 724.229 571.015 724.403L559.204 724.609ZM558.379 677.367L559.038 715.111L570.037 714.919C577.285 714.792 582.776 712.988 586.507 709.506C590.28 706.023 592.113 701.198 592.005 695.032C591.899 688.95 590.07 684.419 586.517 681.439C582.965 678.459 577.689 677.03 570.69 677.152L558.379 677.367ZM667.261 755.603L619.769 756.432L618.204 666.821L663.698 666.027L663.863 675.525L628.869 676.136L629.389 705.944L661.759 705.379L661.924 714.815L629.554 715.38L630.101 746.75L667.096 746.105L667.261 755.603ZM673.136 755.501L705.941 665.289L716.814 665.1L752.873 754.109L741.25 754.312L731.771 730.536L692.965 731.213L684.821 755.297L673.136 755.501ZM696.298 721.654L728.168 721.098L712.99 682.357C712.685 681.57 712.444 680.908 712.268 680.369C712.092 679.83 711.849 679.084 711.541 678.131L711.291 678.136C710.975 679.1 710.738 679.875 710.582 680.461C710.424 681.005 710.207 681.655 709.928 682.41L696.298 721.654ZM826.925 752.816L812.739 753.064L777.404 712.674C776.765 711.894 776.233 711.257 775.808 710.765C775.423 710.23 775.146 709.838 774.975 709.591L774.725 709.596L775.495 753.714L764.997 753.897L763.432 664.286L773.931 664.103L774.666 706.221L774.916 706.217C775.2 705.754 775.524 705.269 775.891 704.762C776.298 704.213 776.747 703.664 777.237 703.113L810.738 663.46L823.111 663.244L785.43 706.909L826.925 752.816ZM901.038 751.523L886.853 751.77L851.518 711.381C850.879 710.6 850.347 709.964 849.922 709.471C849.537 708.936 849.26 708.545 849.088 708.298L848.839 708.302L849.609 752.42L839.11 752.604L837.546 662.992L848.044 662.809L848.78 704.928L849.03 704.923C849.313 704.46 849.638 703.975 850.004 703.469C850.412 702.92 850.86 702.37 851.351 701.82L884.851 662.167L897.224 661.951L859.543 705.615L901.038 751.523ZM953.144 717.733L953.718 750.603L943.219 750.786L941.655 661.175L966.276 660.745C975.858 660.578 983.316 662.844 988.648 667.543C994.022 672.2 996.784 678.841 996.935 687.464C997.085 696.088 994.272 703.222 988.495 708.865C982.758 714.466 974.912 717.353 964.955 717.527L953.144 717.733ZM952.319 670.49L952.978 708.235L963.977 708.043C971.225 707.916 976.716 706.112 980.447 702.629C984.22 699.146 986.053 694.322 985.945 688.156C985.839 682.074 984.01 677.543 980.457 674.562C976.905 671.582 971.629 670.153 964.63 670.275L952.319 670.49ZM1061.2 748.727L1013.71 749.556L1012.14 659.945L1057.64 659.151L1057.8 668.649L1022.81 669.26L1023.33 699.068L1055.7 698.503L1055.86 707.939L1023.49 708.504L1024.04 739.874L1061.04 739.228L1061.2 748.727ZM1067.08 748.624L1099.88 658.413L1110.75 658.223L1146.81 747.233L1135.19 747.436L1125.71 723.66L1086.9 724.337L1078.76 748.421L1067.08 748.624ZM1090.24 714.778L1122.11 714.221L1106.93 675.48C1106.62 674.694 1106.38 674.031 1106.21 673.493C1106.03 672.954 1105.79 672.208 1105.48 671.255L1105.23 671.259C1104.91 672.223 1104.68 672.998 1104.52 673.585C1104.36 674.129 1104.15 674.779 1103.87 675.534L1090.24 714.778ZM1220.86 745.94L1206.68 746.188L1171.34 705.798C1170.71 705.018 1170.17 704.381 1169.75 703.888C1169.36 703.353 1169.09 702.962 1168.91 702.715L1168.66 702.72L1169.43 746.838L1158.94 747.021L1157.37 657.41L1167.87 657.226L1168.61 699.345L1168.86 699.341C1169.14 698.877 1169.46 698.392 1169.83 697.886C1170.24 697.337 1170.69 696.788 1171.18 696.237L1204.68 656.584L1217.05 656.368L1179.37 700.032L1220.86 745.94ZM1294.98 744.646L1280.79 744.894L1245.46 704.505C1244.82 703.724 1244.29 703.087 1243.86 702.595C1243.48 702.06 1243.2 701.669 1243.03 701.422L1242.78 701.426L1243.55 745.544L1233.05 745.727L1231.49 656.116L1241.98 655.933L1242.72 698.051L1242.97 698.047C1243.25 697.584 1243.58 697.099 1243.94 696.592C1244.35 696.043 1244.8 695.494 1245.29 694.944L1278.79 655.29L1291.16 655.074L1253.48 698.739L1294.98 744.646ZM1347.08 710.857L1347.66 743.727L1337.16 743.91L1335.6 654.299L1360.22 653.869C1369.8 653.702 1377.26 655.968 1382.59 660.667C1387.96 665.324 1390.72 671.964 1390.87 680.588C1391.03 689.212 1388.21 696.345 1382.43 701.989C1376.7 707.59 1368.85 710.477 1358.89 710.651L1347.08 710.857ZM1346.26 663.614L1346.92 701.358L1357.92 701.166C1365.17 701.04 1370.66 699.235 1374.39 695.753C1378.16 692.27 1379.99 687.446 1379.89 681.28C1379.78 675.198 1377.95 670.666 1374.4 667.686C1370.84 664.706 1365.57 663.277 1358.57 663.399L1346.26 663.614ZM1455.14 741.851L1407.65 742.68L1406.08 653.068L1451.58 652.274L1451.74 661.773L1416.75 662.384L1417.27 692.192L1449.64 691.627L1449.8 701.063L1417.43 701.628L1417.98 732.998L1454.98 732.352L1455.14 741.851ZM1461.02 741.748L1493.82 651.537L1504.69 651.347L1540.75 740.356L1529.13 740.559L1519.65 716.784L1480.84 717.461L1472.7 741.544L1461.02 741.748ZM1484.18 707.901L1516.05 707.345L1500.87 668.604C1500.56 667.818 1500.32 667.155 1500.15 666.616C1499.97 666.078 1499.73 665.332 1499.42 664.379L1499.17 664.383C1498.85 665.347 1498.62 666.122 1498.46 666.708C1498.3 667.253 1498.09 667.903 1497.81 668.657L1484.18 707.901ZM1614.8 739.064L1600.62 739.311L1565.28 698.922C1564.65 698.141 1564.11 697.505 1563.69 697.012C1563.3 696.477 1563.03 696.086 1562.85 695.839L1562.6 695.843L1563.37 739.962L1552.88 740.145L1551.31 650.533L1561.81 650.35L1562.55 692.469L1562.8 692.464C1563.08 692.001 1563.4 691.516 1563.77 691.01C1564.18 690.461 1564.63 689.911 1565.12 689.361L1598.62 649.708L1610.99 649.492L1573.31 693.156L1614.8 739.064ZM1688.92 737.77L1674.73 738.018L1639.4 697.628C1638.76 696.848 1638.23 696.211 1637.8 695.718C1637.42 695.183 1637.14 694.792 1636.97 694.545L1636.72 694.55L1637.49 738.668L1626.99 738.851L1625.43 649.24L1635.92 649.057L1636.66 691.175L1636.91 691.171C1637.19 690.707 1637.52 690.223 1637.88 689.716C1638.29 689.167 1638.74 688.618 1639.23 688.067L1672.73 648.414L1685.1 648.198L1647.42 691.862L1688.92 737.77ZM1741.02 703.981L1741.6 736.851L1731.1 737.034L1729.54 647.423L1754.16 646.993C1763.74 646.826 1771.2 649.092 1776.53 653.791C1781.9 658.448 1784.66 665.088 1784.81 673.712C1784.97 682.335 1782.15 689.469 1776.37 695.112C1770.64 700.713 1762.79 703.601 1752.83 703.775L1741.02 703.981ZM1740.2 656.738L1740.86 694.482L1751.86 694.29C1759.11 694.164 1764.6 692.359 1768.33 688.877C1772.1 685.394 1773.93 680.569 1773.83 674.404C1773.72 668.321 1771.89 663.79 1768.34 660.81C1764.78 657.83 1759.51 656.401 1752.51 656.523L1740.2 656.738ZM1849.08 734.975L1801.59 735.804L1800.02 646.192L1845.52 645.398L1845.68 654.897L1810.69 655.507L1811.21 685.315L1843.58 684.75L1843.74 694.186L1811.37 694.751L1811.92 726.122L1848.92 725.476L1849.08 734.975ZM1854.96 734.872L1887.76 644.661L1898.63 644.471L1934.69 733.48L1923.07 733.683L1913.59 709.907L1874.78 710.585L1866.64 734.668L1854.96 734.872ZM1878.12 701.025L1909.99 700.469L1894.81 661.728C1894.5 660.941 1894.26 660.279 1894.09 659.74C1893.91 659.201 1893.67 658.456 1893.36 657.502L1893.11 657.507C1892.79 658.471 1892.56 659.246 1892.4 659.832C1892.24 660.377 1892.03 661.026 1891.75 661.781L1878.12 701.025ZM2008.74 732.188L1994.56 732.435L1959.22 692.046C1958.59 691.265 1958.05 690.628 1957.63 690.136C1957.24 689.601 1956.97 689.21 1956.79 688.963L1956.54 688.967L1957.31 733.085L1946.82 733.269L1945.25 643.657L1955.75 643.474L1956.49 685.593L1956.74 685.588C1957.02 685.125 1957.34 684.64 1957.71 684.133C1958.12 683.585 1958.57 683.035 1959.06 682.485L1992.56 642.831L2004.93 642.616L1967.25 686.28L2008.74 732.188ZM2082.86 730.894L2068.67 731.142L2033.34 690.752C2032.7 689.971 2032.17 689.335 2031.74 688.842C2031.36 688.307 2031.08 687.916 2030.91 687.669L2030.66 687.673L2031.43 731.792L2020.93 731.975L2019.37 642.364L2029.86 642.18L2030.6 684.299L2030.85 684.295C2031.13 683.831 2031.46 683.346 2031.82 682.84C2032.23 682.291 2032.68 681.741 2033.17 681.191L2066.67 641.538L2079.04 641.322L2041.36 684.986L2082.86 730.894ZM-225.709 908.336L-225.135 941.206L-235.634 941.389L-237.198 851.778L-212.577 851.348C-202.995 851.181 -195.537 853.447 -190.205 858.146C-184.831 862.803 -182.069 869.443 -181.918 878.067C-181.768 886.691 -184.581 893.824 -190.358 899.468C-196.095 905.069 -203.942 907.956 -213.898 908.13L-225.709 908.336ZM-226.534 861.093L-225.875 898.837L-214.877 898.645C-207.628 898.519 -202.137 896.715 -198.406 893.232C-194.633 889.749 -192.8 884.925 -192.908 878.759C-193.014 872.677 -194.843 868.145 -198.396 865.165C-201.948 862.185 -207.224 860.756 -214.223 860.878L-226.534 861.093ZM-117.652 939.33L-165.144 940.159L-166.709 850.548L-121.216 849.753L-121.05 859.252L-156.044 859.863L-155.524 889.671L-123.154 889.106L-122.989 898.542L-155.359 899.107L-154.812 930.477L-117.817 929.831L-117.652 939.33ZM-111.778 939.227L-78.972 849.016L-68.0986 848.826L-32.0397 937.836L-43.663 938.038L-53.1418 914.263L-91.9484 914.94L-100.092 939.023L-111.778 939.227ZM-88.6148 905.38L-56.7446 904.824L-71.9231 866.083C-72.2285 865.297 -72.4693 864.634 -72.6454 864.095C-72.8214 863.557 -73.0637 862.811 -73.372 861.858L-73.622 861.862C-73.9385 862.826 -74.175 863.601 -74.3315 864.187C-74.4887 864.732 -74.7066 865.382 -74.9851 866.137L-88.6148 905.38ZM42.0115 936.543L27.8262 936.791L-7.50912 896.401C-8.14784 895.62 -8.67987 894.984 -9.1052 894.491C-9.48959 893.956 -9.76729 893.565 -9.9383 893.318L-10.1883 893.322L-9.41817 937.441L-19.9166 937.624L-21.4807 848.013L-10.9823 847.829L-10.2472 889.948L-9.9972 889.944C-9.71358 889.48 -9.38866 888.995 -9.02244 888.489C-8.61529 887.94 -8.16648 887.39 -7.67601 886.84L25.8245 847.187L38.1977 846.971L0.516472 890.635L42.0115 936.543ZM116.125 935.249L101.94 935.497L66.6046 895.107C65.9659 894.327 65.4338 893.69 65.0085 893.197C64.6241 892.662 64.3464 892.271 64.1754 892.024L63.9255 892.029L64.6955 936.147L54.1971 936.33L52.633 846.719L63.1314 846.536L63.8665 888.654L64.1165 888.65C64.4001 888.187 64.7251 887.702 65.0913 887.195C65.4984 886.646 65.9472 886.097 66.4377 885.546L99.9383 845.893L112.311 845.677L74.6302 889.341L116.125 935.249ZM168.231 901.46L168.805 934.33L158.306 934.513L156.742 844.902L181.363 844.472C190.945 844.305 198.403 846.571 203.735 851.27C209.109 855.927 211.871 862.567 212.022 871.191C212.172 879.815 209.359 886.948 203.582 892.591C197.845 898.192 189.998 901.08 180.042 901.254L168.231 901.46ZM167.406 854.217L168.065 891.961L179.063 891.769C186.312 891.643 191.803 889.838 195.534 886.356C199.307 882.873 201.14 878.049 201.032 871.883C200.926 865.8 199.097 861.269 195.544 858.289C191.992 855.309 186.716 853.88 179.717 854.002L167.406 854.217ZM276.288 932.454L228.796 933.283L227.231 843.671L272.724 842.877L272.89 852.376L237.896 852.987L238.416 882.795L270.786 882.23L270.951 891.666L238.581 892.231L239.128 923.601L276.123 922.955L276.288 932.454ZM282.162 932.351L314.968 842.14L325.841 841.95L361.9 930.959L350.277 931.162L340.798 907.386L301.992 908.064L293.848 932.147L282.162 932.351ZM305.325 898.504L337.195 897.948L322.017 859.207C321.712 858.42 321.471 857.758 321.295 857.219C321.119 856.681 320.876 855.935 320.568 854.982L320.318 854.986C320.001 855.95 319.765 856.725 319.608 857.311C319.451 857.856 319.233 858.505 318.955 859.26L305.325 898.504ZM435.951 929.667L421.766 929.914L386.431 889.525C385.792 888.744 385.26 888.108 384.835 887.615C384.45 887.08 384.173 886.689 384.002 886.442L383.752 886.446L384.522 930.564L374.023 930.748L372.459 841.136L382.958 840.953L383.693 883.072L383.943 883.067C384.226 882.604 384.551 882.119 384.918 881.613C385.325 881.064 385.774 880.514 386.264 879.964L419.765 840.311L432.138 840.095L394.456 883.759L435.951 929.667ZM510.065 928.373L495.88 928.621L460.545 888.231C459.906 887.451 459.374 886.814 458.949 886.321C458.564 885.786 458.286 885.395 458.115 885.148L457.865 885.152L458.636 929.271L448.137 929.454L446.573 839.843L457.071 839.659L457.807 881.778L458.057 881.774C458.34 881.31 458.665 880.825 459.031 880.319C459.438 879.77 459.887 879.22 460.378 878.67L493.878 839.017L506.251 838.801L468.57 882.465L510.065 928.373ZM562.171 894.584L562.745 927.454L552.246 927.637L550.682 838.025L575.303 837.596C584.885 837.428 592.343 839.694 597.675 844.394C603.049 849.051 605.811 855.691 605.962 864.315C606.112 872.938 603.299 880.072 597.522 885.715C591.785 891.316 583.938 894.204 573.982 894.377L562.171 894.584ZM561.346 847.341L562.005 885.085L573.003 884.893C580.252 884.766 585.743 882.962 589.474 879.48C593.247 875.997 595.08 871.172 594.972 865.007C594.866 858.924 593.037 854.393 589.484 851.413C585.932 848.433 580.656 847.004 573.657 847.126L561.346 847.341ZM670.228 925.577L622.736 926.406L621.171 836.795L666.664 836.001L666.83 845.499L631.836 846.11L632.356 875.918L664.726 875.353L664.891 884.789L632.521 885.354L633.068 916.725L670.063 916.079L670.228 925.577ZM676.102 925.475L708.908 835.264L719.781 835.074L755.84 924.083L744.217 924.286L734.738 900.51L695.932 901.188L687.788 925.271L676.102 925.475ZM699.265 891.628L731.135 891.072L715.957 852.331C715.652 851.544 715.411 850.882 715.235 850.343C715.059 849.804 714.816 849.058 714.508 848.105L714.258 848.11C713.941 849.074 713.705 849.849 713.548 850.435C713.391 850.979 713.173 851.629 712.895 852.384L699.265 891.628ZM829.891 922.79L815.706 923.038L780.371 882.649C779.732 881.868 779.2 881.231 778.775 880.739C778.39 880.204 778.113 879.813 777.942 879.566L777.692 879.57L778.462 923.688L767.963 923.871L766.399 834.26L776.898 834.077L777.633 876.195L777.883 876.191C778.166 875.728 778.491 875.243 778.858 874.736C779.265 874.187 779.714 873.638 780.204 873.088L813.705 833.434L826.078 833.218L788.396 876.883L829.891 922.79ZM904.005 921.497L889.82 921.744L854.485 881.355C853.846 880.574 853.314 879.938 852.889 879.445C852.504 878.91 852.226 878.519 852.055 878.272L851.805 878.276L852.576 922.395L842.077 922.578L840.513 832.966L851.011 832.783L851.747 874.902L851.997 874.897C852.28 874.434 852.605 873.949 852.971 873.443C853.378 872.894 853.827 872.344 854.318 871.794L887.818 832.141L900.191 831.925L862.51 875.589L904.005 921.497ZM956.111 887.707L956.685 920.577L946.186 920.761L944.622 831.149L969.243 830.719C978.825 830.552 986.283 832.818 991.615 837.517C996.989 842.174 999.751 848.815 999.902 857.438C1000.05 866.062 997.239 873.196 991.462 878.839C985.725 884.44 977.878 887.327 967.922 887.501L956.111 887.707ZM955.286 840.464L955.945 878.209L966.943 878.017C974.192 877.89 979.683 876.086 983.414 872.603C987.187 869.12 989.02 864.296 988.912 858.13C988.806 852.048 986.977 847.517 983.424 844.537C979.872 841.556 974.596 840.127 967.597 840.25L955.286 840.464ZM1064.17 918.701L1016.68 919.53L1015.11 829.919L1060.6 829.125L1060.77 838.623L1025.78 839.234L1026.3 869.042L1058.67 868.477L1058.83 877.913L1026.46 878.478L1027.01 909.848L1064 909.203L1064.17 918.701ZM1070.04 918.599L1102.85 828.387L1113.72 828.198L1149.78 917.207L1138.16 917.41L1128.68 893.634L1089.87 894.311L1081.73 918.395L1070.04 918.599ZM1093.21 884.752L1125.08 884.195L1109.9 845.454C1109.59 844.668 1109.35 844.005 1109.17 843.467C1109 842.928 1108.76 842.182 1108.45 841.229L1108.2 841.233C1107.88 842.197 1107.64 842.972 1107.49 843.559C1107.33 844.103 1107.11 844.753 1106.83 845.508L1093.21 884.752ZM1223.83 915.914L1209.65 916.162L1174.31 875.772C1173.67 874.992 1173.14 874.355 1172.71 873.862C1172.33 873.327 1172.05 872.936 1171.88 872.689L1171.63 872.694L1172.4 916.812L1161.9 916.995L1160.34 827.384L1170.84 827.201L1171.57 869.319L1171.82 869.315C1172.11 868.851 1172.43 868.367 1172.8 867.86C1173.2 867.311 1173.65 866.762 1174.14 866.211L1207.64 826.558L1220.02 826.342L1182.34 870.006L1223.83 915.914ZM1297.95 914.621L1283.76 914.868L1248.42 874.479C1247.79 873.698 1247.25 873.061 1246.83 872.569C1246.44 872.034 1246.17 871.643 1246 871.396L1245.75 871.4L1246.52 915.518L1236.02 915.702L1234.45 826.09L1244.95 825.907L1245.69 868.025L1245.94 868.021C1246.22 867.558 1246.55 867.073 1246.91 866.566C1247.32 866.018 1247.77 865.468 1248.26 864.918L1281.76 825.264L1294.13 825.048L1256.45 868.713L1297.95 914.621ZM1350.05 880.831L1350.62 913.701L1340.13 913.884L1338.56 824.273L1363.18 823.843C1372.77 823.676 1380.22 825.942 1385.56 830.641C1390.93 835.298 1393.69 841.938 1393.84 850.562C1393.99 859.186 1391.18 866.319 1385.4 871.963C1379.67 877.564 1371.82 880.451 1361.86 880.625L1350.05 880.831ZM1349.23 833.588L1349.89 871.332L1360.88 871.141C1368.13 871.014 1373.62 869.21 1377.35 865.727C1381.13 862.244 1382.96 857.42 1382.85 851.254C1382.75 845.172 1380.92 840.64 1377.36 837.66C1373.81 834.68 1368.54 833.251 1361.54 833.373L1349.23 833.588ZM1458.11 911.825L1410.62 912.654L1409.05 823.043L1454.54 822.248L1454.71 831.747L1419.72 832.358L1420.24 862.166L1452.61 861.601L1452.77 871.037L1420.4 871.602L1420.95 902.972L1457.94 902.326L1458.11 911.825ZM1463.98 911.722L1496.79 821.511L1507.66 821.321L1543.72 910.331L1532.1 910.533L1522.62 886.758L1483.81 887.435L1475.67 911.518L1463.98 911.722ZM1487.15 877.875L1519.02 877.319L1503.84 838.578C1503.53 837.792 1503.29 837.129 1503.11 836.59C1502.94 836.052 1502.7 835.306 1502.39 834.353L1502.14 834.357C1501.82 835.321 1501.58 836.096 1501.43 836.682C1501.27 837.227 1501.05 837.877 1500.77 838.632L1487.15 877.875ZM1617.77 909.038L1603.59 909.286L1568.25 868.896C1567.61 868.115 1567.08 867.479 1566.65 866.986C1566.27 866.451 1565.99 866.06 1565.82 865.813L1565.57 865.817L1566.34 909.936L1555.84 910.119L1554.28 820.508L1564.78 820.324L1565.51 862.443L1565.76 862.439C1566.05 861.975 1566.37 861.49 1566.74 860.984C1567.14 860.435 1567.59 859.885 1568.08 859.335L1601.58 819.682L1613.96 819.466L1576.28 863.13L1617.77 909.038ZM1691.89 907.744L1677.7 907.992L1642.36 867.602C1641.73 866.822 1641.19 866.185 1640.77 865.693C1640.38 865.157 1640.11 864.766 1639.94 864.519L1639.69 864.524L1640.46 908.642L1629.96 908.825L1628.39 819.214L1638.89 819.031L1639.63 861.149L1639.88 861.145C1640.16 860.682 1640.49 860.197 1640.85 859.69C1641.26 859.141 1641.71 858.592 1642.2 858.041L1675.7 818.388L1688.07 818.172L1650.39 861.836L1691.89 907.744ZM1743.99 873.955L1744.56 906.825L1734.07 907.008L1732.5 817.397L1757.12 816.967C1766.71 816.8 1774.16 819.066 1779.5 823.765C1784.87 828.422 1787.63 835.062 1787.78 843.686C1787.93 852.31 1785.12 859.443 1779.34 865.086C1773.61 870.687 1765.76 873.575 1755.8 873.749L1743.99 873.955ZM1743.17 826.712L1743.83 864.456L1754.82 864.264C1762.07 864.138 1767.56 862.333 1771.29 858.851C1775.07 855.368 1776.9 850.544 1776.79 844.378C1776.69 838.295 1774.86 833.764 1771.3 830.784C1767.75 827.804 1762.48 826.375 1755.48 826.497L1743.17 826.712ZM1852.05 904.949L1804.56 905.778L1802.99 816.166L1848.48 815.372L1848.65 824.871L1813.66 825.482L1814.18 855.29L1846.55 854.725L1846.71 864.161L1814.34 864.726L1814.89 896.096L1851.88 895.45L1852.05 904.949ZM1857.92 904.846L1890.73 814.635L1901.6 814.445L1937.66 903.454L1926.04 903.657L1916.56 879.881L1877.75 880.559L1869.61 904.642L1857.92 904.846ZM1881.09 870.999L1912.96 870.443L1897.78 831.702C1897.47 830.915 1897.23 830.253 1897.05 829.714C1896.88 829.176 1896.64 828.43 1896.33 827.477L1896.08 827.481C1895.76 828.445 1895.52 829.22 1895.37 829.806C1895.21 830.351 1894.99 831 1894.71 831.755L1881.09 870.999ZM2011.71 902.162L1997.53 902.409L1962.19 862.02C1961.55 861.239 1961.02 860.603 1960.59 860.11C1960.21 859.575 1959.93 859.184 1959.76 858.937L1959.51 858.941L1960.28 903.059L1949.78 903.243L1948.22 813.631L1958.72 813.448L1959.45 855.567L1959.7 855.562C1959.99 855.099 1960.31 854.614 1960.68 854.108C1961.08 853.559 1961.53 853.009 1962.02 852.459L1995.52 812.806L2007.9 812.59L1970.22 856.254L2011.71 902.162ZM2085.83 900.868L2071.64 901.116L2036.3 860.726C2035.67 859.946 2035.13 859.309 2034.71 858.816C2034.32 858.281 2034.05 857.89 2033.88 857.643L2033.63 857.647L2034.4 901.766L2023.9 901.949L2022.33 812.338L2032.83 812.154L2033.57 854.273L2033.82 854.269C2034.1 853.805 2034.43 853.32 2034.79 852.814C2035.2 852.265 2035.65 851.715 2036.14 851.165L2069.64 811.512L2082.01 811.296L2044.33 854.96L2085.83 900.868ZM-222.742 1078.31L-222.168 1111.18L-232.667 1111.36L-234.231 1021.75L-209.61 1021.32C-200.028 1021.16 -192.571 1023.42 -187.238 1028.12C-181.864 1032.78 -179.102 1039.42 -178.951 1048.04C-178.801 1056.66 -181.614 1063.8 -187.392 1069.44C-193.128 1075.04 -200.975 1077.93 -210.931 1078.1L-222.742 1078.31ZM-223.567 1031.07L-222.908 1068.81L-211.91 1068.62C-204.661 1068.49 -199.171 1066.69 -195.439 1063.21C-191.666 1059.72 -189.833 1054.9 -189.941 1048.73C-190.047 1042.65 -191.876 1038.12 -195.429 1035.14C-198.981 1032.16 -204.257 1030.73 -211.256 1030.85L-223.567 1031.07ZM-114.685 1109.3L-162.178 1110.13L-163.742 1020.52L-118.249 1019.73L-118.083 1029.23L-153.078 1029.84L-152.557 1059.64L-120.187 1059.08L-120.022 1068.52L-152.393 1069.08L-151.845 1100.45L-114.851 1099.81L-114.685 1109.3ZM-108.811 1109.2L-76.0051 1018.99L-65.1317 1018.8L-29.0728 1107.81L-40.696 1108.01L-50.1749 1084.24L-88.9815 1084.91L-97.125 1109L-108.811 1109.2ZM-85.6479 1075.35L-53.7777 1074.8L-68.9561 1036.06C-69.2616 1035.27 -69.5024 1034.61 -69.6784 1034.07C-69.8545 1033.53 -70.0968 1032.79 -70.4051 1031.83L-70.6551 1031.84C-70.9716 1032.8 -71.2081 1033.58 -71.3646 1034.16C-71.5218 1034.71 -71.7396 1035.36 -72.0182 1036.11L-85.6479 1075.35ZM44.9784 1106.52L30.7931 1106.76L-4.54221 1066.38C-5.18093 1065.59 -5.71296 1064.96 -6.13829 1064.47C-6.52268 1063.93 -6.80039 1063.54 -6.97139 1063.29L-7.22135 1063.3L-6.45126 1107.41L-16.9497 1107.6L-18.5138 1017.99L-8.01544 1017.8L-7.28025 1059.92L-7.03029 1059.92C-6.74667 1059.45 -6.42175 1058.97 -6.05553 1058.46C-5.64838 1057.91 -5.19957 1057.36 -4.7091 1056.81L28.7915 1017.16L41.1646 1016.94L3.48338 1060.61L44.9784 1106.52ZM119.092 1105.22L104.907 1105.47L69.5715 1065.08C68.9328 1064.3 68.4008 1063.66 67.9754 1063.17C67.591 1062.64 67.3133 1062.25 67.1423 1062L66.8924 1062L67.6624 1106.12L57.164 1106.3L55.5999 1016.69L66.0983 1016.51L66.8335 1058.63L67.0834 1058.62C67.367 1058.16 67.692 1057.68 68.0582 1057.17C68.4653 1056.62 68.9141 1056.07 69.4046 1055.52L102.905 1015.87L115.278 1015.65L77.5971 1059.32L119.092 1105.22ZM171.198 1071.43L171.772 1104.3L161.273 1104.49L159.709 1014.88L184.33 1014.45C193.912 1014.28 201.369 1016.54 206.702 1021.24C212.076 1025.9 214.838 1032.54 214.989 1041.17C215.139 1049.79 212.326 1056.92 206.548 1062.57C200.812 1068.17 192.965 1071.05 183.009 1071.23L171.198 1071.43ZM170.373 1024.19L171.032 1061.94L182.03 1061.74C189.279 1061.62 194.769 1059.81 198.501 1056.33C202.274 1052.85 204.107 1048.02 203.999 1041.86C203.893 1035.77 202.064 1031.24 198.511 1028.26C194.959 1025.28 189.683 1023.85 182.684 1023.98L170.373 1024.19ZM279.255 1102.43L231.762 1103.26L230.198 1013.65L275.691 1012.85L275.857 1022.35L240.862 1022.96L241.383 1052.77L273.753 1052.2L273.918 1061.64L241.547 1062.2L242.095 1093.57L279.089 1092.93L279.255 1102.43ZM285.129 1102.33L317.935 1012.11L328.808 1011.92L364.867 1100.93L353.244 1101.14L343.765 1077.36L304.958 1078.04L296.815 1102.12L285.129 1102.33ZM308.292 1068.48L340.162 1067.92L324.984 1029.18C324.678 1028.39 324.438 1027.73 324.262 1027.19C324.085 1026.65 323.843 1025.91 323.535 1024.96L323.285 1024.96C322.968 1025.92 322.732 1026.7 322.575 1027.29C322.418 1027.83 322.2 1028.48 321.922 1029.23L308.292 1068.48ZM438.918 1099.64L424.733 1099.89L389.398 1059.5C388.759 1058.72 388.227 1058.08 387.802 1057.59C387.417 1057.05 387.14 1056.66 386.969 1056.42L386.719 1056.42L387.489 1100.54L376.99 1100.72L375.426 1011.11L385.925 1010.93L386.66 1053.05L386.91 1053.04C387.193 1052.58 387.518 1052.09 387.884 1051.59C388.292 1051.04 388.74 1050.49 389.231 1049.94L422.731 1010.28L435.105 1010.07L397.423 1053.73L438.918 1099.64ZM513.032 1098.35L498.847 1098.59L463.511 1058.21C462.873 1057.42 462.341 1056.79 461.915 1056.3C461.531 1055.76 461.253 1055.37 461.082 1055.12L460.832 1055.13L461.602 1099.24L451.104 1099.43L449.54 1009.82L460.038 1009.63L460.773 1051.75L461.023 1051.75C461.307 1051.28 461.632 1050.8 461.998 1050.29C462.405 1049.74 462.854 1049.19 463.345 1048.64L496.845 1008.99L509.218 1008.78L471.537 1052.44L513.032 1098.35ZM565.138 1064.56L565.712 1097.43L555.213 1097.61L553.649 1008L578.27 1007.57C587.852 1007.4 595.309 1009.67 600.642 1014.37C606.016 1019.02 608.778 1025.67 608.929 1034.29C609.079 1042.91 606.266 1050.05 600.488 1055.69C594.752 1061.29 586.905 1064.18 576.949 1064.35L565.138 1064.56ZM564.313 1017.31L564.972 1055.06L575.97 1054.87C583.219 1054.74 588.709 1052.94 592.441 1049.45C596.214 1045.97 598.047 1041.15 597.939 1034.98C597.833 1028.9 596.004 1024.37 592.451 1021.39C588.899 1018.41 583.623 1016.98 576.624 1017.1L564.313 1017.31ZM673.195 1095.55L625.702 1096.38L624.138 1006.77L669.631 1005.98L669.797 1015.47L634.802 1016.08L635.323 1045.89L667.693 1045.33L667.858 1054.76L635.487 1055.33L636.035 1086.7L673.029 1086.05L673.195 1095.55ZM679.069 1095.45L711.875 1005.24L722.748 1005.05L758.807 1094.06L747.184 1094.26L737.705 1070.48L698.898 1071.16L690.755 1095.24L679.069 1095.45ZM702.232 1061.6L734.102 1061.05L718.924 1022.3C718.618 1021.52 718.378 1020.86 718.202 1020.32C718.025 1019.78 717.783 1019.03 717.475 1018.08L717.225 1018.08C716.908 1019.05 716.672 1019.82 716.515 1020.41C716.358 1020.95 716.14 1021.6 715.862 1022.36L702.232 1061.6ZM832.858 1092.76L818.673 1093.01L783.338 1052.62C782.699 1051.84 782.167 1051.21 781.742 1050.71C781.357 1050.18 781.08 1049.79 780.909 1049.54L780.659 1049.54L781.429 1093.66L770.93 1093.85L769.366 1004.23L779.865 1004.05L780.6 1046.17L780.85 1046.17C781.133 1045.7 781.458 1045.22 781.824 1044.71C782.232 1044.16 782.68 1043.61 783.171 1043.06L816.671 1003.41L829.045 1003.19L791.363 1046.86L832.858 1092.76ZM906.972 1091.47L892.787 1091.72L857.451 1051.33C856.813 1050.55 856.281 1049.91 855.855 1049.42C855.471 1048.88 855.193 1048.49 855.022 1048.25L854.772 1048.25L855.542 1092.37L845.044 1092.55L843.48 1002.94L853.978 1002.76L854.713 1044.88L854.963 1044.87C855.247 1044.41 855.572 1043.92 855.938 1043.42C856.345 1042.87 856.794 1042.32 857.285 1041.77L890.785 1002.11L903.158 1001.9L865.477 1045.56L906.972 1091.47ZM959.078 1057.68L959.652 1090.55L949.153 1090.73L947.589 1001.12L972.21 1000.69C981.792 1000.53 989.249 1002.79 994.582 1007.49C999.956 1012.15 1002.72 1018.79 1002.87 1027.41C1003.02 1036.04 1000.21 1043.17 994.428 1048.81C988.692 1054.41 980.845 1057.3 970.889 1057.48L959.078 1057.68ZM958.253 1010.44L958.912 1048.18L969.91 1047.99C977.159 1047.86 982.649 1046.06 986.381 1042.58C990.154 1039.09 991.987 1034.27 991.879 1028.1C991.773 1022.02 989.944 1017.49 986.391 1014.51C982.839 1011.53 977.563 1010.1 970.564 1010.22L958.253 1010.44ZM1067.14 1088.68L1019.64 1089.5L1018.08 999.893L1063.57 999.099L1063.74 1008.6L1028.74 1009.21L1029.26 1039.02L1061.63 1038.45L1061.8 1047.89L1029.43 1048.45L1029.98 1079.82L1066.97 1079.18L1067.14 1088.68ZM1073.01 1088.57L1105.81 998.361L1116.69 998.172L1152.75 1087.18L1141.12 1087.38L1131.65 1063.61L1092.84 1064.29L1084.7 1088.37L1073.01 1088.57ZM1096.17 1054.73L1128.04 1054.17L1112.86 1015.43C1112.56 1014.64 1112.32 1013.98 1112.14 1013.44C1111.97 1012.9 1111.72 1012.16 1111.41 1011.2L1111.16 1011.21C1110.85 1012.17 1110.61 1012.95 1110.46 1013.53C1110.3 1014.08 1110.08 1014.73 1109.8 1015.48L1096.17 1054.73ZM1226.8 1085.89L1212.61 1086.14L1177.28 1045.75C1176.64 1044.97 1176.11 1044.33 1175.68 1043.84C1175.3 1043.3 1175.02 1042.91 1174.85 1042.66L1174.6 1042.67L1175.37 1086.79L1164.87 1086.97L1163.31 997.358L1173.8 997.175L1174.54 1039.29L1174.79 1039.29C1175.07 1038.83 1175.4 1038.34 1175.76 1037.83C1176.17 1037.29 1176.62 1036.74 1177.11 1036.19L1210.61 996.532L1222.98 996.316L1185.3 1039.98L1226.8 1085.89ZM1300.91 1084.59L1286.73 1084.84L1251.39 1044.45C1250.75 1043.67 1250.22 1043.04 1249.8 1042.54C1249.41 1042.01 1249.13 1041.62 1248.96 1041.37L1248.71 1041.37L1249.48 1085.49L1238.98 1085.68L1237.42 996.064L1247.92 995.881L1248.65 1038L1248.9 1038C1249.19 1037.53 1249.51 1037.05 1249.88 1036.54C1250.29 1035.99 1250.73 1035.44 1251.22 1034.89L1284.73 995.239L1297.1 995.023L1259.42 1038.69L1300.91 1084.59ZM1353.02 1050.81L1353.59 1083.68L1343.09 1083.86L1341.53 994.247L1366.15 993.817C1375.73 993.65 1383.19 995.916 1388.52 1000.62C1393.9 1005.27 1396.66 1011.91 1396.81 1020.54C1396.96 1029.16 1394.15 1036.29 1388.37 1041.94C1382.63 1047.54 1374.79 1050.43 1364.83 1050.6L1353.02 1050.81ZM1352.19 1003.56L1352.85 1041.31L1363.85 1041.11C1371.1 1040.99 1376.59 1039.18 1380.32 1035.7C1384.09 1032.22 1385.93 1027.39 1385.82 1021.23C1385.71 1015.15 1383.88 1010.61 1380.33 1007.63C1376.78 1004.65 1371.5 1003.23 1364.5 1003.35L1352.19 1003.56ZM1461.08 1081.8L1413.58 1082.63L1412.02 993.017L1457.51 992.223L1457.68 1001.72L1422.68 1002.33L1423.2 1032.14L1455.57 1031.57L1455.74 1041.01L1423.37 1041.58L1423.92 1072.95L1460.91 1072.3L1461.08 1081.8ZM1466.95 1081.7L1499.75 991.485L1510.63 991.295L1546.69 1080.3L1535.06 1080.51L1525.59 1056.73L1486.78 1057.41L1478.64 1081.49L1466.95 1081.7ZM1490.11 1047.85L1521.98 1047.29L1506.8 1008.55C1506.5 1007.77 1506.26 1007.1 1506.08 1006.56C1505.91 1006.03 1505.66 1005.28 1505.35 1004.33L1505.1 1004.33C1504.79 1005.3 1504.55 1006.07 1504.4 1006.66C1504.24 1007.2 1504.02 1007.85 1503.74 1008.61L1490.11 1047.85ZM1620.74 1079.01L1606.55 1079.26L1571.22 1038.87C1570.58 1038.09 1570.05 1037.45 1569.62 1036.96C1569.24 1036.43 1568.96 1036.03 1568.79 1035.79L1568.54 1035.79L1569.31 1079.91L1558.81 1080.09L1557.25 990.482L1567.74 990.298L1568.48 1032.42L1568.73 1032.41C1569.01 1031.95 1569.34 1031.46 1569.7 1030.96C1570.11 1030.41 1570.56 1029.86 1571.05 1029.31L1604.55 989.656L1616.92 989.44L1579.24 1033.1L1620.74 1079.01ZM1694.85 1077.72L1680.67 1077.97L1645.33 1037.58C1644.69 1036.8 1644.16 1036.16 1643.74 1035.67C1643.35 1035.13 1643.07 1034.74 1642.9 1034.49L1642.65 1034.5L1643.42 1078.62L1632.92 1078.8L1631.36 989.188L1641.86 989.005L1642.59 1031.12L1642.84 1031.12C1643.13 1030.66 1643.45 1030.17 1643.82 1029.66C1644.23 1029.12 1644.67 1028.57 1645.16 1028.02L1678.67 988.362L1691.04 988.146L1653.36 1031.81L1694.85 1077.72ZM1746.96 1043.93L1747.53 1076.8L1737.03 1076.98L1735.47 987.371L1760.09 986.941C1769.67 986.774 1777.13 989.04 1782.46 993.739C1787.84 998.396 1790.6 1005.04 1790.75 1013.66C1790.9 1022.28 1788.09 1029.42 1782.31 1035.06C1776.57 1040.66 1768.73 1043.55 1758.77 1043.72L1746.96 1043.93ZM1746.13 996.686L1746.79 1034.43L1757.79 1034.24C1765.04 1034.11 1770.53 1032.31 1774.26 1028.83C1778.03 1025.34 1779.87 1020.52 1779.76 1014.35C1779.65 1008.27 1777.82 1003.74 1774.27 1000.76C1770.72 997.778 1765.44 996.349 1758.44 996.471L1746.13 996.686ZM1855.02 1074.92L1807.52 1075.75L1805.96 986.14L1851.45 985.346L1851.62 994.845L1816.62 995.456L1817.14 1025.26L1849.51 1024.7L1849.68 1034.13L1817.31 1034.7L1817.86 1066.07L1854.85 1065.42L1855.02 1074.92ZM1860.89 1074.82L1893.69 984.609L1904.57 984.419L1940.63 1073.43L1929 1073.63L1919.53 1049.86L1880.72 1050.53L1872.58 1074.62L1860.89 1074.82ZM1884.05 1040.97L1915.92 1040.42L1900.74 1001.68C1900.44 1000.89 1900.2 1000.23 1900.02 999.688C1899.85 999.15 1899.6 998.404 1899.29 997.451L1899.04 997.455C1898.73 998.419 1898.49 999.194 1898.34 999.78C1898.18 1000.32 1897.96 1000.97 1897.68 1001.73L1884.05 1040.97ZM2014.68 1072.14L2000.49 1072.38L1965.16 1031.99C1964.52 1031.21 1963.99 1030.58 1963.56 1030.08C1963.18 1029.55 1962.9 1029.16 1962.73 1028.91L1962.48 1028.92L1963.25 1073.03L1952.75 1073.22L1951.19 983.605L1961.68 983.422L1962.42 1025.54L1962.67 1025.54C1962.95 1025.07 1963.28 1024.59 1963.64 1024.08C1964.05 1023.53 1964.5 1022.98 1964.99 1022.43L1998.49 982.78L2010.86 982.564L1973.18 1026.23L2014.68 1072.14ZM2088.79 1070.84L2074.61 1071.09L2039.27 1030.7C2038.63 1029.92 2038.1 1029.28 2037.68 1028.79C2037.29 1028.26 2037.01 1027.86 2036.84 1027.62L2036.59 1027.62L2037.36 1071.74L2026.86 1071.92L2025.3 982.312L2035.8 982.129L2036.53 1024.25L2036.78 1024.24C2037.07 1023.78 2037.39 1023.29 2037.76 1022.79C2038.17 1022.24 2038.61 1021.69 2039.1 1021.14L2072.61 981.486L2084.98 981.27L2047.3 1024.93L2088.79 1070.84Z" fill="url(#paint0_linear_1_2)"/>
</g>
<defs>
<linearGradient id="paint0_linear_1_2" x1="902.822" y1="-66.6331" x2="923.591" y2="1123.19" gradientUnits="userSpaceOnUse">
<stop stop-color="white" stop-opacity="0.4"/>
<stop offset="1" stop-color="white" stop-opacity="0"/>
</linearGradient>
<clipPath id="clip0_1_2">
<rect width="1920" height="1080" fill="white"/>
</clipPath>
</defs>
</svg>
