<svg width="302" height="537" viewBox="0 0 302 537" fill="none" xmlns="http://www.w3.org/2000/svg">
    <path d="M8.31142 530.181L1.00005 518.172C1.00005 518.172 0.999979 536 24.3806 536L8.31142 530.181Z" fill="white" />
    <path
        d="M40.4497 435.448C40.4497 426.783 47.4843 419.759 56.1618 419.759H65.2614V384.711H48.2082V330.304H65.2614V224.78L7.64206 121.887C5.64734 120.439 4.01218 118.535 2.88206 116.32C1.90485 114.405 1.48526 112.152 1.3051 108.938H1L1.00005 518.172L8.31142 530.181L24.3806 536H65.2614V535.9C58.923 535.108 54.0192 529.707 54.0192 523.164V503.196C54.0192 496.652 58.923 491.252 65.2614 490.459V463.26H56.1618C47.4843 463.26 40.4497 456.236 40.4497 447.571V435.448Z"
        fill="white" />
    <path
        d="M148.292 490.359H66.8746C66.3282 490.359 65.7898 490.393 65.2614 490.459V535.9C65.7898 535.966 66.3282 536 66.8746 536H148.292C155.392 536 161.147 530.253 161.147 523.164V503.196C161.147 496.106 155.392 490.359 148.292 490.359Z"
        fill="white" />
    <path
        d="M54.0192 503.196V523.164C54.0192 529.707 58.923 535.108 65.2614 535.9V490.459C58.923 491.252 54.0192 496.652 54.0192 503.196Z"
        fill="white" />
    <path
        d="M56.1618 419.759C47.4843 419.759 40.4497 426.783 40.4497 435.448V447.571C40.4497 456.236 47.4843 463.26 56.1618 463.26H65.2614V419.759H56.1618Z"
        fill="white" />
    <path
        d="M161.147 435.448C161.147 426.783 154.113 419.759 145.435 419.759H65.2614V463.26H145.435C154.113 463.26 161.147 456.236 161.147 447.571V435.448Z"
        fill="white" />
    <path
        d="M299.042 527.34L212.101 376.367C195.431 381.746 176.336 384.524 154.816 384.702L236.639 530.817C236.917 531.312 237.228 531.788 237.615 532.203C239.301 534.017 242.075 536 244.976 536H293.271C298.472 536 304.05 536 299.042 527.34Z"
        fill="white" />
    <path
        d="M183.73 325.398C173.209 328.669 160.894 330.304 146.784 330.304H124.354L154.816 384.702C176.336 384.524 195.431 381.746 212.101 376.367L183.73 325.398Z"
        fill="white" />
    <path
        d="M72.9879 122.985C72.2886 123.009 71.6196 122.965 70.986 122.861L93.8687 163.968H145.952C167.303 163.968 184.495 167.498 197.528 174.559C210.699 181.619 220.335 191.379 226.435 203.839C232.535 216.298 235.586 230.558 235.586 246.617C235.586 262.676 232.535 277.004 226.435 289.602C220.335 302.2 210.768 312.168 197.736 319.505C193.487 321.852 188.818 323.817 183.73 325.398L212.101 376.367C220.228 373.744 227.779 370.503 234.754 366.644C256.659 354.461 273.019 337.987 283.834 317.221C294.786 296.317 300.263 272.782 300.263 246.617C300.263 220.59 294.856 197.194 284.042 176.428C273.227 155.523 256.937 139.049 235.17 127.005C213.403 114.96 185.951 108.938 152.815 108.938H130.442L120.584 118.876C119.004 120.469 116.724 121.43 114.317 121.515L72.9879 122.985Z"
        fill="white" />
    <path d="M65.2614 384.711H152.607C153.346 384.711 154.083 384.708 154.816 384.702L124.354 330.304H65.2614V384.711Z"
        fill="white" />
    <path d="M48.2082 330.304V384.711H65.2614V330.304H48.2082Z" fill="white" />
    <path
        d="M65.2614 163.968V224.78L124.354 330.304H146.784C160.894 330.304 173.209 328.669 183.73 325.398L93.8687 163.968H65.2614Z"
        fill="white" />
    <path
        d="M64.5961 117.335C63.0848 119.822 60.9056 121.849 58.2956 123.177C54.9346 124.887 50.5348 124.887 41.7353 124.887H26.3089C17.5093 124.887 13.1095 124.887 9.74848 123.177C9.01007 122.801 8.30614 122.369 7.64206 121.887L65.2614 224.78V163.968H93.8687L70.986 122.861C67.5934 122.301 65.2136 120.01 64.5961 117.335Z"
        fill="white" />
    <path
        d="M177.282 1.00073C174.675 0.969071 172.162 1.97191 170.474 3.71699L68.7136 108.938H130.442L225.3 13.3019C229.938 8.62628 226.367 1.59684 219.31 1.51115L177.282 1.00073Z"
        fill="white" />
    <path
        d="M58.4032 110.045L11.6315 110.045C6.42299 110.045 3.48658 114.467 5.86932 118.722L7.64206 121.887C8.30614 122.369 9.01007 122.801 9.74848 123.177C13.1095 124.887 17.5093 124.887 26.3089 124.887H41.7353C50.5348 124.887 54.9346 124.887 58.2956 123.177C60.9056 121.849 63.0848 119.822 64.5961 117.335C64.2696 115.92 64.4359 114.397 65.2056 112.965C63.5253 111.172 60.9855 110.045 58.4032 110.045Z"
        fill="white" />
    <path
        d="M70.986 122.861L66.3322 114.5C66.2401 114.335 66.1414 114.173 66.0365 114.014C65.8111 114.851 65.5251 115.609 65.1621 116.32C64.9855 116.666 64.7967 117.004 64.5961 117.335C65.2136 120.01 67.5934 122.301 70.986 122.861Z"
        fill="white" />
    <path
        d="M64.5961 117.335C64.7967 117.004 64.9855 116.666 65.1621 116.32C65.5251 115.609 65.8111 114.851 66.0365 114.014C65.7917 113.644 65.513 113.294 65.2056 112.965C64.4359 114.397 64.2696 115.92 64.5961 117.335Z"
        fill="white" />
    <path
        d="M66.0365 114.014C66.2668 113.16 66.4338 112.223 66.5549 111.17L66.4573 111.271C65.9345 111.812 65.5198 112.381 65.2056 112.965C65.513 113.294 65.7917 113.644 66.0365 114.014Z"
        fill="white" />
    <path
        d="M11.6315 110.045L58.4032 110.045C60.9855 110.045 63.5253 111.172 65.2056 112.965C65.5198 112.381 65.9345 111.812 66.4573 111.271L66.5549 111.17C66.6344 110.48 66.6941 109.739 66.739 108.938H1.3051C1.48526 112.152 1.90485 114.405 2.88206 116.32C4.01218 118.535 5.64734 120.439 7.64206 121.887L5.86932 118.722C3.48658 114.467 6.42299 110.045 11.6315 110.045Z"
        fill="white" />
    <path
        d="M114.317 121.515C116.724 121.43 119.004 120.469 120.584 118.876L130.442 108.938H68.7136L66.5549 111.17C66.4338 112.223 66.2668 113.16 66.0365 114.014C66.1414 114.173 66.2401 114.335 66.3322 114.5L70.986 122.861C71.6196 122.965 72.2886 123.009 72.9879 122.985L114.317 121.515Z"
        fill="white" />
    <path d="M66.5549 111.17L68.7136 108.938H66.739C66.6941 109.739 66.6344 110.48 66.5549 111.17Z" fill="white" />
    <path
        d="M2.88206 10.0806C1.16954 13.4367 1.16954 17.83 1.16954 26.6166V99.7842C1.16954 103.557 1.16954 106.52 1.3051 108.938H66.739C66.8746 106.52 66.8746 103.557 66.8746 99.7842V26.6166C66.8746 17.83 66.8746 13.4367 65.1621 10.0806C63.6557 7.12854 61.252 4.72843 58.2956 3.22428C54.9346 1.51428 50.5348 1.51428 41.7353 1.51428H26.3089C17.5093 1.51428 13.1095 1.51428 9.74848 3.22428C6.79207 4.72843 4.38842 7.12854 2.88206 10.0806Z"
        fill="white" />
    <path
        d="M1.00005 518.172L8.31142 530.181L24.3806 536M1.00005 518.172C1.00005 518.172 0.999979 536 24.3806 536M1.00005 518.172L1 108.938H1.3051M24.3806 536H65.2614V535.9M65.2614 419.759H56.1618C47.4843 419.759 40.4497 426.783 40.4497 435.448V447.571C40.4497 456.236 47.4843 463.26 56.1618 463.26H65.2614M65.2614 419.759V384.711M65.2614 419.759V463.26M65.2614 419.759H145.435C154.113 419.759 161.147 426.783 161.147 435.448V447.571C161.147 456.236 154.113 463.26 145.435 463.26H65.2614M65.2614 384.711H48.2082V330.304H65.2614M65.2614 384.711H152.607C153.346 384.711 154.083 384.708 154.816 384.702M65.2614 384.711V330.304M65.2614 330.304V224.78M65.2614 330.304H124.354M65.2614 224.78L7.64206 121.887M65.2614 224.78V163.968H93.8687M65.2614 224.78L124.354 330.304M7.64206 121.887C5.64734 120.439 4.01218 118.535 2.88206 116.32C1.90485 114.405 1.48526 112.152 1.3051 108.938M7.64206 121.887C8.30614 122.369 9.01007 122.801 9.74848 123.177C13.1095 124.887 17.5093 124.887 26.3089 124.887H41.7353C50.5348 124.887 54.9346 124.887 58.2956 123.177C60.9056 121.849 63.0848 119.822 64.5961 117.335M7.64206 121.887L5.86932 118.722C3.48658 114.467 6.42299 110.045 11.6315 110.045L58.4032 110.045C60.9855 110.045 63.5253 111.172 65.2056 112.965M1.3051 108.938H66.739M1.3051 108.938C1.16954 106.52 1.16954 103.557 1.16954 99.7842V26.6166C1.16954 17.83 1.16954 13.4367 2.88206 10.0806C4.38842 7.12854 6.79207 4.72843 9.74848 3.22428C13.1095 1.51428 17.5093 1.51428 26.3089 1.51428H41.7353C50.5348 1.51428 54.9346 1.51428 58.2956 3.22428C61.252 4.72843 63.6557 7.12854 65.1621 10.0806C66.8746 13.4367 66.8746 17.83 66.8746 26.6166V99.7842C66.8746 103.557 66.8746 106.52 66.739 108.938M65.2614 535.9C58.923 535.108 54.0192 529.707 54.0192 523.164V503.196C54.0192 496.652 58.923 491.252 65.2614 490.459M65.2614 535.9V490.459M65.2614 535.9C65.7898 535.966 66.3282 536 66.8746 536H148.292C155.392 536 161.147 530.253 161.147 523.164V503.196C161.147 496.106 155.392 490.359 148.292 490.359H66.8746C66.3282 490.359 65.7898 490.393 65.2614 490.459M65.2614 490.459V463.26M212.101 376.367L299.042 527.34C304.05 536 298.472 536 293.271 536H244.976C242.075 536 239.301 534.017 237.615 532.203C237.228 531.788 236.917 531.312 236.639 530.817L154.816 384.702M212.101 376.367C195.431 381.746 176.336 384.524 154.816 384.702M212.101 376.367L183.73 325.398M212.101 376.367C220.228 373.744 227.779 370.503 234.754 366.644C256.659 354.461 273.019 337.987 283.834 317.221C294.786 296.317 300.263 272.782 300.263 246.617C300.263 220.59 294.856 197.194 284.042 176.428C273.227 155.523 256.937 139.049 235.17 127.005C213.403 114.96 185.951 108.938 152.815 108.938H130.442M154.816 384.702L124.354 330.304M183.73 325.398C173.209 328.669 160.894 330.304 146.784 330.304H124.354M183.73 325.398C188.818 323.817 193.487 321.852 197.736 319.505C210.768 312.168 220.335 302.2 226.435 289.602C232.535 277.004 235.586 262.676 235.586 246.617C235.586 230.558 232.535 216.298 226.435 203.839C220.335 191.379 210.699 181.619 197.528 174.559C184.495 167.498 167.303 163.968 145.952 163.968H93.8687M183.73 325.398L93.8687 163.968M70.986 122.861C71.6196 122.965 72.2886 123.009 72.9879 122.985L114.317 121.515C116.724 121.43 119.004 120.469 120.584 118.876L130.442 108.938M70.986 122.861L93.8687 163.968M70.986 122.861C67.5934 122.301 65.2136 120.01 64.5961 117.335M70.986 122.861L66.3322 114.5C66.2401 114.335 66.1414 114.173 66.0365 114.014M130.442 108.938H68.7136M130.442 108.938L225.3 13.3019C229.938 8.62628 226.367 1.59684 219.31 1.51115L177.282 1.00073C174.675 0.969071 172.162 1.97191 170.474 3.71699L68.7136 108.938M64.5961 117.335C64.2696 115.92 64.4359 114.397 65.2056 112.965M64.5961 117.335C64.7967 117.004 64.9855 116.666 65.1621 116.32C65.5251 115.609 65.8111 114.851 66.0365 114.014M68.7136 108.938L66.5549 111.17M68.7136 108.938H66.739M65.2056 112.965C65.513 113.294 65.7917 113.644 66.0365 114.014M65.2056 112.965C65.5198 112.381 65.9345 111.812 66.4573 111.271L66.5549 111.17M66.0365 114.014C66.2668 113.16 66.4338 112.223 66.5549 111.17M66.5549 111.17C66.6344 110.48 66.6941 109.739 66.739 108.938"
        stroke="white" stroke-width="2" />
</svg>