<svg width="650" height="481" viewBox="0 0 650 481" fill="none" xmlns="http://www.w3.org/2000/svg">
	<g clip-path="url(#clip0_1734_56)">
		<path d="M2.46161 144.162V115.752C2.46161 112.425 3.03817 109.985 4.19131 108.433C5.38879 106.88 7.47329 106.104 10.4448 106.104H15.767V111.892H9.38039V136.378L18.1619 123.27H18.295L27.0765 136.378V106.104H33.9953V144.162H26.8104L18.295 131.521H18.1619L9.6465 144.162H2.46161ZM61.6517 144.961C59.5228 144.961 57.7488 144.628 56.3296 143.963C54.9547 143.297 53.8459 142.455 53.0032 141.434C52.1605 140.37 51.4953 139.239 51.0074 138.041H50.6748V144.162H43.8225V106.104H50.8078V131.986C50.8078 133.539 51.207 134.825 52.0053 135.845C52.848 136.866 53.9346 137.62 55.2651 138.108C56.5957 138.596 57.9706 138.84 59.3898 138.84C62.0065 138.84 63.9358 138.063 65.1776 136.511C66.4638 134.914 67.1069 132.563 67.1069 129.458V106.104H74.0922V130.789C74.0922 135.269 72.9834 138.751 70.7659 141.235C68.5927 143.719 65.5546 144.961 61.6517 144.961ZM96.7903 144.961C93.3752 144.961 90.5811 144.384 88.4079 143.231C86.2347 142.078 84.6381 140.481 83.618 138.44C82.5979 136.356 82.0879 133.96 82.0879 131.254C82.0879 129.125 82.2653 127.373 82.6201 125.998C83.0192 124.579 83.5071 123.403 84.0837 122.472C84.6602 121.496 85.2146 120.631 85.7468 119.877C86.3234 119.123 86.7891 118.324 87.1439 117.481C87.5431 116.639 87.7427 115.596 87.7427 114.354V112.691H81.223V106.037H87.9422C90.6033 106.037 92.5326 106.636 93.7301 107.834C94.9719 108.987 95.5928 110.673 95.5928 112.89V113.356C95.5485 115.042 95.3489 116.461 94.9941 117.615C94.6836 118.768 94.2623 119.81 93.7301 120.742C93.2422 121.673 92.7321 122.583 92.1999 123.47C91.7121 124.357 91.2907 125.333 90.9359 126.397C90.6255 127.462 90.4702 128.77 90.4702 130.323C90.4702 132.009 90.692 133.406 91.1355 134.515C91.6234 135.624 92.333 136.444 93.2644 136.977C94.2401 137.509 95.4376 137.775 96.8568 137.775C98.276 137.775 99.4292 137.509 100.316 136.977C101.248 136.444 101.935 135.646 102.379 134.581C102.866 133.472 103.11 132.075 103.11 130.389V128.793C103.11 126.663 102.733 125.155 101.979 124.268C101.225 123.337 99.9392 122.871 98.1208 122.871H97.1894V116.55H97.8547C99.4514 116.55 100.649 115.973 101.447 114.82C102.29 113.622 102.711 111.892 102.711 109.63V106.037H111.227V107.168C111.227 108.987 110.96 110.54 110.428 111.826C109.896 113.068 109.142 114.088 108.166 114.887C107.235 115.641 106.082 116.195 104.707 116.55V116.883C107.191 117.326 108.942 118.568 109.963 120.609C110.983 122.605 111.493 125.177 111.493 128.327V130.389C111.493 135.18 110.317 138.817 107.967 141.301C105.616 143.741 101.891 144.961 96.7903 144.961ZM81.6367 101.114V94.7927H102.925V87.8729H109.977V92.7966C109.977 95.6355 109.29 97.7425 107.915 99.1175C106.496 100.448 104.433 101.114 101.728 101.114H81.6367ZM93.0793 95.9903V87.8729H99.8651V95.9903H93.0793ZM101.794 83.6146V72.9023H108.647V83.6146H101.794ZM130.095 144.961C125.216 144.961 121.357 143.674 118.519 141.102C115.725 138.485 114.328 134.892 114.328 130.323V129.857C114.328 127.24 114.971 125.266 116.257 123.935C117.588 122.605 119.473 121.939 121.912 121.939H128.831V128.593H122.511V129.99C122.511 132.696 123.132 134.736 124.373 136.112C125.66 137.442 127.567 138.108 130.095 138.108C132.623 138.108 134.53 137.398 135.816 135.978C137.102 134.515 137.745 132.408 137.745 129.658V121.407C137.745 118.568 137.08 116.35 135.749 114.753C134.419 113.112 132.467 112.292 129.895 112.292C127.811 112.292 126.125 112.802 124.839 113.822C123.597 114.798 122.644 116.062 121.978 117.615L114.66 113.955C115.947 111.116 117.876 108.965 120.448 107.501C123.021 105.993 126.125 105.239 129.762 105.239C135.35 105.239 139.564 106.947 142.402 110.362C145.24 113.778 146.66 118.568 146.66 124.734C146.66 131.21 145.263 136.2 142.469 139.705C139.719 143.209 135.594 144.961 130.095 144.961ZM14.8356 226.745C11.3762 226.745 8.44902 226.057 6.05405 224.682C3.70344 223.307 1.66329 221.511 -0.0664062 219.293L4.65699 215.034C6.12058 216.942 7.67287 218.383 9.31386 219.359C10.9992 220.335 12.9507 220.823 15.1682 220.823C17.164 220.823 18.7828 220.335 20.0247 219.359C21.2665 218.383 21.8874 217.053 21.8874 215.367C21.8874 214.081 21.4439 212.905 20.5569 211.841C19.7142 210.732 18.1619 210.022 15.9 209.712L13.3055 209.379C10.9992 209.024 8.95905 208.447 7.18501 207.649C5.41096 206.806 4.03608 205.653 3.06035 204.189C2.12898 202.725 1.66329 200.862 1.66329 198.6C1.66329 195.983 2.26203 193.832 3.45951 192.146C4.65699 190.46 6.25363 189.196 8.24944 188.353C10.2452 187.511 12.4406 187.089 14.8356 187.089C17.8071 187.089 20.3795 187.644 22.5527 188.753C24.7259 189.817 26.5886 191.325 28.1409 193.277L23.351 197.535C22.3753 196.293 21.1334 195.251 19.6255 194.408C18.1619 193.521 16.4766 193.077 14.5695 193.077C12.618 193.077 11.0657 193.543 9.9126 194.475C8.75947 195.406 8.18291 196.648 8.18291 198.201C8.18291 199.798 8.7373 201.04 9.84608 201.927C10.9992 202.77 12.5293 203.324 14.4364 203.59L17.2971 203.923C21.2443 204.455 24.0828 205.653 25.8125 207.516C27.5865 209.379 28.4736 211.818 28.4736 214.835C28.4736 218.605 27.2317 221.533 24.7481 223.618C22.2644 225.702 18.9602 226.745 14.8356 226.745ZM20.0985 182.831C17.2601 182.831 15.1756 182.21 13.8449 180.968C12.5144 179.726 11.8491 177.752 11.8491 175.046V172.651H18.1693V177.442H33.2043V182.831H20.0985ZM49.2684 226.745C45.8534 226.745 43.0149 226.168 40.7529 225.015C38.5355 223.817 36.8945 222.065 35.83 219.758C34.7656 217.452 34.2334 214.613 34.2334 211.242V187.888H41.1522V211.375C41.1522 213.415 41.4405 215.145 42.017 216.565C42.6379 217.94 43.5471 218.982 44.7446 219.692C45.9421 220.402 47.4499 220.756 49.2684 220.756C51.0868 220.756 52.5948 220.402 53.7923 219.692C54.9897 218.982 55.8768 217.94 56.4533 216.565C57.0299 215.145 57.3182 213.415 57.3182 211.375V187.888H64.3035V211.242C64.3035 214.613 63.7491 217.452 62.6403 219.758C61.5759 222.065 59.9349 223.817 57.7173 225.015C55.4998 226.168 52.6835 226.745 49.2684 226.745ZM73.7751 225.946V187.888H80.6273V194.209H80.96C81.4922 192.967 82.1796 191.813 83.0223 190.749C83.9093 189.64 85.0625 188.753 86.4817 188.087C87.9009 187.422 89.6528 187.089 91.7373 187.089C95.5515 187.089 98.5674 188.353 100.785 190.882C103.003 193.41 104.111 196.981 104.111 201.594V225.946H97.1261V202.659C97.1261 199.554 96.483 197.225 95.1967 195.672C93.9549 194.076 92.0478 193.277 89.4755 193.277C88.0118 193.277 86.6147 193.521 85.2842 194.009C83.9537 194.497 82.8671 195.251 82.0244 196.271C81.1817 197.247 80.7604 198.511 80.7604 200.064V225.946H73.7751ZM98.2851 183.097C95.8457 183.097 94.0717 182.543 92.9629 181.434C91.8541 180.28 91.2997 178.861 91.2997 177.175V175.312C91.2997 173.582 91.8541 172.163 92.9629 171.054C94.0717 169.945 95.8457 169.391 98.2851 169.391C100.724 169.391 102.498 169.945 103.607 171.054C104.716 172.163 105.27 173.582 105.27 175.312V177.175C105.27 178.861 104.716 180.28 103.607 181.434C102.498 182.543 100.724 183.097 98.2851 183.097ZM98.2851 179.438C99.2164 179.438 99.9261 179.194 100.414 178.706C100.902 178.173 101.146 177.353 101.146 176.244C101.146 175.179 100.902 174.381 100.414 173.849C99.9261 173.316 99.2164 173.05 98.2851 173.05C97.3093 173.05 96.5775 173.316 96.0897 173.849C95.6018 174.381 95.3579 175.179 95.3579 176.244C95.3579 177.353 95.6018 178.173 96.0897 178.706C96.5775 179.194 97.3093 179.438 98.2851 179.438ZM126.673 225.946V200.064C126.673 197.713 126.141 195.961 125.077 194.807C124.012 193.654 122.416 193.077 120.287 193.077C118.291 193.077 116.606 193.565 115.231 194.541C113.9 195.473 112.747 196.67 111.771 198.134L107.247 194.076C108.534 191.858 110.286 190.15 112.503 188.952C114.765 187.71 117.448 187.089 120.553 187.089C124.722 187.089 127.937 188.176 130.199 190.35C132.461 192.523 133.592 195.606 133.592 199.598V225.946H126.673Z" fill="black" />
		<path d="M317.366 163.566H148.277V238.419H317.366V163.566Z" fill="#FFF000" />
		<path d="M165.575 223.172H152.491V183.362H165.575C169.826 183.362 173.447 184.193 176.441 185.857C179.435 187.52 181.726 189.831 183.315 192.787C184.905 195.744 185.699 199.182 185.699 203.101C185.699 206.908 184.886 210.346 183.26 213.414C181.634 216.445 179.306 218.829 176.275 220.566C173.281 222.303 169.715 223.172 165.575 223.172ZM159.31 189.239V217.295H165.242C168.198 217.295 170.675 216.722 172.671 215.576C174.667 214.43 176.164 212.804 177.162 210.697C178.197 208.552 178.714 206.021 178.714 203.101C178.714 200.18 178.197 197.704 177.162 195.671C176.164 193.601 174.667 192.011 172.671 190.902C170.675 189.793 168.198 189.239 165.242 189.239H159.31ZM201.496 223.727C198.614 223.727 196.083 223.079 193.901 221.786C191.759 220.493 190.095 218.681 188.912 216.352C187.73 214.024 187.138 211.325 187.138 208.257C187.138 205.336 187.748 202.75 188.967 200.495C190.187 198.239 191.87 196.447 194.012 195.116C196.156 193.786 198.596 193.12 201.33 193.12C203.585 193.12 205.618 193.546 207.428 194.395C209.24 195.245 210.755 196.447 211.974 197.999C213.232 199.515 214.137 201.289 214.691 203.322C215.245 205.356 215.394 207.574 215.134 209.976H190.741V205.928H208.482C208.371 203.378 207.67 201.382 206.375 199.94C205.082 198.498 203.363 197.778 201.219 197.778C199.594 197.778 198.208 198.203 197.061 199.053C195.917 199.867 195.01 201.067 194.345 202.657C193.717 204.209 193.402 206.077 193.402 208.257C193.402 210.475 193.717 212.378 194.345 213.968C194.974 215.558 195.879 216.778 197.061 217.628C198.245 218.441 199.667 218.847 201.33 218.847C203.326 218.847 204.971 218.348 206.264 217.35C207.595 216.352 208.464 214.966 208.87 213.192H215.079C214.34 216.481 212.77 219.069 210.367 220.954C207.965 222.802 205.009 223.727 201.496 223.727ZM242.373 214.19C242.373 217.147 241.282 219.475 239.102 221.176C236.922 222.877 233.835 223.727 229.844 223.727C225.852 223.727 222.73 222.822 220.475 221.01C218.22 219.162 216.945 216.648 216.649 213.469H222.637C222.71 215.17 223.413 216.537 224.743 217.572C226.074 218.57 227.793 219.069 229.899 219.069C231.747 219.069 233.226 218.755 234.334 218.127C235.481 217.499 236.053 216.537 236.053 215.243C236.053 214.097 235.683 213.247 234.944 212.693C234.205 212.101 232.966 211.639 231.23 211.307L226.351 210.42C223.653 209.902 221.546 208.94 220.031 207.536C218.552 206.132 217.814 204.32 217.814 202.103C217.814 200.328 218.294 198.776 219.255 197.445C220.215 196.114 221.565 195.061 223.302 194.285C225.039 193.508 227.054 193.12 229.345 193.12C231.747 193.12 233.853 193.526 235.665 194.34C237.512 195.154 238.973 196.318 240.045 197.833C241.116 199.312 241.726 201.086 241.874 203.156H235.942C235.794 201.493 235.129 200.18 233.946 199.219C232.764 198.259 231.248 197.778 229.4 197.778C227.737 197.778 226.389 198.11 225.353 198.776C224.355 199.441 223.856 200.366 223.856 201.548C223.856 202.62 224.226 203.433 224.965 203.988C225.704 204.542 226.906 204.986 228.569 205.318L233.725 206.316C236.645 206.833 238.807 207.758 240.211 209.089C241.652 210.382 242.373 212.083 242.373 214.19ZM252.249 223.172H246.04V193.675H252.249V223.172ZM253.469 186.855C253.469 188.001 253.063 188.962 252.249 189.738C251.437 190.477 250.384 190.847 249.089 190.847C247.796 190.847 246.743 190.477 245.929 189.738C245.117 188.962 244.71 188.001 244.71 186.855C244.71 185.708 245.117 184.766 245.929 184.027C246.743 183.288 247.796 182.918 249.089 182.918C250.384 182.918 251.437 183.288 252.249 184.027C253.063 184.766 253.469 185.708 253.469 186.855ZM269.495 234.428C266.908 234.428 264.635 233.984 262.676 233.097C260.754 232.247 259.239 230.99 258.13 229.327C257.021 227.701 256.412 225.796 256.301 223.616H262.288C262.472 225.538 263.175 226.998 264.395 227.996C265.614 229.032 267.296 229.549 269.44 229.549C271.879 229.549 273.708 228.921 274.928 227.663C276.185 226.406 276.813 224.576 276.813 222.174V217.129C275.963 218.792 274.762 220.085 273.21 221.01C271.695 221.934 269.976 222.396 268.054 222.396C265.614 222.396 263.434 221.768 261.512 220.511C259.627 219.254 258.148 217.535 257.077 215.354C256.005 213.136 255.469 210.604 255.469 207.758C255.469 204.837 255.986 202.287 257.021 200.106C258.057 197.926 259.498 196.225 261.346 195.005C263.231 193.748 265.393 193.12 267.832 193.12C269.901 193.12 271.731 193.601 273.32 194.562C274.91 195.486 276.221 196.817 277.257 198.554V193.675H283.022V222.063C283.022 225.945 281.821 228.976 279.419 231.157C277.053 233.337 273.746 234.428 269.495 234.428ZM261.734 207.758C261.734 210.604 262.399 212.859 263.729 214.523C265.06 216.186 266.871 217.018 269.162 217.018C270.677 217.018 272.008 216.648 273.154 215.909C274.3 215.132 275.187 214.061 275.815 212.693C276.443 211.325 276.758 209.736 276.758 207.924C276.758 205.079 276.074 202.805 274.706 201.104C273.338 199.404 271.491 198.554 269.162 198.554C266.908 198.554 265.097 199.386 263.729 201.049C262.399 202.675 261.734 204.912 261.734 207.758ZM294.483 206.705V223.172H288.274V193.675H293.984V198.388C295.055 196.798 296.368 195.522 297.92 194.562C299.51 193.601 301.32 193.12 303.353 193.12C306.347 193.12 308.749 194.081 310.56 196.003C312.408 197.889 313.332 200.605 313.332 204.154V223.172H307.123V206.206C307.123 203.803 306.606 201.954 305.571 200.661C304.573 199.33 303.076 198.665 301.08 198.665C299.898 198.665 298.789 198.997 297.754 199.663C296.756 200.291 295.962 201.197 295.37 202.38C294.778 203.562 294.483 205.004 294.483 206.705Z" fill="black" />
		<path d="M182.816 303.571L174.722 273.352L166.572 303.571H159.587L149.275 263.76H155.928L163.191 293.313L171.229 263.76H178.27L186.142 293.424L193.46 263.76H200.113L189.801 303.571H182.816ZM212.541 304.125C209.658 304.125 207.127 303.478 204.946 302.185C202.803 300.891 201.14 299.08 199.956 296.751C198.774 294.422 198.182 291.723 198.182 288.656C198.182 285.735 198.792 283.148 200.012 280.893C201.231 278.638 202.914 276.845 205.057 275.515C207.201 274.184 209.64 273.519 212.375 273.519C214.63 273.519 216.663 273.944 218.473 274.794C220.284 275.644 221.799 276.845 223.019 278.398C224.276 279.913 225.181 281.687 225.735 283.721C226.29 285.754 226.438 287.972 226.179 290.374H201.786V286.327H219.526C219.415 283.776 218.714 281.78 217.42 280.339C216.126 278.897 214.408 278.176 212.264 278.176C210.638 278.176 209.252 278.602 208.106 279.451C206.961 280.265 206.055 281.465 205.389 283.055C204.761 284.608 204.447 286.475 204.447 288.656C204.447 290.873 204.761 292.777 205.389 294.367C206.019 295.956 206.924 297.176 208.106 298.026C209.289 298.84 210.711 299.246 212.375 299.246C214.37 299.246 216.016 298.747 217.309 297.749C218.639 296.751 219.508 295.365 219.914 293.59H226.123C225.385 296.88 223.814 299.468 221.411 301.353C219.009 303.201 216.053 304.125 212.541 304.125ZM258.13 288.822C258.13 291.743 257.575 294.367 256.467 296.695C255.394 298.987 253.879 300.798 251.921 302.129C249.998 303.46 247.707 304.125 245.046 304.125C243.05 304.125 241.202 303.644 239.502 302.684C237.839 301.723 236.453 300.355 235.344 298.58V303.571H229.634V263.76H235.843V278.841C236.877 277.105 238.19 275.792 239.779 274.905C241.368 273.98 243.124 273.519 245.046 273.519C247.707 273.519 249.998 274.184 251.921 275.515C253.879 276.808 255.394 278.62 256.467 280.948C257.575 283.24 258.13 285.865 258.13 288.822ZM251.643 288.822C251.643 285.643 250.885 283.222 249.37 281.558C247.892 279.895 246.025 279.063 243.771 279.063C242.292 279.063 240.962 279.433 239.779 280.172C238.596 280.911 237.635 282.002 236.897 283.444C236.194 284.885 235.843 286.659 235.843 288.766C235.843 290.8 236.194 292.555 236.897 294.034C237.598 295.513 238.54 296.64 239.724 297.416C240.944 298.192 242.292 298.58 243.771 298.58C246.025 298.58 247.892 297.749 249.37 296.085C250.885 294.385 251.643 291.964 251.643 288.822ZM285.145 294.588C285.145 297.545 284.054 299.874 281.874 301.575C279.694 303.275 276.608 304.125 272.616 304.125C268.624 304.125 265.502 303.22 263.247 301.408C260.992 299.561 259.717 297.046 259.422 293.868H265.409C265.482 295.568 266.185 296.935 267.516 297.971C268.846 298.969 270.565 299.468 272.671 299.468C274.519 299.468 275.998 299.153 277.107 298.525C278.253 297.897 278.825 296.935 278.825 295.642C278.825 294.495 278.455 293.646 277.716 293.091C276.978 292.499 275.739 292.038 274.002 291.705L269.123 290.818C266.425 290.301 264.318 289.339 262.803 287.935C261.324 286.531 260.586 284.719 260.586 282.501C260.586 280.727 261.067 279.174 262.027 277.843C262.988 276.513 264.338 275.459 266.074 274.683C267.811 273.907 269.826 273.519 272.117 273.519C274.519 273.519 276.626 273.925 278.437 274.738C280.285 275.552 281.745 276.716 282.817 278.232C283.888 279.711 284.498 281.485 284.646 283.554H278.714C278.566 281.891 277.901 280.578 276.718 279.618C275.536 278.657 274.02 278.176 272.172 278.176C270.509 278.176 269.161 278.509 268.125 279.174C267.128 279.84 266.629 280.764 266.629 281.946C266.629 283.018 266.999 283.832 267.737 284.386C268.476 284.941 269.678 285.384 271.341 285.717L276.497 286.715C279.417 287.232 281.579 288.157 282.983 289.487C284.424 290.781 285.145 292.481 285.145 294.588ZM295.022 303.571H288.812V274.073H295.022V303.571ZM296.241 267.253C296.241 268.399 295.835 269.36 295.022 270.136C294.208 270.875 293.155 271.245 291.862 271.245C290.569 271.245 289.515 270.875 288.702 270.136C287.888 269.36 287.482 268.399 287.482 267.253C287.482 266.107 287.888 265.164 288.702 264.425C289.515 263.686 290.569 263.316 291.862 263.316C293.155 263.316 294.208 263.686 295.022 264.425C295.835 265.164 296.241 266.107 296.241 267.253ZM317.368 297.527V302.961C316.518 303.404 315.667 303.7 314.817 303.848C314.004 304.032 313.099 304.125 312.101 304.125C310.253 304.125 308.608 303.774 307.167 303.072C305.763 302.369 304.654 301.297 303.841 299.856C303.064 298.414 302.676 296.622 302.676 294.477V279.451H296.356V274.073H302.676V265.423H308.886V274.073H317.645V279.451H308.886V293.091C308.886 294.976 309.311 296.325 310.161 297.139C311.048 297.953 312.23 298.359 313.709 298.359C314.374 298.359 315.002 298.285 315.594 298.137C316.221 297.989 316.813 297.786 317.368 297.527ZM332.2 304.125C329.318 304.125 326.785 303.478 324.605 302.185C322.461 300.891 320.798 299.08 319.616 296.751C318.434 294.422 317.842 291.723 317.842 288.656C317.842 285.735 318.452 283.148 319.671 280.893C320.891 278.638 322.572 276.845 324.716 275.515C326.86 274.184 329.3 273.519 332.034 273.519C334.289 273.519 336.321 273.944 338.132 274.794C339.944 275.644 341.459 276.845 342.678 278.398C343.935 279.913 344.84 281.687 345.395 283.721C345.949 285.754 346.098 287.972 345.838 290.374H321.445V286.327H339.186C339.075 283.776 338.372 281.78 337.079 280.339C335.786 278.897 334.067 278.176 331.923 278.176C330.297 278.176 328.911 278.602 327.765 279.451C326.619 280.265 325.714 281.465 325.049 283.055C324.421 284.608 324.106 286.475 324.106 288.656C324.106 290.873 324.421 292.777 325.049 294.367C325.677 295.956 326.583 297.176 327.765 298.026C328.948 298.84 330.371 299.246 332.034 299.246C334.03 299.246 335.675 298.747 336.968 297.749C338.299 296.751 339.168 295.365 339.574 293.59H345.783C345.044 296.88 343.473 299.468 341.071 301.353C338.669 303.201 335.711 304.125 332.2 304.125Z" fill="black" />
		<path d="M354.787 228.718H371.661L363.9 236.48L365.875 238.421L376.963 227.332L365.875 216.242L363.9 218.183L371.661 225.945H354.787V228.718Z" fill="black" />
		<path d="M393.567 237.037L388.744 221.179H391.655L395.591 234.625H395.951C396.876 234.625 397.549 234.32 397.975 233.71C398.4 233.082 398.612 232.029 398.612 230.55V223.647H395.868V221.179H398.252C399.323 221.179 400.127 221.522 400.664 222.205C401.218 222.888 401.495 223.868 401.495 225.144V229.69C401.495 231.465 401.283 232.897 400.858 233.987C400.451 235.059 399.822 235.835 398.973 236.316C398.141 236.797 397.097 237.037 395.84 237.037H393.567ZM411.161 237.037V226.253C411.161 225.273 410.939 224.543 410.496 224.062C410.052 223.581 409.387 223.342 408.5 223.342C407.668 223.342 406.967 223.545 406.393 223.952C405.839 224.34 405.359 224.839 404.952 225.449L403.067 223.758C403.603 222.833 404.334 222.122 405.257 221.623C406.199 221.106 407.318 220.847 408.611 220.847C410.349 220.847 411.688 221.3 412.63 222.205C413.572 223.11 414.044 224.395 414.044 226.059V237.037H411.161ZM423.01 237.37C421.402 237.37 420.135 236.843 419.212 235.789C418.306 234.736 417.854 233.249 417.854 231.326V221.179H420.737V230.91C420.737 232.203 421.004 233.183 421.54 233.849C422.075 234.496 422.879 234.819 423.952 234.819C424.542 234.819 425.107 234.718 425.643 234.514C426.197 234.31 426.641 233.997 426.973 233.572C427.324 233.146 427.5 232.619 427.5 231.991V221.179H430.411V237.037H427.556V234.403H427.417C427.213 234.92 426.926 235.411 426.558 235.873C426.206 236.316 425.734 236.677 425.144 236.954C424.57 237.231 423.859 237.37 423.01 237.37ZM440.007 237.37C437.993 237.37 436.413 236.825 435.267 235.734C434.121 234.625 433.549 233.082 433.549 231.104V230.882C433.549 229.866 433.816 229.108 434.352 228.609C434.889 228.11 435.627 227.861 436.57 227.861H439.148V230.217H436.376V230.91C436.376 232.314 436.671 233.34 437.263 233.987C437.855 234.635 438.769 234.958 440.007 234.958C441.227 234.958 442.151 234.615 442.779 233.932C443.407 233.229 443.722 232.195 443.722 230.827V227.583C443.722 226.253 443.389 225.217 442.724 224.478C442.058 223.72 441.116 223.342 439.896 223.342C438.972 223.342 438.205 223.545 437.596 223.952C436.986 224.34 436.497 224.857 436.126 225.504L433.826 224.062C434.398 223.009 435.194 222.215 436.21 221.678C437.226 221.124 438.455 220.847 439.896 220.847C442.207 220.847 443.925 221.558 445.052 222.981C446.198 224.385 446.771 226.409 446.771 229.053C446.771 231.788 446.207 233.859 445.08 235.263C443.971 236.667 442.28 237.37 440.007 237.37ZM455.369 237.37C453.355 237.37 451.775 236.825 450.629 235.734C449.484 234.625 448.911 233.082 448.911 231.104V230.882C448.911 229.866 449.18 229.108 449.715 228.609C450.251 228.11 450.99 227.861 451.932 227.861H454.51V230.217H451.738V230.91C451.738 232.314 452.035 233.34 452.625 233.987C453.217 234.635 454.132 234.958 455.369 234.958C456.589 234.958 457.513 234.615 458.141 233.932C458.77 233.229 459.084 232.195 459.084 230.827V227.583C459.084 226.253 458.751 225.217 458.086 224.478C457.421 223.72 456.478 223.342 455.258 223.342C454.335 223.342 453.568 223.545 452.958 223.952C452.348 224.34 451.859 224.857 451.489 225.504L449.188 224.062C449.762 223.009 450.556 222.215 451.572 221.678C452.589 221.124 453.817 220.847 455.258 220.847C457.569 220.847 459.287 221.558 460.414 222.981C461.56 224.385 462.133 226.409 462.133 229.053C462.133 231.788 461.57 233.859 460.442 235.263C459.333 236.667 457.642 237.37 455.369 237.37ZM465.244 237.037V232.463C465.244 231.594 465.391 230.882 465.688 230.328C465.983 229.755 466.361 229.312 466.824 228.997C467.304 228.665 467.795 228.443 468.293 228.332V228.221H464.718V226.89C464.718 225.615 464.985 224.524 465.522 223.619C466.076 222.714 466.842 222.029 467.822 221.567C468.82 221.086 469.975 220.847 471.287 220.847C473.485 220.847 475.131 221.411 476.221 222.538C477.311 223.665 477.857 225.199 477.857 227.14V237.037H474.974V227.112C474.974 225.892 474.641 224.959 473.976 224.312C473.329 223.647 472.414 223.314 471.232 223.314C470.048 223.314 469.125 223.609 468.46 224.201C467.813 224.793 467.49 225.708 467.49 226.946L466.519 226.225H470.955V228.304C469.993 228.342 469.282 228.647 468.82 229.219C468.357 229.792 468.127 230.706 468.127 231.964V237.037H465.244ZM492.498 237.037C491.518 237.037 490.78 236.778 490.281 236.261C489.8 235.724 489.56 235.013 489.56 234.126V221.179H492.47V234.597H495.132V237.037H492.498ZM484.82 237.037C483.84 237.037 483.101 236.778 482.602 236.261C482.121 235.724 481.882 235.013 481.882 234.126V221.179H484.792V234.597H487.453V237.037H484.82ZM503.503 237.37C502.079 237.37 500.897 237.13 499.955 236.649C499.03 236.15 498.347 235.419 497.903 234.459C497.46 233.498 497.238 232.314 497.238 230.91V221.179H500.121V230.966C500.121 231.815 500.242 232.536 500.481 233.128C500.741 233.701 501.119 234.136 501.618 234.431C502.117 234.726 502.745 234.875 503.503 234.875C504.261 234.875 504.889 234.726 505.388 234.431C505.887 234.136 506.257 233.701 506.496 233.128C506.736 232.536 506.857 231.815 506.857 230.966V221.179H509.767V230.91C509.767 232.314 509.536 233.498 509.074 234.459C508.631 235.419 507.948 236.15 507.023 236.649C506.099 237.13 504.926 237.37 503.503 237.37ZM519.841 237.37C518.417 237.37 517.235 237.13 516.293 236.649C515.368 236.15 514.685 235.419 514.241 234.459C513.798 233.498 513.576 232.314 513.576 230.91V221.179H516.459V230.966C516.459 231.815 516.578 232.536 516.819 233.128C517.077 233.701 517.457 234.136 517.956 234.431C518.455 234.726 519.083 234.875 519.841 234.875C520.597 234.875 521.227 234.726 521.726 234.431C522.225 234.136 522.593 233.701 522.834 233.128C523.074 232.536 523.195 231.815 523.195 230.966V221.179H526.105V230.91C526.105 232.314 525.874 233.498 525.412 234.459C524.969 235.419 524.284 236.15 523.361 236.649C522.437 237.13 521.263 237.37 519.841 237.37ZM530.051 237.037V221.179H532.906V223.813H533.045C533.267 223.296 533.553 222.815 533.904 222.371C534.274 221.91 534.754 221.54 535.346 221.262C535.937 220.985 536.666 220.847 537.535 220.847C539.125 220.847 540.381 221.373 541.305 222.427C542.23 223.48 542.691 224.968 542.691 226.89V237.037H539.781V227.334C539.781 226.041 539.513 225.07 538.977 224.423C538.46 223.758 537.664 223.425 536.593 223.425C535.983 223.425 535.401 223.526 534.847 223.73C534.292 223.934 533.839 224.247 533.488 224.672C533.138 225.079 532.962 225.605 532.962 226.253V237.037H530.051ZM530.45 219.072V216.827H539.21V214.221H541.843V216.217C541.843 217.177 541.603 217.898 541.122 218.379C540.643 218.841 539.93 219.072 538.988 219.072H530.45ZM538.932 212.474V208.371H541.289V212.474H538.932ZM548.6 237.037C547.62 237.037 546.881 236.778 546.382 236.261C545.901 235.724 545.661 235.013 545.661 234.126V221.179H548.572V234.597H551.233V237.037H548.6ZM558.486 237.37C557.044 237.37 555.825 237.083 554.827 236.51C553.847 235.938 552.997 235.189 552.277 234.265L554.245 232.49C554.855 233.285 555.502 233.886 556.185 234.292C556.888 234.699 557.7 234.902 558.624 234.902C559.456 234.902 560.131 234.699 560.648 234.292C561.165 233.886 561.424 233.332 561.424 232.629C561.424 232.093 561.24 231.603 560.87 231.16C560.519 230.698 559.872 230.401 558.929 230.273L557.848 230.134C556.888 229.986 556.037 229.746 555.298 229.413C554.559 229.062 553.985 228.581 553.579 227.971C553.191 227.362 552.997 226.585 552.997 225.643C552.997 224.552 553.247 223.656 553.746 222.954C554.245 222.251 554.91 221.724 555.742 221.373C556.573 221.023 557.488 220.847 558.486 220.847C559.723 220.847 560.796 221.078 561.701 221.54C562.606 221.983 563.382 222.611 564.03 223.425L562.034 225.199C561.628 224.682 561.109 224.247 560.482 223.896C559.872 223.526 559.169 223.342 558.375 223.342C557.561 223.342 556.915 223.536 556.435 223.924C555.954 224.312 555.714 224.829 555.714 225.476C555.714 226.142 555.945 226.659 556.407 227.029C556.888 227.38 557.525 227.611 558.319 227.722L559.511 227.861C561.157 228.082 562.339 228.581 563.059 229.358C563.798 230.134 564.168 231.15 564.168 232.407C564.168 233.978 563.651 235.198 562.616 236.067C561.581 236.936 560.204 237.37 558.486 237.37ZM573.249 237.037V226.253C573.249 225.273 573.027 224.543 572.584 224.062C572.14 223.581 571.475 223.342 570.588 223.342C569.757 223.342 569.054 223.545 568.481 223.952C567.927 224.34 567.446 224.839 567.04 225.449L565.155 223.758C565.69 222.833 566.42 222.122 567.345 221.623C568.287 221.106 569.404 220.847 570.699 220.847C572.436 220.847 573.776 221.3 574.718 222.205C575.661 223.11 576.132 224.395 576.132 226.059V237.037H573.249ZM580.079 237.037V221.179H582.934V223.813H583.073C583.295 223.296 583.582 222.815 583.932 222.371C584.302 221.91 584.782 221.54 585.374 221.262C585.965 220.985 586.694 220.847 587.563 220.847C589.153 220.847 590.409 221.373 591.333 222.427C592.258 223.48 592.719 224.968 592.719 226.89V237.037H589.809V227.334C589.809 226.041 589.541 225.07 589.005 224.423C588.488 223.758 587.692 223.425 586.621 223.425C586.011 223.425 585.429 223.526 584.875 223.73C584.32 223.934 583.867 224.247 583.516 224.672C583.166 225.079 582.99 225.605 582.99 226.253V237.037H580.079ZM590.292 219.183C589.275 219.183 588.536 218.952 588.075 218.49C587.612 218.009 587.382 217.419 587.382 216.716V215.94C587.382 215.219 587.612 214.627 588.075 214.165C588.536 213.704 589.275 213.472 590.292 213.472C591.308 213.472 592.047 213.704 592.51 214.165C592.972 214.627 593.203 215.219 593.203 215.94V216.716C593.203 217.419 592.972 218.009 592.51 218.49C592.047 218.952 591.308 219.183 590.292 219.183ZM590.292 217.658C590.681 217.658 590.976 217.557 591.179 217.353C591.382 217.132 591.484 216.789 591.484 216.328C591.484 215.884 591.382 215.551 591.179 215.33C590.976 215.108 590.681 214.997 590.292 214.997C589.885 214.997 589.58 215.108 589.378 215.33C589.174 215.551 589.073 215.884 589.073 216.328C589.073 216.789 589.174 217.132 589.378 217.353C589.58 217.557 589.885 217.658 590.292 217.658ZM602.12 237.037V226.253C602.12 225.273 601.899 224.543 601.455 224.062C601.012 223.581 600.346 223.342 599.459 223.342C598.628 223.342 597.925 223.545 597.353 223.952C596.798 224.34 596.317 224.839 595.911 225.449L594.026 223.758C594.563 222.833 595.292 222.122 596.216 221.623C597.159 221.106 598.277 220.847 599.57 220.847C601.307 220.847 602.647 221.3 603.59 222.205C604.532 223.11 605.003 224.395 605.003 226.059V237.037H602.12Z" fill="black" />
		<path d="M388.051 241.414H607.165V243.438H388.051V241.414Z" fill="black" />
		<path d="M354.787 184.362H371.661L363.9 192.125L365.875 194.065L376.963 182.976L365.875 171.887L363.9 173.827L371.661 181.59H354.787V184.362Z" fill="black" />
		<path d="M393.428 192.678C392.449 192.678 391.71 192.418 391.211 191.901C390.73 191.365 390.49 190.654 390.49 189.767V176.82H393.401V190.238H396.062V192.678H393.428ZM398.297 192.678V188.103C398.297 187.234 398.446 186.523 398.741 185.969C399.038 185.396 399.416 184.953 399.877 184.638C400.358 184.305 400.848 184.083 401.347 183.973V183.862H397.771V182.531C397.771 181.256 398.04 180.165 398.575 179.26C399.129 178.354 399.897 177.67 400.875 177.208C401.873 176.727 403.029 176.487 404.34 176.487C406.54 176.487 408.185 177.051 409.274 178.178C410.365 179.305 410.91 180.84 410.91 182.78V192.678H408.027V182.753C408.027 181.533 407.694 180.6 407.029 179.953C406.383 179.287 405.468 178.955 404.285 178.955C403.103 178.955 402.178 179.25 401.513 179.842C400.867 180.434 400.543 181.349 400.543 182.586L399.572 181.866H404.008V183.945C403.047 183.982 402.336 184.287 401.873 184.86C401.412 185.432 401.18 186.347 401.18 187.604V192.678H398.297ZM398.698 174.713V172.467H407.457V169.861H410.091V171.857C410.091 172.818 409.849 173.539 409.37 174.02C408.889 174.481 408.178 174.713 407.236 174.713H398.698ZM407.18 168.115V164.012H409.536V168.115H407.18ZM419.397 193.01C418.049 193.01 416.903 192.789 415.96 192.345C415.037 191.901 414.335 191.264 413.854 190.432C413.374 189.582 413.133 188.565 413.133 187.382V186.717C413.133 185.941 413.244 185.266 413.466 184.693C413.707 184.121 414.057 183.677 414.519 183.363C414.982 183.048 415.536 182.891 416.182 182.891H416.431V182.78C415.896 182.67 415.398 182.485 414.935 182.226C414.473 181.967 414.095 181.626 413.798 181.2C413.521 180.775 413.382 180.258 413.382 179.648V179.537C413.382 178.705 413.642 178.049 414.159 177.568C414.677 177.069 415.443 176.82 416.459 176.82H419.148V179.176H416.127V179.648C416.127 180.202 416.219 180.719 416.404 181.2C416.589 181.681 416.885 182.069 417.291 182.365C417.698 182.642 418.215 182.78 418.844 182.78H419.482V185.165H416.016V187.078C416.016 187.798 416.146 188.418 416.404 188.935C416.663 189.452 417.041 189.85 417.54 190.127C418.039 190.386 418.659 190.515 419.397 190.515C420.156 190.515 420.783 190.367 421.284 190.072C421.781 189.776 422.151 189.341 422.391 188.769C422.632 188.177 422.753 187.456 422.753 186.606V176.82H425.663V186.551C425.663 187.955 425.432 189.139 424.969 190.099C424.526 191.06 423.842 191.791 422.918 192.29C422.013 192.771 420.839 193.01 419.397 193.01ZM434.083 193.01C432.66 193.01 431.45 192.687 430.452 192.04C429.454 191.375 428.724 190.469 428.262 189.323L430.756 188.186C430.941 188.648 431.173 189.056 431.45 189.406C431.745 189.739 432.105 190.007 432.531 190.21C432.955 190.395 433.454 190.488 434.028 190.488C435.062 190.488 435.885 190.127 436.495 189.406C437.123 188.667 437.437 187.632 437.437 186.301V183.224C437.437 181.875 437.123 180.84 436.495 180.119C435.885 179.38 435.062 179.01 434.028 179.01C433.196 179.01 432.512 179.222 431.977 179.648C431.458 180.054 431.07 180.6 430.812 181.283L428.29 180.119C428.733 179.028 429.444 178.151 430.424 177.485C431.403 176.82 432.614 176.487 434.056 176.487C436.18 176.487 437.778 177.19 438.851 178.594C439.922 179.98 440.459 182.032 440.459 184.749C440.459 187.484 439.922 189.545 438.851 190.931C437.798 192.317 436.208 193.01 434.083 193.01ZM443.574 192.678V188.103C443.574 187.234 443.723 186.523 444.018 185.969C444.315 185.396 444.693 184.953 445.154 184.638C445.635 184.305 446.125 184.083 446.624 183.973V183.862H443.048V182.531C443.048 181.256 443.317 180.165 443.852 179.26C444.406 178.354 445.174 177.67 446.152 177.208C447.15 176.727 448.306 176.487 449.617 176.487C451.817 176.487 453.462 177.051 454.551 178.178C455.642 179.305 456.187 180.84 456.187 182.78V192.678H453.304V182.753C453.304 181.533 452.971 180.6 452.306 179.953C451.66 179.287 450.745 178.955 449.562 178.955C448.38 178.955 447.455 179.25 446.79 179.842C446.144 180.434 445.82 181.349 445.82 182.586L444.849 181.866H449.285V183.945C448.324 183.982 447.613 184.287 447.15 184.86C446.689 185.432 446.457 186.347 446.457 187.604V192.678H443.574ZM452.761 174.713C451.578 174.713 450.709 174.454 450.155 173.937C449.601 173.42 449.323 172.596 449.323 171.469V170.471H451.957V172.467H458.221V174.713H452.761ZM465.672 193.01C464.25 193.01 463.067 192.771 462.124 192.29C461.201 191.791 460.517 191.06 460.073 190.099C459.63 189.139 459.408 187.955 459.408 186.551V176.82H462.291V186.606C462.291 187.456 462.411 188.177 462.651 188.769C462.91 189.341 463.288 189.776 463.787 190.072C464.286 190.367 464.916 190.515 465.672 190.515C466.431 190.515 467.058 190.367 467.557 190.072C468.056 189.776 468.426 189.341 468.666 188.769C468.907 188.177 469.026 187.456 469.026 186.606V176.82H471.937V186.551C471.937 187.955 471.707 189.139 471.244 190.099C470.8 191.06 470.117 191.791 469.193 192.29C468.27 192.771 467.096 193.01 465.672 193.01ZM478.933 192.678C477.953 192.678 477.215 192.418 476.716 191.901C476.235 191.365 475.995 190.654 475.995 189.767V176.82H478.906V190.238H481.567V192.678H478.933ZM488.82 193.01C487.378 193.01 486.158 192.723 485.161 192.151C484.182 191.578 483.331 190.83 482.61 189.905L484.578 188.131C485.188 188.925 485.836 189.527 486.519 189.933C487.221 190.339 488.035 190.543 488.958 190.543C489.79 190.543 490.465 190.339 490.982 189.933C491.5 189.527 491.758 188.972 491.758 188.27C491.758 187.733 491.573 187.244 491.203 186.8C490.853 186.339 490.205 186.042 489.263 185.913L488.182 185.775C487.221 185.626 486.372 185.386 485.632 185.054C484.893 184.703 484.321 184.222 483.913 183.612C483.525 183.002 483.331 182.226 483.331 181.283C483.331 180.192 483.581 179.297 484.08 178.594C484.578 177.891 485.244 177.365 486.075 177.014C486.907 176.663 487.822 176.487 488.82 176.487C490.059 176.487 491.13 176.719 492.035 177.18C492.941 177.624 493.718 178.252 494.363 179.065L492.368 180.84C491.962 180.323 491.445 179.887 490.815 179.537C490.205 179.167 489.504 178.982 488.709 178.982C487.896 178.982 487.249 179.176 486.768 179.565C486.289 179.953 486.048 180.47 486.048 181.117C486.048 181.782 486.279 182.299 486.741 182.67C487.221 183.02 487.859 183.252 488.653 183.363L489.845 183.501C491.49 183.723 492.673 184.222 493.393 184.998C494.133 185.775 494.502 186.791 494.502 188.048C494.502 189.618 493.985 190.838 492.95 191.707C491.916 192.576 490.538 193.01 488.82 193.01ZM503.583 192.678V181.893C503.583 180.913 503.361 180.184 502.918 179.703C502.474 179.222 501.809 178.982 500.922 178.982C500.09 178.982 499.388 179.186 498.815 179.592C498.261 179.98 497.78 180.479 497.374 181.089L495.489 179.398C496.024 178.474 496.754 177.762 497.679 177.263C498.621 176.746 499.738 176.487 501.033 176.487C502.769 176.487 504.11 176.941 505.052 177.846C505.995 178.751 506.466 180.036 506.466 181.699V192.678H503.583Z" fill="black" />
		<path d="M388.051 197.055H508.628V199.078H388.051V197.055Z" fill="black" />
		<path d="M650 263.371H354.787V313.273H404.682V480.306H650V263.371Z" fill="black" />
		<path d="M368.646 289.71H385.521L377.759 297.472L379.734 299.413L390.822 288.324L379.734 277.234L377.759 279.175L385.521 286.938H368.646V289.71Z" fill="#F6F7F5" />
		<path d="M438.057 303.569H426.276V283.664H428.937V301.185H438.057V303.569ZM449.261 303.569V301.13C448.835 301.979 448.208 302.645 447.376 303.126C446.562 303.607 445.602 303.847 444.493 303.847C442.977 303.847 441.757 303.449 440.834 302.655C439.928 301.86 439.476 300.797 439.476 299.466C439.476 298.025 440.039 296.934 441.167 296.195C442.294 295.456 443.957 295.086 446.156 295.086C446.58 295.086 446.996 295.096 447.404 295.114C447.828 295.132 448.364 295.179 449.011 295.252V294.116C449.011 293.007 448.725 292.138 448.152 291.51C447.578 290.882 446.774 290.567 445.741 290.567C444.668 290.567 443.809 290.882 443.163 291.51C442.515 292.138 442.173 292.997 442.137 294.088H439.919C439.956 292.979 440.215 292.018 440.696 291.205C441.195 290.391 441.878 289.763 442.747 289.32C443.614 288.858 444.612 288.627 445.741 288.627C447.515 288.627 448.891 289.108 449.871 290.068C450.849 291.029 451.34 292.379 451.34 294.116V303.569H449.261ZM441.804 299.383C441.804 300.197 442.09 300.853 442.664 301.352C443.236 301.833 443.994 302.072 444.937 302.072C446.174 302.072 447.163 301.712 447.903 300.991C448.641 300.252 449.011 299.272 449.011 298.052V296.805C448.438 296.749 447.93 296.712 447.487 296.694C447.061 296.676 446.664 296.666 446.295 296.666C444.798 296.666 443.67 296.888 442.913 297.332C442.173 297.775 441.804 298.459 441.804 299.383ZM457.136 295.197V303.569H454.669V288.904H456.97V291.482C457.449 290.632 458.097 289.948 458.91 289.431C459.742 288.894 460.674 288.627 461.71 288.627C463.225 288.627 464.435 289.098 465.341 290.04C466.246 290.983 466.699 292.332 466.699 294.088V303.569H464.26V294.92C464.26 293.589 463.973 292.573 463.401 291.87C462.827 291.149 461.987 290.789 460.878 290.789C460.193 290.789 459.566 290.973 458.993 291.343C458.419 291.714 457.968 292.231 457.635 292.896C457.302 293.543 457.136 294.31 457.136 295.197ZM468.978 296.223C468.978 294.744 469.245 293.432 469.782 292.286C470.318 291.14 471.066 290.244 472.027 289.597C473.007 288.95 474.143 288.627 475.436 288.627C476.472 288.627 477.414 288.894 478.264 289.431C479.113 289.948 479.788 290.688 480.287 291.648V283.664H482.754V303.569H480.454V300.769C479.937 301.73 479.244 302.488 478.375 303.043C477.506 303.579 476.527 303.847 475.436 303.847C474.143 303.847 473.007 303.524 472.027 302.876C471.066 302.229 470.318 301.334 469.782 300.187C469.245 299.023 468.978 297.702 468.978 296.223ZM471.5 296.223C471.5 297.96 471.906 299.31 472.72 300.27C473.533 301.213 474.595 301.684 475.908 301.684C476.777 301.684 477.533 301.462 478.181 301.019C478.846 300.575 479.363 299.947 479.733 299.134C480.121 298.302 480.315 297.322 480.315 296.195C480.315 295.031 480.121 294.051 479.733 293.256C479.345 292.443 478.818 291.833 478.153 291.427C477.488 291.001 476.739 290.789 475.908 290.789C474.595 290.789 473.533 291.26 472.72 292.203C471.906 293.145 471.5 294.486 471.5 296.223ZM488.646 303.569H486.179V288.904H488.646V303.569ZM489.256 285.494C489.256 285.993 489.08 286.409 488.729 286.741C488.397 287.056 487.953 287.213 487.399 287.213C486.862 287.213 486.419 287.056 486.068 286.741C485.718 286.409 485.542 285.993 485.542 285.494C485.542 285.013 485.718 284.616 486.068 284.302C486.419 283.987 486.862 283.83 487.399 283.83C487.953 283.83 488.397 283.987 488.729 284.302C489.08 284.616 489.256 285.013 489.256 285.494ZM494.561 295.197V303.569H492.094V288.904H494.395V291.482C494.876 290.632 495.522 289.948 496.336 289.431C497.167 288.894 498.1 288.627 499.135 288.627C500.65 288.627 501.861 289.098 502.766 290.04C503.672 290.983 504.125 292.332 504.125 294.088V303.569H501.685V294.92C501.685 293.589 501.398 292.573 500.826 291.87C500.254 291.149 499.412 290.789 498.304 290.789C497.62 290.789 496.991 290.973 496.419 291.343C495.846 291.714 495.393 292.231 495.06 292.896C494.728 293.543 494.561 294.31 494.561 295.197ZM513.195 309.225C511.939 309.225 510.838 309.003 509.896 308.56C508.953 308.134 508.215 307.524 507.678 306.73C507.161 305.936 506.874 304.993 506.819 303.902H509.175C509.268 304.993 509.656 305.825 510.339 306.397C511.024 306.989 511.967 307.284 513.167 307.284C514.517 307.284 515.533 306.934 516.216 306.231C516.901 305.547 517.242 304.53 517.242 303.181V300.381C516.817 301.306 516.198 302.035 515.384 302.571C514.59 303.088 513.675 303.348 512.64 303.348C511.402 303.348 510.312 303.043 509.369 302.433C508.446 301.805 507.716 300.936 507.179 299.827C506.662 298.7 506.403 297.415 506.403 295.973C506.403 294.494 506.662 293.211 507.179 292.12C507.698 291.011 508.418 290.151 509.342 289.541C510.266 288.932 511.337 288.627 512.557 288.627C513.63 288.627 514.58 288.894 515.412 289.431C516.244 289.967 516.909 290.724 517.408 291.704V288.904H519.709V303.154C519.709 305.057 519.136 306.546 517.99 307.617C516.845 308.689 515.246 309.225 513.195 309.225ZM508.87 295.973C508.87 297.599 509.24 298.884 509.979 299.827C510.737 300.751 511.753 301.213 513.028 301.213C513.879 301.213 514.618 301.001 515.246 300.575C515.875 300.15 516.364 299.55 516.715 298.773C517.085 297.997 517.269 297.1 517.269 296.084C517.269 294.458 516.881 293.163 516.105 292.203C515.348 291.223 514.323 290.734 513.028 290.734C511.753 290.734 510.737 291.205 509.979 292.147C509.24 293.09 508.87 294.365 508.87 295.973ZM535.341 296.472H531.239V303.569H528.577V283.664H535.341C536.782 283.664 538.038 283.914 539.111 284.413C540.182 284.894 541.014 285.605 541.606 286.547C542.215 287.49 542.52 288.645 542.52 290.013C542.52 291.399 542.215 292.573 541.606 293.534C541.014 294.494 540.182 295.225 539.111 295.724C538.038 296.223 536.782 296.472 535.341 296.472ZM535.313 285.91H531.239V294.227H535.313C536.717 294.227 537.826 293.857 538.64 293.118C539.452 292.379 539.859 291.353 539.859 290.04C539.859 288.728 539.452 287.712 538.64 286.991C537.826 286.27 536.717 285.91 535.313 285.91ZM553.537 303.569V301.13C553.112 301.979 552.484 302.645 551.652 303.126C550.839 303.607 549.878 303.847 548.77 303.847C547.255 303.847 546.035 303.449 545.111 302.655C544.206 301.86 543.752 300.797 543.752 299.466C543.752 298.025 544.317 296.934 545.443 296.195C546.57 295.456 548.233 295.086 550.433 295.086C550.858 295.086 551.274 295.096 551.68 295.114C552.106 295.132 552.641 295.179 553.288 295.252V294.116C553.288 293.007 553.001 292.138 552.429 291.51C551.856 290.882 551.052 290.567 550.017 290.567C548.946 290.567 548.086 290.882 547.439 291.51C546.792 292.138 546.451 292.997 546.414 294.088H544.196C544.233 292.979 544.491 292.018 544.972 291.205C545.471 290.391 546.154 289.763 547.023 289.32C547.892 288.858 548.89 288.627 550.017 288.627C551.791 288.627 553.167 289.108 554.147 290.068C555.127 291.029 555.616 292.379 555.616 294.116V303.569H553.537ZM546.081 299.383C546.081 300.197 546.368 300.853 546.94 301.352C547.513 301.833 548.271 302.072 549.213 302.072C550.451 302.072 551.44 301.712 552.179 300.991C552.918 300.252 553.288 299.272 553.288 298.052V296.805C552.716 296.749 552.207 296.712 551.763 296.694C551.338 296.676 550.941 296.666 550.571 296.666C549.075 296.666 547.948 296.888 547.19 297.332C546.451 297.775 546.081 298.459 546.081 299.383ZM564.683 309.225C563.428 309.225 562.327 309.003 561.385 308.56C560.442 308.134 559.704 307.524 559.167 306.73C558.65 305.936 558.363 304.993 558.308 303.902H560.664C560.757 304.993 561.145 305.825 561.828 306.397C562.513 306.989 563.455 307.284 564.656 307.284C566.006 307.284 567.022 306.934 567.705 306.231C568.39 305.547 568.73 304.53 568.73 303.181V300.381C568.306 301.306 567.687 302.035 566.873 302.571C566.079 303.088 565.164 303.348 564.129 303.348C562.891 303.348 561.801 303.043 560.858 302.433C559.935 301.805 559.205 300.936 558.668 299.827C558.151 298.7 557.892 297.415 557.892 295.973C557.892 294.494 558.151 293.211 558.668 292.12C559.187 291.011 559.907 290.151 560.83 289.541C561.755 288.932 562.826 288.627 564.046 288.627C565.119 288.627 566.069 288.894 566.901 289.431C567.733 289.967 568.398 290.724 568.897 291.704V288.904H571.198V303.154C571.198 305.057 570.625 306.546 569.479 307.617C568.334 308.689 566.735 309.225 564.683 309.225ZM560.359 295.973C560.359 297.599 560.729 298.884 561.468 299.827C562.226 300.751 563.242 301.213 564.517 301.213C565.368 301.213 566.107 301.001 566.735 300.575C567.364 300.15 567.853 299.55 568.204 298.773C568.574 297.997 568.758 297.1 568.758 296.084C568.758 294.458 568.37 293.163 567.594 292.203C566.837 291.223 565.812 290.734 564.517 290.734C563.242 290.734 562.226 291.205 561.468 292.147C560.729 293.09 560.359 294.365 560.359 295.973ZM580.565 303.847C579.179 303.847 577.96 303.532 576.906 302.904C575.853 302.257 575.031 301.352 574.439 300.187C573.867 299.023 573.58 297.674 573.58 296.14C573.58 294.698 573.875 293.413 574.467 292.286C575.059 291.159 575.871 290.272 576.906 289.625C577.96 288.959 579.142 288.627 580.454 288.627C581.545 288.627 582.515 288.83 583.365 289.236C584.234 289.643 584.973 290.216 585.583 290.955C586.192 291.694 586.636 292.563 586.913 293.561C587.19 294.559 587.273 295.65 587.163 296.833H574.994V295.197H584.557C584.501 293.718 584.104 292.563 583.365 291.732C582.626 290.9 581.646 290.484 580.427 290.484C579.54 290.484 578.773 290.715 578.126 291.177C577.479 291.639 576.971 292.296 576.601 293.145C576.231 293.977 576.047 294.975 576.047 296.14C576.047 297.322 576.223 298.348 576.574 299.217C576.924 300.086 577.433 300.751 578.098 301.213C578.782 301.675 579.585 301.906 580.51 301.906C581.637 301.906 582.571 301.619 583.31 301.047C584.048 300.455 584.529 299.642 584.751 298.607H587.19C586.84 300.233 586.072 301.518 584.89 302.46C583.725 303.385 582.284 303.847 580.565 303.847ZM433.039 335.285H428.937V342.382H426.276V322.477H433.039C434.481 322.477 435.738 322.726 436.809 323.225C437.881 323.706 438.712 324.417 439.304 325.36C439.914 326.303 440.219 327.457 440.219 328.825C440.219 330.212 439.914 331.386 439.304 332.346C438.712 333.307 437.881 334.037 436.809 334.536C435.738 335.035 434.481 335.285 433.039 335.285ZM433.012 324.722H428.937V333.039H433.012C434.416 333.039 435.525 332.669 436.338 331.93C437.152 331.192 437.558 330.166 437.558 328.853C437.558 327.54 437.152 326.524 436.338 325.804C435.525 325.083 434.416 324.722 433.012 324.722ZM448.353 342.659C447.337 342.659 446.395 342.475 445.526 342.105C444.658 341.717 443.9 341.18 443.253 340.497C442.625 339.814 442.136 339.01 441.784 338.085C441.433 337.142 441.257 336.126 441.257 335.035C441.257 333.944 441.433 332.938 441.784 332.014C442.136 331.089 442.625 330.285 443.253 329.602C443.9 328.918 444.658 328.392 445.526 328.021C446.395 327.651 447.337 327.467 448.353 327.467C449.388 327.467 450.341 327.651 451.208 328.021C452.077 328.392 452.826 328.918 453.453 329.602C454.083 330.285 454.572 331.089 454.923 332.014C455.293 332.938 455.477 333.944 455.477 335.035C455.477 336.126 455.293 337.142 454.923 338.085C454.572 339.01 454.083 339.814 453.453 340.497C452.826 341.18 452.077 341.717 451.208 342.105C450.341 342.475 449.388 342.659 448.353 342.659ZM448.353 340.497C449.222 340.497 449.998 340.275 450.682 339.832C451.384 339.388 451.929 338.76 452.317 337.946C452.724 337.133 452.927 336.162 452.927 335.035C452.927 333.926 452.724 332.966 452.317 332.152C451.929 331.339 451.384 330.72 450.682 330.295C449.998 329.851 449.222 329.629 448.353 329.629C447.504 329.629 446.727 329.851 446.025 330.295C445.341 330.72 444.797 331.339 444.389 332.152C443.983 332.966 443.779 333.926 443.779 335.035C443.779 336.162 443.983 337.133 444.389 337.946C444.797 338.76 445.341 339.388 446.025 339.832C446.727 340.275 447.504 340.497 448.353 340.497ZM460.329 334.73V342.382H457.862V327.716H460.163V330.905C460.681 329.869 461.448 329.047 462.464 328.437C463.481 327.809 464.59 327.495 465.79 327.495V330.073C464.737 330.036 463.794 330.184 462.963 330.517C462.15 330.849 461.503 331.366 461.022 332.069C460.561 332.772 460.329 333.659 460.329 334.73ZM476.39 339.998V342.16C475.984 342.345 475.596 342.475 475.226 342.548C474.857 342.622 474.469 342.659 474.062 342.659C473.194 342.659 472.418 342.503 471.733 342.188C471.068 341.855 470.541 341.356 470.153 340.691C469.765 340.008 469.571 339.129 469.571 338.057V329.823H466.272V327.716H469.571V323.392H472.038V327.716H476.529V329.823H472.038V337.531C472.038 338.584 472.269 339.323 472.731 339.748C473.212 340.174 473.84 340.386 474.616 340.386C474.931 340.386 475.235 340.358 475.531 340.303C475.827 340.247 476.113 340.146 476.39 339.998ZM482.775 342.382H480.308V329.823H477.01V327.716H480.308V326.552C480.308 325.148 480.668 324.085 481.389 323.364C482.128 322.625 483.173 322.255 484.521 322.255C484.892 322.255 485.232 322.283 485.547 322.338C485.88 322.394 486.175 322.477 486.434 322.588V324.584C486.212 324.491 485.981 324.427 485.741 324.39C485.519 324.352 485.28 324.334 485.02 324.334C484.318 324.334 483.763 324.519 483.357 324.889C482.969 325.239 482.775 325.794 482.775 326.552V327.716H486.961V329.823H482.775V342.382ZM494.212 342.659C493.196 342.659 492.254 342.475 491.385 342.105C490.516 341.717 489.759 341.18 489.112 340.497C488.484 339.814 487.993 339.01 487.643 338.085C487.292 337.142 487.116 336.126 487.116 335.035C487.116 333.944 487.292 332.938 487.643 332.014C487.993 331.089 488.484 330.285 489.112 329.602C489.759 328.918 490.516 328.392 491.385 328.021C492.254 327.651 493.196 327.467 494.212 327.467C495.248 327.467 496.198 327.651 497.067 328.021C497.936 328.392 498.685 328.918 499.313 329.602C499.94 330.285 500.431 331.089 500.782 332.014C501.152 332.938 501.336 333.944 501.336 335.035C501.336 336.126 501.152 337.142 500.782 338.085C500.431 339.01 499.94 339.814 499.313 340.497C498.685 341.18 497.936 341.717 497.067 342.105C496.198 342.475 495.248 342.659 494.212 342.659ZM494.212 340.497C495.081 340.497 495.857 340.275 496.541 339.832C497.243 339.388 497.788 338.76 498.176 337.946C498.582 337.133 498.786 336.162 498.786 335.035C498.786 333.926 498.582 332.966 498.176 332.152C497.788 331.339 497.243 330.72 496.541 330.295C495.857 329.851 495.081 329.629 494.212 329.629C493.363 329.629 492.586 329.851 491.884 330.295C491.2 330.72 490.654 331.339 490.248 332.152C489.842 332.966 489.638 333.926 489.638 335.035C489.638 336.162 489.842 337.133 490.248 337.946C490.654 338.76 491.2 339.388 491.884 339.832C492.586 340.275 493.363 340.497 494.212 340.497ZM506.216 342.382H503.721V322.477H506.216V342.382ZM512.13 342.382H509.663V327.716H512.13V342.382ZM512.74 324.306C512.74 324.806 512.565 325.221 512.213 325.554C511.881 325.869 511.437 326.025 510.883 326.025C510.348 326.025 509.904 325.869 509.552 325.554C509.202 325.221 509.026 324.806 509.026 324.306C509.026 323.825 509.202 323.429 509.552 323.114C509.904 322.8 510.348 322.643 510.883 322.643C511.437 322.643 511.881 322.8 512.213 323.114C512.565 323.429 512.74 323.825 512.74 324.306ZM521.621 342.659C520.605 342.659 519.663 342.475 518.794 342.105C517.926 341.717 517.168 341.18 516.521 340.497C515.893 339.814 515.404 339.01 515.052 338.085C514.701 337.142 514.525 336.126 514.525 335.035C514.525 333.944 514.701 332.938 515.052 332.014C515.404 331.089 515.893 330.285 516.521 329.602C517.168 328.918 517.926 328.392 518.794 328.021C519.663 327.651 520.605 327.467 521.621 327.467C522.657 327.467 523.609 327.651 524.476 328.021C525.345 328.392 526.094 328.918 526.722 329.602C527.351 330.285 527.84 331.089 528.191 332.014C528.561 332.938 528.745 333.944 528.745 335.035C528.745 336.126 528.561 337.142 528.191 338.085C527.84 339.01 527.351 339.814 526.722 340.497C526.094 341.18 525.345 341.717 524.476 342.105C523.609 342.475 522.657 342.659 521.621 342.659ZM521.621 340.497C522.49 340.497 523.266 340.275 523.95 339.832C524.652 339.388 525.197 338.76 525.585 337.946C525.993 337.133 526.195 336.162 526.195 335.035C526.195 333.926 525.993 332.966 525.585 332.152C525.197 331.339 524.652 330.72 523.95 330.295C523.266 329.851 522.49 329.629 521.621 329.629C520.772 329.629 519.995 329.851 519.293 330.295C518.61 330.72 518.065 331.339 517.657 332.152C517.251 332.966 517.048 333.926 517.048 335.035C517.048 336.162 517.251 337.133 517.657 337.946C518.065 338.76 518.61 339.388 519.293 339.832C519.995 340.275 520.772 340.497 521.621 340.497ZM551.754 342.382L547.374 326.192L542.967 342.382H540.222L535.011 322.477H537.617L541.636 338.418L545.988 322.477H548.788L553.084 338.473L557.131 322.477H559.737L554.526 342.382H551.754ZM566.489 342.659C565.103 342.659 563.884 342.345 562.83 341.717C561.777 341.069 560.954 340.164 560.363 339C559.79 337.835 559.504 336.487 559.504 334.952C559.504 333.511 559.799 332.226 560.391 331.099C560.982 329.972 561.795 329.085 562.83 328.437C563.884 327.772 565.066 327.439 566.378 327.439C567.468 327.439 568.438 327.643 569.289 328.049C570.157 328.455 570.897 329.029 571.507 329.768C572.116 330.507 572.56 331.376 572.837 332.374C573.114 333.372 573.197 334.463 573.087 335.645H560.918V334.01H570.481C570.426 332.531 570.028 331.376 569.289 330.544C568.549 329.713 567.57 329.297 566.351 329.297C565.464 329.297 564.696 329.528 564.05 329.99C563.403 330.451 562.894 331.108 562.525 331.958C562.155 332.79 561.971 333.788 561.971 334.952C561.971 336.135 562.146 337.16 562.498 338.03C562.848 338.899 563.357 339.564 564.022 340.026C564.706 340.487 565.509 340.719 566.434 340.719C567.561 340.719 568.493 340.432 569.234 339.859C569.972 339.267 570.453 338.455 570.675 337.42H573.114C572.762 339.046 571.996 340.331 570.814 341.273C569.649 342.198 568.208 342.659 566.489 342.659ZM589.344 335.035C589.344 336.514 589.077 337.835 588.54 339C588.005 340.146 587.257 341.042 586.295 341.689C585.334 342.336 584.198 342.659 582.885 342.659C581.814 342.659 580.834 342.392 579.947 341.855C579.08 341.301 578.387 340.543 577.868 339.582V342.382H575.567V322.477H578.035V330.461C578.533 329.5 579.199 328.76 580.03 328.243C580.881 327.707 581.832 327.439 582.885 327.439C584.198 327.439 585.334 327.762 586.295 328.41C587.257 329.057 588.005 329.952 588.54 331.099C589.077 332.245 589.344 333.556 589.344 335.035ZM586.822 335.035C586.822 333.299 586.406 331.958 585.574 331.016C584.762 330.073 583.709 329.602 582.414 329.602C581.583 329.602 580.834 329.814 580.169 330.239C579.504 330.645 578.977 331.255 578.589 332.069C578.201 332.863 578.007 333.843 578.007 335.008C578.007 336.135 578.193 337.115 578.561 337.946C578.949 338.76 579.476 339.388 580.141 339.832C580.806 340.275 581.565 340.497 582.414 340.497C583.709 340.497 584.762 340.026 585.574 339.083C586.406 338.122 586.822 336.772 586.822 335.035ZM603.08 338.113C603.08 339.517 602.554 340.626 601.5 341.44C600.447 342.253 598.978 342.659 597.093 342.659C595.208 342.659 593.711 342.216 592.603 341.329C591.512 340.441 590.902 339.222 590.773 337.669H593.101C593.157 338.649 593.545 339.416 594.266 339.97C594.986 340.525 595.939 340.802 597.121 340.802C598.192 340.802 599.043 340.608 599.671 340.22C600.299 339.832 600.613 339.267 600.613 338.529C600.613 337.863 600.401 337.364 599.976 337.031C599.55 336.699 598.839 336.431 597.841 336.228L595.568 335.812C594.201 335.552 593.147 335.081 592.408 334.398C591.688 333.714 591.327 332.827 591.327 331.736C591.327 330.887 591.559 330.146 592.02 329.518C592.482 328.871 593.129 328.364 593.961 327.994C594.792 327.624 595.762 327.439 596.871 327.439C598.017 327.439 599.024 327.633 599.893 328.021C600.762 328.41 601.455 328.974 601.972 329.713C602.489 330.433 602.785 331.293 602.859 332.291H600.53C600.437 331.348 600.069 330.618 599.421 330.101C598.774 329.564 597.925 329.297 596.871 329.297C595.929 329.297 595.162 329.5 594.571 329.907C593.998 330.295 593.711 330.831 593.711 331.515C593.711 332.162 593.923 332.661 594.349 333.012C594.774 333.344 595.476 333.604 596.456 333.788L598.812 334.231C600.271 334.509 601.344 334.97 602.027 335.618C602.73 336.246 603.08 337.077 603.08 338.113ZM608.164 342.382H605.697V327.716H608.164V342.382ZM608.774 324.306C608.774 324.806 608.599 325.221 608.247 325.554C607.915 325.869 607.471 326.025 606.917 326.025C606.382 326.025 605.938 325.869 605.586 325.554C605.236 325.221 605.06 324.806 605.06 324.306C605.06 323.825 605.236 323.429 605.586 323.114C605.938 322.8 606.382 322.643 606.917 322.643C607.471 322.643 607.915 322.8 608.247 323.114C608.599 323.429 608.774 323.825 608.774 324.306ZM619.596 339.998V342.16C619.19 342.345 618.802 342.475 618.431 342.548C618.063 342.622 617.675 342.659 617.267 342.659C616.4 342.659 615.624 342.503 614.939 342.188C614.274 341.855 613.747 341.356 613.359 340.691C612.971 340.008 612.777 339.129 612.777 338.057V329.823H609.478V327.716H612.777V323.392H615.244V327.716H619.734V329.823H615.244V337.531C615.244 338.584 615.475 339.323 615.937 339.748C616.418 340.174 617.046 340.386 617.822 340.386C618.136 340.386 618.441 340.358 618.736 340.303C619.033 340.247 619.319 340.146 619.596 339.998ZM627.439 342.659C626.053 342.659 624.833 342.345 623.78 341.717C622.727 341.069 621.905 340.164 621.313 339C620.741 337.835 620.454 336.487 620.454 334.952C620.454 333.511 620.75 332.226 621.341 331.099C621.932 329.972 622.746 329.085 623.78 328.437C624.833 327.772 626.017 327.439 627.328 327.439C628.419 327.439 629.389 327.643 630.239 328.049C631.108 328.455 631.846 329.029 632.456 329.768C633.066 330.507 633.51 331.376 633.787 332.374C634.064 333.372 634.147 334.463 634.036 335.645H621.867V334.01H631.431C631.375 332.531 630.979 331.376 630.239 330.544C629.5 329.713 628.52 329.297 627.3 329.297C626.413 329.297 625.647 329.528 625 329.99C624.354 330.451 623.845 331.108 623.475 331.958C623.106 332.79 622.921 333.788 622.921 334.952C622.921 336.135 623.097 337.16 623.447 338.03C623.799 338.899 624.307 339.564 624.972 340.026C625.657 340.487 626.46 340.719 627.384 340.719C628.512 340.719 629.444 340.432 630.183 339.859C630.923 339.267 631.403 338.455 631.625 337.42H634.064C633.713 339.046 632.947 340.331 631.763 341.273C630.599 342.198 629.158 342.659 627.439 342.659ZM434.924 381.611C433.538 381.611 432.254 381.351 431.071 380.834C429.889 380.298 428.844 379.559 427.939 378.617C427.052 377.674 426.359 376.575 425.86 375.317C425.379 374.042 425.139 372.674 425.139 371.214C425.139 369.755 425.379 368.396 425.86 367.139C426.359 365.882 427.052 364.792 427.939 363.868C428.844 362.925 429.889 362.195 431.071 361.678C432.254 361.141 433.538 360.874 434.924 360.874C436.55 360.874 438.039 361.216 439.387 361.899C440.755 362.565 441.892 363.507 442.797 364.727C443.702 365.947 444.276 367.371 444.515 368.997H441.716C441.512 367.87 441.088 366.88 440.441 366.03C439.813 365.161 439.027 364.487 438.084 364.006C437.142 363.507 436.098 363.258 434.952 363.258C433.917 363.258 432.966 363.462 432.097 363.868C431.228 364.256 430.48 364.81 429.852 365.531C429.224 366.234 428.733 367.074 428.383 368.054C428.05 369.015 427.884 370.068 427.884 371.214C427.884 372.379 428.05 373.45 428.383 374.43C428.733 375.391 429.224 376.232 429.852 376.953C430.48 377.674 431.228 378.238 432.097 378.644C432.966 379.032 433.917 379.226 434.952 379.226C436.116 379.226 437.17 378.987 438.112 378.506C439.073 378.007 439.868 377.323 440.496 376.454C441.124 375.567 441.531 374.569 441.716 373.46H444.515C444.276 375.086 443.702 376.51 442.797 377.729C441.892 378.949 440.755 379.901 439.387 380.585C438.039 381.268 436.55 381.611 434.924 381.611ZM453.064 381.472C452.047 381.472 451.104 381.288 450.237 380.918C449.368 380.529 448.61 379.993 447.964 379.31C447.334 378.626 446.845 377.822 446.495 376.898C446.142 375.955 445.968 374.939 445.968 373.848C445.968 372.757 446.142 371.751 446.495 370.826C446.845 369.902 447.334 369.098 447.964 368.414C448.61 367.731 449.368 367.204 450.237 366.834C451.104 366.464 452.047 366.28 453.064 366.28C454.098 366.28 455.05 366.464 455.919 366.834C456.787 367.204 457.535 367.731 458.164 368.414C458.792 369.098 459.282 369.902 459.634 370.826C460.002 371.751 460.188 372.757 460.188 373.848C460.188 374.939 460.002 375.955 459.634 376.898C459.282 377.822 458.792 378.626 458.164 379.31C457.535 379.993 456.787 380.529 455.919 380.918C455.05 381.288 454.098 381.472 453.064 381.472ZM453.064 379.31C453.932 379.31 454.708 379.088 455.392 378.644C456.094 378.201 456.64 377.573 457.028 376.759C457.434 375.945 457.638 374.975 457.638 373.848C457.638 372.739 457.434 371.779 457.028 370.965C456.64 370.151 456.094 369.533 455.392 369.107C454.708 368.664 453.932 368.442 453.064 368.442C452.213 368.442 451.437 368.664 450.736 369.107C450.051 369.533 449.506 370.151 449.1 370.965C448.693 371.779 448.49 372.739 448.49 373.848C448.49 374.975 448.693 375.945 449.1 376.759C449.506 377.573 450.051 378.201 450.736 378.644C451.437 379.088 452.213 379.31 453.064 379.31ZM465.04 372.822V381.195H462.573V366.529H464.874V369.107C465.355 368.258 466.001 367.573 466.814 367.056C467.646 366.519 468.579 366.252 469.614 366.252C471.129 366.252 472.34 366.723 473.245 367.666C474.15 368.608 474.603 369.957 474.603 371.713V381.195H472.164V372.545C472.164 371.214 471.877 370.198 471.305 369.496C470.732 368.775 469.891 368.414 468.782 368.414C468.099 368.414 467.47 368.599 466.897 368.969C466.325 369.339 465.872 369.856 465.539 370.521C465.207 371.169 465.04 371.935 465.04 372.822ZM485.865 378.811V380.973C485.458 381.157 485.07 381.288 484.7 381.361C484.332 381.435 483.944 381.472 483.536 381.472C482.668 381.472 481.892 381.315 481.208 381.001C480.542 380.668 480.016 380.169 479.628 379.504C479.24 378.82 479.045 377.941 479.045 376.87V368.636H475.747V366.529H479.045V362.204H481.513V366.529H486.003V368.636H481.513V376.343C481.513 377.397 481.744 378.136 482.206 378.561C482.686 378.987 483.314 379.199 484.09 379.199C484.405 379.199 484.71 379.171 485.005 379.116C485.302 379.06 485.587 378.959 485.865 378.811ZM493.708 381.472C492.322 381.472 491.102 381.157 490.049 380.529C488.995 379.882 488.174 378.977 487.582 377.813C487.009 376.648 486.722 375.299 486.722 373.765C486.722 372.323 487.019 371.038 487.609 369.911C488.201 368.784 489.015 367.897 490.049 367.25C491.102 366.585 492.286 366.252 493.597 366.252C494.688 366.252 495.658 366.456 496.507 366.862C497.376 367.268 498.115 367.842 498.725 368.581C499.335 369.319 499.778 370.189 500.055 371.187C500.333 372.185 500.416 373.276 500.305 374.458H488.136V372.822H497.699C497.644 371.343 497.247 370.189 496.507 369.357C495.769 368.525 494.789 368.109 493.569 368.109C492.682 368.109 491.916 368.341 491.268 368.802C490.623 369.264 490.114 369.921 489.744 370.771C489.375 371.603 489.189 372.601 489.189 373.765C489.189 374.947 489.365 375.973 489.716 376.842C490.068 377.711 490.575 378.377 491.241 378.838C491.925 379.3 492.729 379.531 493.652 379.531C494.78 379.531 495.713 379.244 496.452 378.672C497.192 378.08 497.672 377.268 497.893 376.232H500.333C499.982 377.858 499.216 379.143 498.032 380.086C496.868 381.01 495.426 381.472 493.708 381.472ZM505.254 372.822V381.195H502.787V366.529H505.088V369.107C505.567 368.258 506.215 367.573 507.028 367.056C507.86 366.519 508.793 366.252 509.828 366.252C511.343 366.252 512.553 366.723 513.459 367.666C514.364 368.608 514.817 369.957 514.817 371.713V381.195H512.378V372.545C512.378 371.214 512.091 370.198 511.519 369.496C510.945 368.775 510.105 368.414 508.996 368.414C508.312 368.414 507.684 368.599 507.111 368.969C506.538 369.339 506.086 369.856 505.753 370.521C505.421 371.169 505.254 371.935 505.254 372.822ZM526.079 378.811V380.973C525.672 381.157 525.284 381.288 524.914 381.361C524.544 381.435 524.156 381.472 523.75 381.472C522.881 381.472 522.105 381.315 521.422 381.001C520.756 380.668 520.23 380.169 519.842 379.504C519.454 378.82 519.26 377.941 519.26 376.87V368.636H515.961V366.529H519.26V362.204H521.727V366.529H526.217V368.636H521.727V376.343C521.727 377.397 521.958 378.136 522.42 378.561C522.9 378.987 523.528 379.199 524.304 379.199C524.619 379.199 524.924 379.171 525.219 379.116C525.514 379.06 525.801 378.959 526.079 378.811ZM549.046 381.195L544.666 365.004L540.258 381.195H537.514L532.303 361.289H534.909L538.928 377.23L543.28 361.289H546.079L550.376 377.286L554.423 361.289H557.029L551.817 381.195H549.046ZM563.781 381.472C562.395 381.472 561.176 381.157 560.122 380.529C559.069 379.882 558.247 378.977 557.655 377.813C557.083 376.648 556.796 375.299 556.796 373.765C556.796 372.323 557.091 371.038 557.683 369.911C558.275 368.784 559.087 367.897 560.122 367.25C561.176 366.585 562.358 366.252 563.67 366.252C564.761 366.252 565.731 366.456 566.581 366.862C567.45 367.268 568.189 367.842 568.798 368.581C569.408 369.319 569.852 370.189 570.129 371.187C570.406 372.185 570.489 373.276 570.378 374.458H558.21V372.822H567.773C567.717 371.343 567.32 370.189 566.581 369.357C565.842 368.525 564.862 368.109 563.643 368.109C562.756 368.109 561.989 368.341 561.342 368.802C560.695 369.264 560.187 369.921 559.817 370.771C559.447 371.603 559.263 372.601 559.263 373.765C559.263 374.947 559.439 375.973 559.79 376.842C560.14 377.711 560.649 378.377 561.314 378.838C561.997 379.3 562.801 379.531 563.726 379.531C564.853 379.531 565.787 379.244 566.525 378.672C567.264 378.08 567.745 377.268 567.967 376.232H570.406C570.055 377.858 569.288 379.143 568.105 380.086C566.941 381.01 565.5 381.472 563.781 381.472ZM586.636 373.848C586.636 375.327 586.368 376.648 585.832 377.813C585.297 378.959 584.549 379.854 583.587 380.502C582.626 381.149 581.49 381.472 580.177 381.472C579.106 381.472 578.126 381.204 577.239 380.668C576.371 380.114 575.678 379.355 575.16 378.395V381.195H572.859V361.289H575.326V369.274C575.825 368.313 576.491 367.573 577.322 367.056C578.173 366.519 579.124 366.252 580.177 366.252C581.49 366.252 582.626 366.575 583.587 367.222C584.549 367.87 585.297 368.765 585.832 369.911C586.368 371.058 586.636 372.369 586.636 373.848ZM584.113 373.848C584.113 372.111 583.698 370.771 582.866 369.828C582.054 368.886 581.001 368.414 579.706 368.414C578.874 368.414 578.126 368.626 577.461 369.052C576.795 369.458 576.269 370.068 575.881 370.882C575.493 371.676 575.299 372.656 575.299 373.82C575.299 374.947 575.484 375.927 575.853 376.759C576.241 377.573 576.768 378.201 577.433 378.644C578.098 379.088 578.856 379.31 579.706 379.31C581.001 379.31 582.054 378.838 582.866 377.896C583.698 376.935 584.113 375.585 584.113 373.848ZM600.372 376.925C600.372 378.33 599.846 379.439 598.792 380.252C597.739 381.066 596.27 381.472 594.385 381.472C592.5 381.472 591.003 381.028 589.894 380.141C588.804 379.254 588.194 378.034 588.065 376.482H590.393C590.449 377.462 590.837 378.228 591.557 378.783C592.278 379.337 593.23 379.615 594.413 379.615C595.484 379.615 596.335 379.42 596.963 379.032C597.591 378.644 597.905 378.08 597.905 377.341C597.905 376.676 597.693 376.177 597.268 375.844C596.842 375.512 596.131 375.244 595.133 375.04L592.86 374.624C591.492 374.365 590.439 373.894 589.7 373.21C588.98 372.527 588.619 371.64 588.619 370.549C588.619 369.699 588.851 368.959 589.312 368.331C589.774 367.684 590.421 367.176 591.253 366.806C592.084 366.436 593.054 366.252 594.163 366.252C595.309 366.252 596.316 366.446 597.185 366.834C598.054 367.222 598.747 367.786 599.263 368.525C599.78 369.246 600.077 370.105 600.15 371.103H597.822C597.729 370.161 597.361 369.43 596.713 368.913C596.066 368.377 595.216 368.109 594.163 368.109C593.221 368.109 592.454 368.313 591.862 368.719C591.29 369.107 591.003 369.644 591.003 370.327C591.003 370.975 591.215 371.474 591.641 371.824C592.066 372.157 592.767 372.416 593.747 372.601L596.103 373.044C597.563 373.321 598.636 373.783 599.319 374.43C600.022 375.058 600.372 375.89 600.372 376.925ZM605.456 381.195H602.989V366.529H605.456V381.195ZM606.066 363.119C606.066 363.618 605.891 364.034 605.539 364.367C605.207 364.681 604.763 364.838 604.209 364.838C603.674 364.838 603.23 364.681 602.878 364.367C602.527 364.034 602.351 363.618 602.351 363.119C602.351 362.638 602.527 362.242 602.878 361.927C603.23 361.612 603.674 361.456 604.209 361.456C604.763 361.456 605.207 361.612 605.539 361.927C605.891 362.242 606.066 362.638 606.066 363.119ZM616.888 378.811V380.973C616.481 381.157 616.093 381.288 615.723 381.361C615.355 381.435 614.967 381.472 614.559 381.472C613.691 381.472 612.915 381.315 612.231 381.001C611.565 380.668 611.039 380.169 610.651 379.504C610.263 378.82 610.069 377.941 610.069 376.87V368.636H606.77V366.529H610.069V362.204H612.536V366.529H617.026V368.636H612.536V376.343C612.536 377.397 612.767 378.136 613.229 378.561C613.709 378.987 614.337 379.199 615.113 379.199C615.428 379.199 615.733 379.171 616.028 379.116C616.325 379.06 616.61 378.959 616.888 378.811ZM624.731 381.472C623.345 381.472 622.125 381.157 621.072 380.529C620.018 379.882 619.197 378.977 618.605 377.813C618.032 376.648 617.745 375.299 617.745 373.765C617.745 372.323 618.042 371.038 618.632 369.911C619.224 368.784 620.038 367.897 621.072 367.25C622.125 366.585 623.309 366.252 624.62 366.252C625.711 366.252 626.681 366.456 627.53 366.862C628.399 367.268 629.138 367.842 629.748 368.581C630.358 369.319 630.801 370.189 631.079 371.187C631.356 372.185 631.439 373.276 631.328 374.458H619.159V372.822H628.722C628.667 371.343 628.271 370.189 627.53 369.357C626.792 368.525 625.812 368.109 624.592 368.109C623.705 368.109 622.939 368.341 622.291 368.802C621.646 369.264 621.137 369.921 620.767 370.771C620.398 371.603 620.212 372.601 620.212 373.765C620.212 374.947 620.389 375.973 620.739 376.842C621.091 377.711 621.598 378.377 622.264 378.838C622.948 379.3 623.752 379.531 624.675 379.531C625.803 379.531 626.736 379.244 627.475 378.672C628.215 378.08 628.695 377.268 628.916 376.232H631.356C631.005 377.858 630.239 379.143 629.055 380.086C627.891 381.01 626.449 381.472 624.731 381.472ZM441.466 420.007L437.087 403.817L432.679 420.007H429.935L424.724 400.102H427.329L431.349 416.043L435.701 400.102H438.5L442.797 416.098L446.844 400.102H449.449L444.238 420.007H441.466ZM456.202 420.285C454.816 420.285 453.596 419.97 452.543 419.342C451.49 418.695 450.666 417.79 450.076 416.625C449.502 415.461 449.217 414.112 449.217 412.578C449.217 411.136 449.512 409.851 450.104 408.724C450.694 407.597 451.508 406.71 452.543 406.063C453.596 405.397 454.779 405.065 456.091 405.065C457.18 405.065 458.151 405.268 459.002 405.674C459.869 406.081 460.609 406.654 461.219 407.393C461.829 408.132 462.272 409.001 462.55 409.999C462.827 410.997 462.91 412.088 462.799 413.271H450.63V411.635H460.193C460.138 410.156 459.74 409.001 459.002 408.17C458.261 407.338 457.283 406.922 456.063 406.922C455.176 406.922 454.408 407.154 453.763 407.615C453.115 408.077 452.607 408.734 452.238 409.583C451.868 410.415 451.684 411.413 451.684 412.578C451.684 413.76 451.858 414.786 452.21 415.655C452.561 416.524 453.07 417.189 453.735 417.651C454.418 418.113 455.222 418.344 456.146 418.344C457.273 418.344 458.206 418.057 458.946 417.485C459.685 416.893 460.166 416.08 460.388 415.045H462.827C462.475 416.671 461.708 417.956 460.526 418.899C459.362 419.823 457.92 420.285 456.202 420.285ZM479.057 412.661C479.057 414.14 478.789 415.461 478.253 416.625C477.716 417.772 476.968 418.667 476.007 419.314C475.047 419.962 473.91 420.285 472.598 420.285C471.527 420.285 470.547 420.017 469.66 419.481C468.791 418.926 468.098 418.168 467.581 417.207V420.007H465.28V400.102H467.747V408.086C468.246 407.126 468.911 406.386 469.743 405.869C470.592 405.332 471.545 405.065 472.598 405.065C473.91 405.065 475.047 405.388 476.007 406.035C476.968 406.682 477.716 407.578 478.253 408.724C478.789 409.87 479.057 411.182 479.057 412.661ZM476.534 412.661C476.534 410.924 476.118 409.583 475.287 408.641C474.473 407.698 473.42 407.227 472.127 407.227C471.295 407.227 470.547 407.439 469.881 407.865C469.216 408.271 468.69 408.881 468.301 409.694C467.913 410.489 467.719 411.469 467.719 412.633C467.719 413.76 467.904 414.74 468.274 415.572C468.662 416.385 469.188 417.013 469.854 417.457C470.519 417.9 471.277 418.122 472.127 418.122C473.42 418.122 474.473 417.651 475.287 416.708C476.118 415.748 476.534 414.398 476.534 412.661ZM489.744 412.688H499.141L499.861 414.823H488.801L489.744 412.688ZM500.693 420.007L494.373 402.985L487.97 420.007H485.309L492.987 400.102H495.898L503.52 420.007H500.693ZM519.379 412.661C519.379 414.158 519.111 415.479 518.575 416.625C518.038 417.772 517.29 418.667 516.33 419.314C515.369 419.962 514.233 420.285 512.92 420.285C511.885 420.285 510.942 420.025 510.093 419.508C509.261 418.991 508.586 418.261 508.069 417.318V425.358H505.602V405.342H507.903V408.225C508.42 407.227 509.113 406.451 509.982 405.896C510.869 405.342 511.849 405.065 512.92 405.065C514.233 405.065 515.369 405.388 516.33 406.035C517.29 406.682 518.038 407.578 518.575 408.724C519.111 409.87 519.379 411.182 519.379 412.661ZM516.856 412.661C516.856 410.942 516.44 409.611 515.609 408.669C514.795 407.708 513.742 407.227 512.449 407.227C511.635 407.227 510.897 407.439 510.231 407.865C509.566 408.29 509.03 408.908 508.624 409.722C508.235 410.516 508.041 411.496 508.041 412.661C508.041 413.788 508.235 414.768 508.624 415.599C509.012 416.413 509.538 417.041 510.204 417.485C510.869 417.91 511.617 418.122 512.449 418.122C513.742 418.122 514.795 417.651 515.609 416.708C516.44 415.748 516.856 414.398 516.856 412.661ZM535.527 412.661C535.527 414.158 535.258 415.479 534.723 416.625C534.186 417.772 533.438 418.667 532.478 419.314C531.516 419.962 530.379 420.285 529.068 420.285C528.033 420.285 527.09 420.025 526.241 419.508C525.409 418.991 524.734 418.261 524.217 417.318V425.358H521.75V405.342H524.051V408.225C524.568 407.227 525.261 406.451 526.13 405.896C527.017 405.342 527.995 405.065 529.068 405.065C530.379 405.065 531.516 405.388 532.478 406.035C533.438 406.682 534.186 407.578 534.723 408.724C535.258 409.87 535.527 411.182 535.527 412.661ZM533.004 412.661C533.004 410.942 532.588 409.611 531.757 408.669C530.943 407.708 529.89 407.227 528.597 407.227C527.783 407.227 527.045 407.439 526.379 407.865C525.714 408.29 525.178 408.908 524.772 409.722C524.383 410.516 524.189 411.496 524.189 412.661C524.189 413.788 524.383 414.768 524.772 415.599C525.16 416.413 525.686 417.041 526.352 417.485C527.017 417.91 527.765 418.122 528.597 418.122C529.89 418.122 530.943 417.651 531.757 416.708C532.588 415.748 533.004 414.398 533.004 412.661ZM540.393 420.007H537.898V400.102H540.393V420.007ZM546.307 420.007H543.84V405.342H546.307V420.007ZM546.917 401.932C546.917 402.431 546.741 402.847 546.39 403.179C546.057 403.494 545.614 403.651 545.059 403.651C544.523 403.651 544.08 403.494 543.729 403.179C543.378 402.847 543.202 402.431 543.202 401.932C543.202 401.451 543.378 401.054 543.729 400.74C544.08 400.425 544.523 400.268 545.059 400.268C545.614 400.268 546.057 400.425 546.39 400.74C546.741 401.054 546.917 401.451 546.917 401.932ZM555.438 420.312C554.107 420.312 552.933 419.989 551.917 419.342C550.919 418.695 550.133 417.799 549.561 416.653C548.989 415.489 548.702 414.158 548.702 412.661C548.702 411.182 548.989 409.879 549.561 408.752C550.153 407.605 550.947 406.71 551.945 406.063C552.961 405.397 554.125 405.065 555.438 405.065C556.62 405.065 557.673 405.314 558.598 405.813C559.54 406.312 560.307 407.023 560.898 407.948C561.508 408.853 561.906 409.934 562.09 411.191H559.512C559.346 409.954 558.893 408.983 558.154 408.28C557.433 407.578 556.528 407.227 555.438 407.227C554.588 407.227 553.848 407.458 553.22 407.92C552.592 408.364 552.102 408.992 551.751 409.805C551.4 410.619 551.224 411.57 551.224 412.661C551.224 413.752 551.4 414.712 551.751 415.544C552.102 416.376 552.592 417.023 553.22 417.485C553.848 417.928 554.588 418.15 555.438 418.15C556.546 418.15 557.461 417.799 558.182 417.096C558.903 416.394 559.356 415.415 559.54 414.158H562.09C561.924 415.433 561.536 416.532 560.926 417.457C560.334 418.362 559.568 419.065 558.625 419.564C557.701 420.063 556.639 420.312 555.438 420.312ZM573.394 420.007V417.568C572.969 418.418 572.341 419.083 571.509 419.564C570.696 420.045 569.735 420.285 568.627 420.285C567.11 420.285 565.891 419.887 564.968 419.093C564.061 418.298 563.609 417.235 563.609 415.904C563.609 414.463 564.172 413.372 565.3 412.633C566.427 411.894 568.09 411.524 570.29 411.524C570.714 411.524 571.13 411.534 571.537 411.552C571.961 411.57 572.498 411.617 573.145 411.69V410.554C573.145 409.445 572.858 408.576 572.286 407.948C571.712 407.32 570.908 407.005 569.874 407.005C568.801 407.005 567.942 407.32 567.296 407.948C566.649 408.576 566.306 409.435 566.27 410.526H564.053C564.089 409.417 564.348 408.457 564.829 407.643C565.328 406.829 566.011 406.201 566.88 405.758C567.748 405.296 568.746 405.065 569.874 405.065C571.648 405.065 573.024 405.546 574.004 406.506C574.983 407.467 575.473 408.817 575.473 410.554V420.007H573.394ZM565.938 415.821C565.938 416.635 566.223 417.291 566.797 417.79C567.369 418.271 568.128 418.51 569.07 418.51C570.308 418.51 571.296 418.15 572.036 417.429C572.775 416.69 573.145 415.71 573.145 414.49V413.243C572.571 413.188 572.064 413.15 571.62 413.132C571.195 413.114 570.797 413.104 570.428 413.104C568.931 413.104 567.803 413.326 567.047 413.77C566.306 414.213 565.938 414.897 565.938 415.821ZM586.677 417.623V419.786C586.27 419.97 585.882 420.1 585.513 420.174C585.143 420.247 584.755 420.285 584.349 420.285C583.48 420.285 582.704 420.128 582.021 419.813C581.355 419.481 580.829 418.982 580.441 418.316C580.053 417.633 579.858 416.754 579.858 415.683V407.449H576.56V405.342H579.858V401.017H582.326V405.342H586.816V407.449H582.326V415.156C582.326 416.209 582.556 416.948 583.018 417.374C583.498 417.799 584.127 418.011 584.903 418.011C585.217 418.011 585.522 417.984 585.818 417.928C586.113 417.873 586.4 417.772 586.677 417.623ZM591.488 420.007H589.021V405.342H591.488V420.007ZM592.098 401.932C592.098 402.431 591.923 402.847 591.571 403.179C591.239 403.494 590.795 403.651 590.241 403.651C589.706 403.651 589.262 403.494 588.91 403.179C588.56 402.847 588.384 402.431 588.384 401.932C588.384 401.451 588.56 401.054 588.91 400.74C589.262 400.425 589.706 400.268 590.241 400.268C590.795 400.268 591.239 400.425 591.571 400.74C591.923 401.054 592.098 401.451 592.098 401.932ZM600.979 420.285C599.963 420.285 599.021 420.1 598.152 419.73C597.284 419.342 596.526 418.806 595.879 418.122C595.251 417.439 594.762 416.635 594.41 415.71C594.059 414.768 593.883 413.752 593.883 412.661C593.883 411.57 594.059 410.563 594.41 409.639C594.762 408.714 595.251 407.91 595.879 407.227C596.526 406.544 597.284 406.017 598.152 405.647C599.021 405.277 599.963 405.092 600.979 405.092C602.015 405.092 602.967 405.277 603.834 405.647C604.703 406.017 605.452 406.544 606.08 407.227C606.709 407.91 607.198 408.714 607.549 409.639C607.919 410.563 608.103 411.57 608.103 412.661C608.103 413.752 607.919 414.768 607.549 415.71C607.198 416.635 606.709 417.439 606.08 418.122C605.452 418.806 604.703 419.342 603.834 419.73C602.967 420.1 602.015 420.285 600.979 420.285ZM600.979 418.122C601.848 418.122 602.624 417.9 603.308 417.457C604.01 417.013 604.555 416.385 604.943 415.572C605.351 414.758 605.553 413.788 605.553 412.661C605.553 411.552 605.351 410.591 604.943 409.778C604.555 408.964 604.01 408.346 603.308 407.92C602.624 407.477 601.848 407.255 600.979 407.255C600.13 407.255 599.354 407.477 598.651 407.92C597.968 408.346 597.423 408.964 597.015 409.778C596.609 410.591 596.406 411.552 596.406 412.661C596.406 413.788 596.609 414.758 597.015 415.572C597.423 416.385 597.968 417.013 598.651 417.457C599.354 417.9 600.13 418.122 600.979 418.122ZM612.956 411.635V420.007H610.488V405.342H612.789V407.92C613.27 407.07 613.917 406.386 614.73 405.869C615.561 405.332 616.495 405.065 617.529 405.065C619.045 405.065 620.255 405.536 621.16 406.478C622.067 407.421 622.519 408.77 622.519 410.526V420.007H620.079V411.358C620.079 410.027 619.794 409.011 619.22 408.308C618.648 407.587 617.806 407.227 616.698 407.227C616.014 407.227 615.387 407.411 614.813 407.781C614.24 408.152 613.787 408.669 613.454 409.334C613.122 409.981 612.956 410.748 612.956 411.635ZM432.319 458.82H426.276V438.915H432.319C434.443 438.915 436.245 439.34 437.724 440.19C439.221 441.022 440.357 442.176 441.134 443.655C441.91 445.135 442.298 446.844 442.298 448.784C442.298 450.707 441.9 452.426 441.106 453.941C440.312 455.438 439.165 456.63 437.669 457.517C436.172 458.386 434.388 458.82 432.319 458.82ZM428.937 441.216V456.519H432.208C433.816 456.519 435.164 456.204 436.255 455.577C437.346 454.929 438.168 454.034 438.722 452.887C439.294 451.723 439.581 450.355 439.581 448.784C439.581 447.232 439.294 445.891 438.722 444.764C438.168 443.618 437.346 442.741 436.255 442.131C435.164 441.521 433.816 441.216 432.208 441.216H428.937ZM450.817 459.097C449.8 459.097 448.858 458.913 447.99 458.543C447.121 458.155 446.363 457.618 445.717 456.935C445.088 456.252 444.599 455.448 444.248 454.523C443.896 453.58 443.721 452.564 443.721 451.473C443.721 450.383 443.896 449.376 444.248 448.452C444.599 447.527 445.088 446.723 445.717 446.04C446.363 445.356 447.121 444.83 447.99 444.459C448.858 444.089 449.8 443.905 450.817 443.905C451.851 443.905 452.803 444.089 453.672 444.459C454.54 444.83 455.289 445.356 455.918 446.04C456.546 446.723 457.035 447.527 457.387 448.452C457.756 449.376 457.941 450.383 457.941 451.473C457.941 452.564 457.756 453.58 457.387 454.523C457.035 455.448 456.546 456.252 455.918 456.935C455.289 457.618 454.54 458.155 453.672 458.543C452.803 458.913 451.851 459.097 450.817 459.097ZM450.817 456.935C451.685 456.935 452.461 456.713 453.146 456.27C453.847 455.826 454.393 455.198 454.781 454.384C455.187 453.571 455.391 452.6 455.391 451.473C455.391 450.365 455.187 449.404 454.781 448.59C454.393 447.777 453.847 447.158 453.146 446.733C452.461 446.289 451.685 446.067 450.817 446.067C449.966 446.067 449.19 446.289 448.489 446.733C447.804 447.158 447.26 447.777 446.853 448.59C446.446 449.404 446.244 450.365 446.244 451.473C446.244 452.6 446.446 453.571 446.853 454.384C447.26 455.198 447.804 455.826 448.489 456.27C449.19 456.713 449.966 456.935 450.817 456.935ZM466.009 459.125C464.678 459.125 463.505 458.802 462.489 458.155C461.491 457.507 460.705 456.612 460.132 455.466C459.559 454.301 459.273 452.971 459.273 451.473C459.273 449.994 459.559 448.691 460.132 447.564C460.723 446.418 461.518 445.523 462.516 444.875C463.532 444.21 464.696 443.877 466.009 443.877C467.191 443.877 468.245 444.127 469.169 444.626C470.112 445.125 470.878 445.836 471.47 446.76C472.08 447.666 472.476 448.747 472.662 450.004H470.084C469.917 448.766 469.464 447.796 468.726 447.093C468.005 446.39 467.098 446.04 466.009 446.04C465.158 446.04 464.419 446.271 463.791 446.733C463.162 447.176 462.673 447.804 462.322 448.618C461.97 449.432 461.796 450.383 461.796 451.473C461.796 452.564 461.97 453.525 462.322 454.357C462.673 455.188 463.162 455.836 463.791 456.297C464.419 456.741 465.158 456.963 466.009 456.963C467.118 456.963 468.033 456.612 468.753 455.909C469.474 455.206 469.926 454.228 470.112 452.971H472.662C472.495 454.246 472.107 455.345 471.498 456.27C470.906 457.175 470.139 457.878 469.197 458.377C468.272 458.876 467.209 459.125 466.009 459.125ZM484.297 452.832V444.155H486.736V458.82H484.463V456.38C484.095 457.175 483.493 457.832 482.662 458.349C481.849 458.848 480.925 459.097 479.89 459.097C478.911 459.097 478.042 458.903 477.284 458.515C476.527 458.127 475.935 457.527 475.51 456.713C475.104 455.899 474.9 454.874 474.9 453.636V444.155H477.367V453.137C477.367 454.486 477.672 455.456 478.282 456.048C478.892 456.64 479.678 456.935 480.638 456.935C481.323 456.935 481.941 456.769 482.495 456.436C483.05 456.085 483.485 455.595 483.798 454.967C484.131 454.339 484.297 453.626 484.297 452.832ZM492.653 458.82H490.186V444.155H492.487V446.733C492.986 445.828 493.632 445.125 494.427 444.626C495.221 444.127 496.126 443.877 497.144 443.877C498.252 443.877 499.203 444.154 499.999 444.709C500.793 445.263 501.347 446.049 501.662 447.065C502.141 446.085 502.807 445.309 503.658 444.737C504.525 444.164 505.523 443.877 506.651 443.877C508.166 443.877 509.368 444.358 510.255 445.319C511.142 446.261 511.585 447.602 511.585 449.339V458.82H509.146V450.115C509.146 448.802 508.859 447.796 508.287 447.093C507.732 446.39 506.909 446.04 505.82 446.04C505.135 446.04 504.517 446.224 503.963 446.594C503.408 446.945 502.965 447.444 502.632 448.091C502.299 448.739 502.133 449.487 502.133 450.337V458.82H499.666V450.115C499.666 448.802 499.379 447.796 498.807 447.093C498.252 446.39 497.429 446.04 496.34 446.04C495.655 446.04 495.027 446.224 494.455 446.594C493.9 446.945 493.457 447.444 493.124 448.091C492.81 448.739 492.653 449.487 492.653 450.337V458.82ZM520.846 459.097C519.46 459.097 518.241 458.783 517.188 458.155C516.134 457.507 515.311 456.602 514.72 455.438C514.147 454.273 513.861 452.925 513.861 451.39C513.861 449.949 514.156 448.664 514.748 447.537C515.339 446.41 516.152 445.523 517.188 444.875C518.241 444.21 519.423 443.877 520.736 443.877C521.825 443.877 522.795 444.081 523.646 444.487C524.514 444.893 525.254 445.467 525.864 446.206C526.474 446.945 526.917 447.814 527.194 448.812C527.471 449.81 527.555 450.901 527.444 452.083H515.275V450.448H524.838C524.783 448.969 524.385 447.814 523.646 446.982C522.906 446.151 521.928 445.735 520.708 445.735C519.821 445.735 519.053 445.966 518.407 446.428C517.76 446.889 517.251 447.546 516.883 448.396C516.513 449.228 516.328 450.226 516.328 451.39C516.328 452.573 516.503 453.598 516.855 454.468C517.206 455.337 517.714 456.002 518.379 456.464C519.063 456.925 519.867 457.157 520.791 457.157C521.918 457.157 522.851 456.87 523.591 456.297C524.329 455.705 524.81 454.893 525.032 453.858H527.471C527.119 455.484 526.353 456.769 525.171 457.711C524.006 458.636 522.565 459.097 520.846 459.097ZM532.392 450.448V458.82H529.925V444.155H532.225V446.733C532.706 445.883 533.354 445.198 534.166 444.681C534.997 444.145 535.931 443.877 536.965 443.877C538.482 443.877 539.692 444.349 540.597 445.291C541.503 446.234 541.955 447.582 541.955 449.339V458.82H539.516V450.17C539.516 448.84 539.23 447.824 538.656 447.121C538.084 446.4 537.243 446.04 536.134 446.04C535.45 446.04 534.823 446.224 534.249 446.594C533.676 446.964 533.223 447.481 532.891 448.147C532.558 448.794 532.392 449.561 532.392 450.448ZM553.217 456.436V458.598C552.81 458.783 552.422 458.913 552.053 458.986C551.683 459.06 551.295 459.097 550.889 459.097C550.02 459.097 549.244 458.941 548.56 458.626C547.895 458.293 547.368 457.794 546.98 457.129C546.592 456.446 546.398 455.567 546.398 454.495V446.261H543.1V444.155H546.398V439.83H548.865V444.155H553.356V446.261H548.865V453.969C548.865 455.022 549.095 455.761 549.558 456.186C550.038 456.612 550.667 456.824 551.443 456.824C551.756 456.824 552.061 456.796 552.358 456.741C552.653 456.685 552.94 456.584 553.217 456.436ZM564.487 458.82V456.38C564.061 457.23 563.433 457.896 562.602 458.377C561.788 458.858 560.828 459.097 559.719 459.097C558.204 459.097 556.984 458.7 556.06 457.905C555.155 457.111 554.702 456.048 554.702 454.717C554.702 453.275 555.266 452.185 556.393 451.446C557.519 450.707 559.183 450.337 561.382 450.337C561.808 450.337 562.223 450.346 562.629 450.365C563.055 450.383 563.59 450.43 564.237 450.503V449.366C564.237 448.258 563.95 447.388 563.378 446.76C562.805 446.133 562.002 445.818 560.966 445.818C559.895 445.818 559.036 446.133 558.388 446.76C557.741 447.388 557.4 448.248 557.363 449.339H555.145C555.183 448.23 555.44 447.269 555.921 446.456C556.42 445.642 557.104 445.014 557.973 444.57C558.842 444.109 559.839 443.877 560.966 443.877C562.74 443.877 564.117 444.358 565.096 445.319C566.076 446.279 566.566 447.63 566.566 449.366V458.82H564.487ZM557.03 454.634C557.03 455.448 557.317 456.103 557.889 456.602C558.462 457.083 559.22 457.323 560.162 457.323C561.4 457.323 562.39 456.963 563.128 456.242C563.867 455.503 564.237 454.523 564.237 453.303V452.056C563.665 452 563.156 451.963 562.713 451.945C562.287 451.927 561.891 451.917 561.521 451.917C560.024 451.917 558.897 452.139 558.139 452.582C557.4 453.026 557.03 453.709 557.03 454.634ZM577.77 456.436V458.598C577.364 458.783 576.976 458.913 576.606 458.986C576.236 459.06 575.847 459.097 575.441 459.097C574.572 459.097 573.796 458.941 573.113 458.626C572.448 458.293 571.921 457.794 571.533 457.129C571.145 456.446 570.951 455.567 570.951 454.495V446.261H567.652V444.155H570.951V439.83H573.418V444.155H577.908V446.261H573.418V453.969C573.418 455.022 573.649 455.761 574.111 456.186C574.592 456.612 575.22 456.824 575.996 456.824C576.31 456.824 576.615 456.796 576.911 456.741C577.206 456.685 577.493 456.584 577.77 456.436ZM582.582 458.82H580.115V444.155H582.582V458.82ZM583.192 440.745C583.192 441.244 583.016 441.659 582.665 441.992C582.332 442.307 581.889 442.463 581.335 442.463C580.798 442.463 580.355 442.307 580.004 441.992C579.652 441.659 579.477 441.244 579.477 440.745C579.477 440.264 579.652 439.867 580.004 439.552C580.355 439.238 580.798 439.081 581.335 439.081C581.889 439.081 582.332 439.238 582.665 439.552C583.016 439.867 583.192 440.264 583.192 440.745ZM592.073 459.097C591.056 459.097 590.113 458.913 589.246 458.543C588.377 458.155 587.619 457.618 586.973 456.935C586.343 456.252 585.854 455.448 585.504 454.523C585.151 453.58 584.977 452.564 584.977 451.473C584.977 450.383 585.151 449.376 585.504 448.452C585.854 447.527 586.343 446.723 586.973 446.04C587.619 445.356 588.377 444.83 589.246 444.459C590.113 444.089 591.056 443.905 592.073 443.905C593.107 443.905 594.059 444.089 594.928 444.459C595.796 444.83 596.544 445.356 597.173 446.04C597.801 446.723 598.291 447.527 598.643 448.452C599.011 449.376 599.197 450.383 599.197 451.473C599.197 452.564 599.011 453.58 598.643 454.523C598.291 455.448 597.801 456.252 597.173 456.935C596.544 457.618 595.796 458.155 594.928 458.543C594.059 458.913 593.107 459.097 592.073 459.097ZM592.073 456.935C592.941 456.935 593.717 456.713 594.402 456.27C595.103 455.826 595.649 455.198 596.037 454.384C596.443 453.571 596.647 452.6 596.647 451.473C596.647 450.365 596.443 449.404 596.037 448.59C595.649 447.777 595.103 447.158 594.402 446.733C593.717 446.289 592.941 446.067 592.073 446.067C591.222 446.067 590.446 446.289 589.745 446.733C589.06 447.158 588.515 447.777 588.109 448.59C587.702 449.404 587.499 450.365 587.499 451.473C587.499 452.6 587.702 453.571 588.109 454.384C588.515 455.198 589.06 455.826 589.745 456.27C590.446 456.713 591.222 456.935 592.073 456.935ZM604.049 450.448V458.82H601.582V444.155H603.883V446.733C604.363 445.883 605.01 445.198 605.823 444.681C606.655 444.145 607.588 443.877 608.623 443.877C610.138 443.877 611.348 444.349 612.254 445.291C613.159 446.234 613.612 447.582 613.612 449.339V458.82H611.173V450.17C611.173 448.84 610.886 447.824 610.314 447.121C609.74 446.4 608.9 446.04 607.791 446.04C607.107 446.04 606.479 446.224 605.906 446.594C605.333 446.964 604.881 447.481 604.548 448.147C604.216 448.794 604.049 449.561 604.049 450.448Z" fill="white" />
		<path d="M164.909 25.2188L199.52 32.5263V78.6796H164.909V25.2188Z" fill="black" />
		<path d="M199.517 78.6758H174.521V144.444H199.517V78.6758Z" fill="black" />
		<path d="M224.516 37.7852L249.512 43.106V144.451H224.516V37.7852Z" fill="black" />
		<path d="M212.207 51.7578V89.7941V103.68H199.517L204.847 51.7578H212.207Z" fill="black" />
		<path d="M212.207 51.7578V89.7941V103.68H224.513L219.343 51.7578H212.207Z" fill="black" />
		<path d="M199.519 144.448V103.68H212.209L206.863 144.448H199.519Z" fill="black" />
		<path d="M224.516 144.448V103.68H212.21L217.393 144.448H224.516Z" fill="black" />
		<path d="M255.066 44.4414L280.062 49.4298V144.444H255.066V44.4414Z" fill="black" />
		<path d="M280.067 49.4375L292.373 52.0902V70.3416H280.067V49.4375Z" fill="black" />
		<path d="M292.37 52.0586L317.366 57.3079V144.457H292.37V52.0586Z" fill="black" />
		<path d="M290.835 80.9492H280.067V111.368H290.835V80.9492Z" fill="black" />
		<path d="M218.555 28.2896L249.865 35.0065V6.63164L218.555 0.00390625V28.2896Z" fill="black" />
		<path d="M183.374 4.72266L182.464 20.6293L229.289 30.574L229.676 14.0827L183.374 4.72266Z" fill="black" />
	</g>
	<defs>
		<clipPath id="clip0_1734_56">
			<rect width="650" height="481" fill="white" />
		</clipPath>
	</defs>
</svg>